<svg id="iconMenu" width="70" height="70" fill="currentColor" viewBox="0 0 24 24" xmlns="http://www.w3.org/2000/svg">
     <path d="M7.38 14.795a5.86 5.86 0 0 0 1.409 2.261 5.86 5.86 0 0 0 6.436 1.259 5.876 5.876 0 0 0 3.124-7.697 5.863 5.863 0 0 0-1.257-1.864 5.86 5.86 0 0 0-4.152-1.72 6 6 0 0 0-2.318.46c-.57.242-1.536.863-2.102 1.447l-.002.002V4.11h8.117c.295-.003.295-.417.295-.55 0-.137 0-.55-.296-.553H7.857a.387.387 0 0 0-.388.384v6.8c0 .222.273.38.527.435.496.104.61-.053.732-.222l.015-.021c.187-.275.767-.858.771-.863a4.776 4.776 0 0 1 3.406-1.403 4.76 4.76 0 0 1 3.394 1.403 4.75 4.75 0 0 1 1.408 3.385c0 1.28-.498 2.483-1.4 3.385a4.858 4.858 0 0 1-3.416 1.403 4.656 4.656 0 0 1-2.42-.668l.004-4.137c0-.552.238-1.151.64-1.604a2.35 2.35 0 0 1 1.778-.803c.667 0 1.291.254 1.754.714.46.455.714 1.064.714 1.71a2.443 2.443 0 0 1-2.474 2.467c-.268 0-.753-.117-.773-.123-.28-.084-.4.305-.439.435-.15.492.077.59.122.604.448.138.741.164 1.124.164a3.555 3.555 0 0 0 3.551-3.553c0-1.943-1.592-3.526-3.548-3.526a3.59 3.59 0 0 0-2.536 1.033c-.644.632-1.013 1.478-1.013 2.317v.02c-.004.106-.004 2.584-.005 3.399l-.005-.006c-.368-.407-.73-1.03-.973-1.668-.097-.25-.309-.206-.6-.116-.128.04-.515.159-.43.438l.002.004Zm4.171-.972c.002.118.111.223.175.286l.021.019c.111.11.217.164.315.164.081 0 .13-.037.148-.054.05-.046.604-.608.658-.662l.618.618c.058.064.12.097.192.098.1 0 .207-.058.32-.174.267-.272.134-.42.07-.49l-.629-.63.655-.658c.144-.155.017-.32-.11-.446-.184-.184-.36-.23-.475-.127l-.65.652-.657-.658a.183.183 0 0 0-.128-.051c-.087 0-.19.06-.308.177-.202.2-.246.34-.14.453l.656.656-.653.655a.247.247 0 0 0-.078.172Zm1.434-8.891c-1.053 0-2.17.21-2.992.566a.23.23 0 0 0-.15.205c-.012.093.012.216.075.377.051.13.187.478.45.376a7.566 7.566 0 0 1 2.617-.498c.96 0 1.892.188 2.768.558.696.296 1.354.72 2.068 1.34a.243.243 0 0 0 .165.069c.138 0 .271-.137.386-.266.191-.214.321-.392.135-.57a7.674 7.674 0 0 0-2.354-1.52 8.088 8.088 0 0 0-3.168-.637Zm5.668 12.986c-.127-.126-.235-.2-.33-.228a.24.24 0 0 0-.247.059l-.063.062a7.07 7.07 0 0 1-5.018 2.08 7.09 7.09 0 0 1-5.02-2.08 6.794 6.794 0 0 1-1.52-2.255 7.618 7.618 0 0 1-.463-1.596c-.004-.018-.005-.031-.009-.041-.044-.232-.257-.25-.564-.202-.127.019-.517.078-.479.358l.002.006a8.104 8.104 0 0 0 2.288 4.478 8.09 8.09 0 0 0 2.59 1.747 8.092 8.092 0 0 0 3.175.642 8.06 8.06 0 0 0 3.172-.643 8.13 8.13 0 0 0 2.658-1.813c.083-.09.154-.248-.172-.574"></path>
</svg>