<svg id="iconMenu" width="70" height="70" fill="currentColor" viewBox="0 0 24 24" xmlns="http://www.w3.org/2000/svg">
     <path d="M19.93 10.609a2.74 2.74 0 0 0-2.03-.8 3.28 3.28 0 0 0-2.16.76v-.05a3.67 3.67 0 0 0-5.09-3.39 3.61 3.61 0 0 0-1.78 1.56 3.67 3.67 0 0 0-4.94-1.42 3.66 3.66 0 0 0-1.37 1.28 3.67 3.67 0 0 0 2.86 5.62l-1.6 2.76h2.39l2.65-4.59a3.63 3.63 0 0 0 2.93 1.84l-1.59 2.76h2.4l1.86-3.23a3.53 3.53 0 0 0 2.07 3.19 3.52 3.52 0 0 0 2.61.05 2.58 2.58 0 0 0 .9-.74v.73h2v-9.88h-2.11v3.55Zm-12.78.72a1.69 1.69 0 0 1-1.46.83 1.72 1.72 0 0 1-.86-.16 1.75 1.75 0 0 1-.62-.62 1.78 1.78 0 0 1-.21-.87 1.69 1.69 0 0 1 1.67-1.69c.296-.001.586.078.84.23.26.14.474.352.62.61.15.25.23.537.23.83a1.72 1.72 0 0 1-.21.84Zm6.38 0a1.58 1.58 0 0 1-.62.61 1.53 1.53 0 0 1-.84.22 1.78 1.78 0 0 1-.84-.22 1.65 1.65 0 0 1-.61-.62 1.669 1.669 0 0 1 .62-2.3 1.63 1.63 0 0 1 .84-.23 1.69 1.69 0 0 1 1.62 1.241 1.69 1.69 0 0 1-.15 1.269l-.02.03Zm6.3 3a1.72 1.72 0 0 1-2 .85 1.72 1.72 0 0 1-1.29-1.85c.042-.405.222-.783.51-1.07a1.75 1.75 0 0 1 2.35-.11 1.73 1.73 0 0 1 .43 2.18Z"></path>
</svg>