<svg id="iconMenu" width="70" height="70" fill="currentColor" viewBox="0 0 24 24" xmlns="http://www.w3.org/2000/svg">
     <path d="M12 16.71c-1.012-1.27-1.608-2.385-1.807-3.34-.197-.768-.12-1.384.218-1.847.357-.532.89-.791 1.589-.791s1.23.259 1.589.796c.335.458.419 1.075.215 1.848-.218.974-.813 2.087-1.808 3.34l.005-.005Zm7.197.856c-.14.934-.775 1.708-1.65 2.085-1.687.734-3.36-.437-4.79-2.026 2.366-2.961 2.804-5.268 1.788-6.758-.596-.855-1.45-1.271-2.544-1.271-2.206 0-3.42 1.867-2.942 4.034.276 1.173 1.013 2.506 2.186 3.996-.735.813-1.432 1.39-2.047 1.748-.478.258-.934.418-1.37.456-2.008.299-3.582-1.647-2.867-3.656.1-.26.297-.734.634-1.471l.019-.04c1.097-2.381 2.43-5.087 3.96-8.09l.04-.1.435-.835c.338-.616.477-.892 1.014-1.231.258-.157.576-.235.934-.235.715 0 1.27.418 1.51.753.119.18.26.419.437.716l.419.815.06.119c1.53 3 2.863 5.702 3.955 8.089l.02.019.4.915.238.573c.183.459.22.915.16 1.393v.002Zm.913-1.791c-.14-.438-.378-.953-.675-1.57v-.021a263.318 263.318 0 0 0-3.976-8.128l-.084-.121c-.89-1.824-1.526-2.92-3.375-2.92-1.827 0-2.604 1.27-3.397 2.923l-.061.119c-1.251 2.426-2.564 5.128-3.975 8.13v.039l-.418.914c-.158.378-.237.575-.26.636-1.011 2.782 1.075 5.226 3.6 5.226.02 0 .099 0 .198-.021h.278c1.313-.16 2.664-.993 4.035-2.485 1.37 1.49 2.725 2.326 4.033 2.485h.279c.1.02.18.02.2.02 2.525.003 4.61-2.443 3.598-5.226Z"></path>
</svg>