<svg id="iconMenu" width="70" height="70" fill="currentColor" viewBox="0 0 24 24" xmlns="http://www.w3.org/2000/svg">
     <path d="M12.177 9.063A3.582 3.582 0 0 0 8.6 12.646a3.584 3.584 0 0 0 3.576 3.585 3.578 3.578 0 0 0 3.575-3.585 3.582 3.582 0 0 0-3.575-3.584Zm2.518 2.268-2.366 1.229c-.07.038-.153-.018-.153-.094v-2.67c0-.06.055-.104.11-.104a2.943 2.943 0 0 1 2.452 1.491c.028.056.01.121-.043.149Z"></path>
     <path d="M18.578 3H5.361A2.363 2.363 0 0 0 3 5.366v13.277a2.368 2.368 0 0 0 2.361 2.371h13.217a2.367 2.367 0 0 0 2.361-2.372V5.372A2.368 2.368 0 0 0 18.578 3Zm-8.112 3.404a.78.78 0 0 1 .779-.781h1.815c.43 0 .778.35.778.781v.618a.106.106 0 0 1-.131.104 5.677 5.677 0 0 0-3.106.017c-.07.016-.136-.033-.136-.104v-.635h.001ZM7.08 8.993a.78.78 0 0 1 .001-1.103l.371-.371.002-.002a.776.776 0 0 1 1.099.002l.31.311c.043.05.038.127-.017.159a5.82 5.82 0 0 0-1.296 1.3c-.044.049-.114.06-.163.011l-.306-.306-.001-.001Zm5.097 8.737a5.079 5.079 0 0 1-5.074-5.087c0-2.813 2.272-5.092 5.074-5.092a5.074 5.074 0 0 1 5.074 5.086c0 2.815-2.272 5.093-5.074 5.093Z"></path>
</svg>