<svg id="iconMenu" width="70" height="70" fill="currentColor" viewBox="0 0 24 24" xmlns="http://www.w3.org/2000/svg">
     <path d="M2.027 17.022c.061-.098.156-.105.29-.02 3.034 1.76 6.337 2.645 9.905 2.645 2.381 0 4.73-.447 7.051-1.332l.262-.117c.115-.05.195-.084.244-.109.19-.074.326-.037.438.11.102.142.076.278-.1.4-.213.157-.5.341-.84.544-1.037.62-2.203 1.098-3.492 1.441-1.23.33-2.496.502-3.77.508-1.889 0-3.68-.33-5.369-.99a14.878 14.878 0 0 1-4.53-2.797c-.085-.06-.126-.123-.126-.184 0-.039.016-.074.041-.109l-.004.01Zm5.48-5.189c0-.84.206-1.555.618-2.152.414-.592.977-1.04 1.703-1.346.666-.28 1.465-.48 2.43-.602.326-.037.861-.086 1.6-.145v-.31c0-.773-.084-1.299-.248-1.564-.252-.359-.65-.54-1.203-.54h-.15c-.4.038-.746.161-1.039.382a1.51 1.51 0 0 0-.564.916c-.049.25-.172.387-.36.426l-2.106-.264c-.209-.05-.31-.15-.31-.326a.5.5 0 0 1 .017-.123c.21-1.078.715-1.88 1.52-2.404.814-.514 1.752-.814 2.828-.875h.451c1.38 0 2.47.361 3.244 1.076.115.123.227.25.34.398.1.14.188.264.234.377.063.111.127.275.164.475.051.213.088.352.113.426.023.086.051.25.064.514.006.262.016.41.016.461v4.406c0 .314.05.602.137.865.088.26.174.451.262.563l.428.561a.598.598 0 0 1 .111.303c0 .102-.049.188-.148.26-1.002.877-1.553 1.352-1.639 1.428-.137.113-.313.125-.525.04a5.55 5.55 0 0 1-.439-.415l-.258-.29c-.05-.064-.14-.175-.266-.353l-.25-.363c-.676.74-1.338 1.205-2.002 1.393-.414.125-.914.188-1.529.188-.926 0-1.7-.285-2.303-.863-.598-.576-.9-1.389-.9-2.453l-.043-.063.001-.007Zm3.13-.367c0 .475.117.852.355 1.14.236.284.563.427.965.427.035 0 .088-.008.16-.018.078-.012.111-.02.141-.02.512-.133.902-.46 1.19-.982a2.62 2.62 0 0 0 .298-.758c.076-.268.1-.494.111-.666.016-.166.016-.453.016-.84V9.3c-.703 0-1.24.048-1.604.147-1.063.303-1.604.977-1.604 2.03l-.029-.017v.007h.001Zm7.646 5.865a.646.646 0 0 1 .11-.143c.3-.2.595-.342.876-.416.44-.113.89-.18 1.344-.2.117-.01.234 0 .346.024.54.051.873.141.977.273.053.078.074.191.074.328v.125c0 .426-.117.926-.348 1.502a3.617 3.617 0 0 1-.963 1.402c-.06.05-.115.074-.164.074-.025 0-.05 0-.074-.01-.076-.037-.09-.1-.055-.2.451-1.052.672-1.788.672-2.202 0-.127-.025-.227-.074-.289-.119-.137-.457-.217-1.02-.217a9.441 9.441 0 0 0-.727.04c-.303.04-.582.077-.834.114-.074 0-.123-.014-.15-.037-.025-.025-.03-.039-.018-.064 0-.014.006-.025.018-.053v-.049l.01-.002Z"></path>
</svg>