<svg id="iconMenu" width="70" height="70" fill="currentColor" viewBox="0 0 24 24" xmlns="http://www.w3.org/2000/svg">
     <path d="M4.626 8.878c.4-.95.98-1.813 1.71-2.541a7.92 7.92 0 0 1 2.542-1.71 8.12 8.12 0 0 1 6.13-.041A2.49 2.49 0 0 0 17.5 7C18.886 7 20 5.886 20 4.5S18.886 2 17.5 2c-.689 0-1.312.276-1.763.725-2.431-.973-5.223-.958-7.635.059A9.98 9.98 0 0 0 2 12h2c0-1.086.211-2.136.626-3.122Zm14.747 6.244a7.937 7.937 0 0 1-1.71 2.541 7.93 7.93 0 0 1-2.542 1.71 8.12 8.12 0 0 1-6.13.041A2.488 2.488 0 0 0 6.5 17 2.493 2.493 0 0 0 4 19.5C4 20.886 5.114 22 6.5 22c.689 0 1.312-.276 1.763-.725A9.973 9.973 0 0 0 12 22a9.983 9.983 0 0 0 10-10h-2a7.993 7.993 0 0 1-.627 3.122Z"></path>
     <path d="M12 7.46A4.543 4.543 0 0 0 7.462 12 4.543 4.543 0 0 0 12 16.537a4.543 4.543 0 0 0 4.538-4.538A4.543 4.543 0 0 0 12 7.46Z"></path>
</svg>