<svg id="iconMenu" width="70" height="70" fill="currentColor" viewBox="0 0 24 24" xmlns="http://www.w3.org/2000/svg">
     <path d="M18.344 8.711c-.707 0-1.279.572-1.279 1.278v4.53a1.279 1.279 0 1 0 2.558 0V9.99c0-.706-.572-1.278-1.279-1.278Zm-12.688 0c-.707 0-1.279.572-1.279 1.278v4.53a1.279 1.279 0 1 0 2.558 0V9.99a1.277 1.277 0 0 0-1.279-1.278Zm8.889-3.809.768-1.388a.343.343 0 0 0-.133-.47.345.345 0 0 0-.471.135L13.92 4.6A5.164 5.164 0 0 0 12 4.231c-.684 0-1.332.132-1.92.367L9.291 3.18a.344.344 0 0 0-.635.073.345.345 0 0 0 .03.262l.769 1.388C8.072 5.691 7.148 7.1 7.148 8.711c0 .011 0 .021.002.034-.002.006-.002.013-.002.02h9.703v-.054c.001-1.61-.923-3.019-2.306-3.809ZM9.76 6.87a.346.346 0 1 1 .005-.692.346.346 0 0 1-.005.692Zm4.48 0a.347.347 0 0 1 0-.692.346.346 0 0 1 0 .692Zm-7.092 9.251c0 .646.525 1.171 1.174 1.171h.586v2.401a1.279 1.279 0 1 0 2.558 0v-2.4h1.066v2.4c0 .707.572 1.278 1.277 1.278.709 0 1.281-.57 1.281-1.278v-2.4h.586c.648 0 1.174-.525 1.174-1.172V9.03H7.148v7.092Z"></path>
</svg>