<svg id="iconMenu" width="70" height="70" fill="currentColor" viewBox="0 0 24 24" xmlns="http://www.w3.org/2000/svg">
     <path d="M12 2C6.486 2 2 6.486 2 12s4.486 10 10 10 10-4.486 10-10S17.514 2 12 2Zm-5 8.5.002-.022-1.373-.549.742-1.857 5 2-.742 1.857-1.031-.413c-.014.014-.023.031-.037.044A1.5 1.5 0 0 1 7 10.5ZM8 17s1-3 4-3 4 3 4 3H8Zm8.986-6.507c0 .412-.167.785-.438 1.056a1.489 1.489 0 0 1-2.112 0c-.011-.011-.019-.024-.029-.035l-1.037.415-.742-1.857 5-2 .742 1.857-1.386.554a.038.038 0 0 1 .002.01Z"></path>
</svg>