<svg id="iconMenu" width="70" height="70" fill="currentColor" viewBox="0 0 24 24" xmlns="http://www.w3.org/2000/svg">
     <path d="M5 8.999a6.99 6.99 0 0 0 2.879 5.646l.001.001c.573.42 1.208.75 1.881.979l.051.019c.38.124.768.214 1.163.271a6.78 6.78 0 0 0 1.024.085H12c.35 0 .69-.034 1.027-.084l.182-.028c.336-.059.664-.139.981-.243l.042-.016C17 14.693 19 12.078 19 8.999 19 5.14 15.86 2 12 2S5 5.14 5 8.999ZM12 4c2.756 0 5 2.242 5 4.999h-2A3.003 3.003 0 0 0 12 6V4ZM7.521 16.795V22L12 20.5l4.479 1.5.001-5.205a8.932 8.932 0 0 1-8.959 0Z"></path>
</svg>