<svg id="iconMenu" width="70" height="70" fill="currentColor" viewBox="0 0 24 24" xmlns="http://www.w3.org/2000/svg">
     <path d="M18.75 11.352a4.31 4.31 0 0 1-.79-.08 3.897 3.897 0 0 1-.73-.23l-.17-.04h-.12c-.1 0-.15.07-.15.21v.33a.429.429 0 0 0 0 .19c.05.082.124.148.21.19.241.12.497.208.76.26a4.38 4.38 0 0 0 1 .12c.34.01.677-.037 1-.14a1.94 1.94 0 0 0 .73-.37 1.81 1.81 0 0 0 .49-.58 1.78 1.78 0 0 0 .17-.78 1.54 1.54 0 0 0-.3-.93 2.15 2.15 0 0 0-1-.64l-.95-.3a1.999 1.999 0 0 1-.73-.36.648.648 0 0 1-.2-.47.66.66 0 0 1 .31-.6 1.82 1.82 0 0 1 .89-.18 2.89 2.89 0 0 1 1.27.26.79.79 0 0 0 .26.08c.1 0 .15-.08.15-.22v-.36a.38.38 0 0 0-.06-.22.56.56 0 0 0-.2-.16 1.504 1.504 0 0 0-.28-.12 3.445 3.445 0 0 0-.38-.11l-.44-.1a3.399 3.399 0 0 0-.49 0 2.82 2.82 0 0 0-.83.11 2.19 2.19 0 0 0-.7.35 1.608 1.608 0 0 0-.47.54 1.5 1.5 0 0 0-.18.74 1.6 1.6 0 0 0 .33 1c.275.33.645.568 1.06.68l1 .3c.248.058.478.175.67.34a.66.66 0 0 1 .18.47.721.721 0 0 1-.35.63 1.83 1.83 0 0 1-.96.19Zm-5.81-4.85a.481.481 0 0 0-.13-.26.37.37 0 0 0-.26-.07H12a.43.43 0 0 0-.26.07.42.42 0 0 0-.13.26l-1 4.4-1.14-4.4a.48.48 0 0 0-.14-.26s-.13-.07-.26-.07h-.65c-.11 0-.16.06-.16.17.01.092.03.183.06.27l1.56 5.14c.02.092.062.177.12.25a.45.45 0 0 0 .26.06h.57a.49.49 0 0 0 .27-.06.57.57 0 0 0 .12-.27l1-4.28 1 4.29a.42.42 0 0 0 .12.26.4.4 0 0 0 .27.07h.57a.41.41 0 0 0 .25-.07.44.44 0 0 0 .14-.26l1.61-5.14a.738.738 0 0 0 0-.16.532.532 0 0 0 0-.11.152.152 0 0 0-.042-.127.15.15 0 0 0-.128-.043h-.62a.45.45 0 0 0-.26.07.678.678 0 0 0-.13.26l-1 4.51-1.06-4.5Zm-7.17 2.13a5.918 5.918 0 0 0-.71-.05 2.42 2.42 0 0 0-1.63.52 1.72 1.72 0 0 0-.6 1.37 1.7 1.7 0 0 0 .49 1.28 1.82 1.82 0 0 0 1.33.48 2.48 2.48 0 0 0 2-.92c.059.134.126.264.2.39.072.11.152.214.24.31a.259.259 0 0 0 .37 0l.42-.28a.28.28 0 0 0 .13-.2.27.27 0 0 0 0-.16 3.626 3.626 0 0 1-.21-.47 2 2 0 0 1-.07-.6v-2.11a2.2 2.2 0 0 0-.55-1.64 2.42 2.42 0 0 0-1.85-.55 3.9 3.9 0 0 0-1 .13 3.9 3.9 0 0 0-.84.3.47.47 0 0 0-.18.14.37.37 0 0 0 0 .23v.33c0 .14 0 .2.14.2a.26.26 0 0 0 .11 0l.23-.08c.204-.1.414-.183.63-.25a3 3 0 0 1 .72-.09 1.5 1.5 0 0 1 1.08.31c.239.3.35.68.31 1.06v.49l-.76-.14Zm.78.9v.27c.001.196-.022.39-.07.58a1.06 1.06 0 0 1-.23.43 1.38 1.38 0 0 1-.63.42 2.118 2.118 0 0 1-.68.12.938.938 0 0 1-.7-.24.92.92 0 0 1-.24-.71.92.92 0 0 1 .33-.76 1.52 1.52 0 0 1 1-.27h.62c.203.042.404.096.6.16Zm13.21 5.47a19.68 19.68 0 0 1-7.55 1.54 20 20 0 0 1-9.9-2.62c-.24-.15-.43.1-.22.29a14.68 14.68 0 0 0 9.91 3.79 14.4 14.4 0 0 0 8.1-2.47c.34-.31.03-.72-.34-.53Z"></path>
     <path d="M18.38 14.057c-.19.14-.16.33.05.3.71-.09 2.28-.27 2.56.09.28.36-.31 1.83-.58 2.49-.08.2.1.28.28.13a3.9 3.9 0 0 0 1.23-3.34 3.94 3.94 0 0 0-3.54.33Z"></path>
</svg>