<svg id="iconMenu" width="70" height="70" fill="currentColor" viewBox="0 0 24 24" xmlns="http://www.w3.org/2000/svg">
     <path d="M6.217 12.49c1.964-.422 1.693-2.772 1.637-3.287-.096-.788-1.028-2.172-2.291-2.061-1.588.14-1.821 2.44-1.821 2.44-.216 1.06.515 3.33 2.475 2.908Zm3.646-3.944c1.084 0 1.959-1.251 1.959-2.792 0-1.537-.871-2.785-1.955-2.785C8.78 2.969 7.9 4.21 7.9 5.754c0 1.543.88 2.792 1.965 2.792h-.003Zm4.674.186c1.454.195 2.38-1.355 2.568-2.53.188-1.166-.754-2.528-1.776-2.763-1.031-.237-2.303 1.41-2.431 2.484-.136 1.318.188 2.627 1.634 2.813l.005-.004Zm5.746 1.977c0-.562-.46-2.253-2.19-2.253s-1.965 1.596-1.965 2.726c0 1.077.089 2.573 2.247 2.528 2.148-.052 1.913-2.438 1.913-3.002h-.005Zm-2.183 4.92s-2.247-1.738-3.557-3.612c-1.776-2.768-4.304-1.64-5.144-.24-.845 1.419-2.153 2.307-2.34 2.545-.187.232-2.708 1.596-2.146 4.079.563 2.483 2.528 2.439 2.528 2.439s1.446.142 3.133-.234c1.686-.375 3.13.09 3.13.09s3.92 1.318 5.005-1.211c1.072-2.537-.61-3.847-.61-3.847"></path>
</svg>