<svg id="iconMenu" width="70" height="70" fill="currentColor" viewBox="0 0 24 24" xmlns="http://www.w3.org/2000/svg">
     <path d="M21.984 12.232a9.967 9.967 0 0 0-2.913-7.308 9.966 9.966 0 0 0-7.308-2.913 9.04 9.04 0 0 1-.673 4.313l-1.84-.78a7.044 7.044 0 0 0 .526-3.284A9.927 9.927 0 0 0 4.93 4.925a9.924 9.924 0 0 0-2.666 4.852 7.082 7.082 0 0 0 2.576-.276l.575 1.916c-1.1.33-2.257.443-3.398.344a9.964 9.964 0 0 0 6.267 9.515 9.954 9.954 0 0 0 3.953.705 9.078 9.078 0 0 1 .344-3.398l1.916.575a7.06 7.06 0 0 0-.276 2.576 9.927 9.927 0 0 0 4.853-2.666 9.927 9.927 0 0 0 2.665-4.848 7.056 7.056 0 0 0-3.284.526l-.78-1.84a9.024 9.024 0 0 1 4.31-.674ZM9.17 9.17a9.018 9.018 0 0 1-2.192 1.612L6.051 9.01a7.01 7.01 0 0 0 2.576-2.314l1.663 1.113c-.328.49-.705.948-1.12 1.361Zm7.074 7.068a6.992 6.992 0 0 0-1.257 1.708l-1.772-.927a9.024 9.024 0 0 1 2.972-3.312L17.3 15.37a6.98 6.98 0 0 0-1.056.868Z"></path>
</svg>