<svg id="iconMenu" width="70" height="70" fill="currentColor" viewBox="0 0 24 24" xmlns="http://www.w3.org/2000/svg">
     <path d="M18.328 4.258a9.953 9.953 0 0 0-5.949-2.235 8.99 8.99 0 0 1-1.835 7.107L12 10.586l6.328-6.328ZM7.701 9.115 4.258 5.672a9.938 9.938 0 0 0-2.112 4.704 7.007 7.007 0 0 0 5.555-1.26Zm12.041-3.443L13.414 12l1.456 1.456a8.994 8.994 0 0 1 7.107-1.835 9.953 9.953 0 0 0-2.235-5.949Zm2.112 7.952a7.007 7.007 0 0 0-5.555 1.261l3.443 3.443a9.923 9.923 0 0 0 2.112-4.704ZM9.115 7.701a7.007 7.007 0 0 0 1.261-5.555 9.928 9.928 0 0 0-4.704 2.112l3.443 3.443Zm4.51 14.153a9.935 9.935 0 0 0 4.703-2.11L14.885 16.3a7.005 7.005 0 0 0-1.26 5.554ZM12 13.414l-6.328 6.328a9.953 9.953 0 0 0 5.95 2.235 8.99 8.99 0 0 1 1.834-7.107L12 13.414Zm-7.742 4.914L10.586 12 9.13 10.544a8.992 8.992 0 0 1-7.107 1.835 9.953 9.953 0 0 0 2.235 5.95Z"></path>
</svg>