<svg id="iconMenu" width="70" height="70" fill="currentColor" viewBox="0 0 24 24" xmlns="http://www.w3.org/2000/svg">
     <path d="M7.803 5.734c.589 0 1.119.051 1.605.155.483.103.895.273 1.243.508.343.235.611.547.804.94.187.386.28.87.28 1.442 0 .62-.14 1.138-.421 1.551-.283.414-.7.753-1.256 1.015.757.22 1.318.602 1.69 1.146.374.55.557 1.206.557 1.976 0 .625-.119 1.162-.358 1.613a3.11 3.11 0 0 1-.974 1.114 4.315 4.315 0 0 1-1.399.64 6.29 6.29 0 0 1-1.609.206H2V5.734h5.803Zm-.351 4.972c.48 0 .878-.114 1.192-.345.312-.228.463-.604.463-1.119 0-.286-.051-.522-.151-.707a1.114 1.114 0 0 0-.417-.428 1.683 1.683 0 0 0-.597-.215 3.61 3.61 0 0 0-.697-.06H4.71v2.874h2.742Zm.151 5.24c.267 0 .521-.024.76-.078.241-.052.455-.136.637-.26.182-.12.332-.284.44-.492.109-.206.162-.475.162-.798 0-.634-.179-1.085-.533-1.358-.355-.27-.831-.404-1.414-.404H4.71v3.39h2.893Zm8.565-.042c.367.358.896.538 1.584.538.493 0 .919-.125 1.278-.373.354-.249.57-.515.653-.79h2.155c-.346 1.072-.871 1.838-1.589 2.3-.709.462-1.572.692-2.58.692-.702 0-1.334-.113-1.9-.337a4.033 4.033 0 0 1-1.439-.958 4.37 4.37 0 0 1-.905-1.485 5.432 5.432 0 0 1-.32-1.899c0-.666.111-1.289.329-1.864a4.375 4.375 0 0 1 .934-1.493c.405-.42.885-.75 1.444-.994a4.634 4.634 0 0 1 1.858-.362c.754 0 1.413.146 1.979.44a3.975 3.975 0 0 1 1.39 1.182c.363.493.622 1.058.783 1.691.161.632.217 1.292.171 1.983h-6.431c.001.704.238 1.371.606 1.73Zm2.812-4.68c-.291-.323-.783-.497-1.385-.497-.391 0-.714.065-.974.2a1.97 1.97 0 0 0-.62.49 1.77 1.77 0 0 0-.328.628 2.817 2.817 0 0 0-.111.587h3.982c-.058-.624-.272-1.085-.564-1.409ZM15.062 6.56h4.989v1.215h-4.989V6.56Z"></path>
</svg>