<svg id="iconMenu" width="70" height="70" fill="currentColor" viewBox="0 0 24 24" xmlns="http://www.w3.org/2000/svg">
     <path d="M19.447 5.345A3.27 3.27 0 0 0 16.29 3a3.293 3.293 0 0 0-3.277 3h-2.025a3.297 3.297 0 0 0-3.284-3 3.268 3.268 0 0 0-3.151 2.345l-2.511 8.368A.997.997 0 0 0 2 14v1a5.006 5.006 0 0 0 5.001 5 5.004 5.004 0 0 0 4.576-3h.846a5.003 5.003 0 0 0 4.576 3A5.006 5.006 0 0 0 22 15v-1c0-.098-.015-.194-.042-.287l-2.511-8.368ZM7.001 18A3.005 3.005 0 0 1 4 15c0-.076.017-.147.022-.222A2.995 2.995 0 0 1 7 12a3 3 0 0 1 3 3v.01A3.004 3.004 0 0 1 7.001 18Zm9.998 0A3.004 3.004 0 0 1 14 15.01V15a3 3 0 1 1 2.999 3Z"></path>
</svg>