<svg id="iconMenu" width="70" height="70" fill="currentColor" viewBox="0 0 24 24" xmlns="http://www.w3.org/2000/svg">
     <path d="M12.428 13.01c.036-.666.362-1.253.855-1.67a2.855 2.855 0 0 1 1.845-.66c.71 0 1.36.25 1.845.66.492.417.819 1.005.855 1.67a2.317 2.317 0 0 1-.72 1.796 2.829 2.829 0 0 1-1.98.782 2.83 2.83 0 0 1-1.98-.782c-.483-.472-.76-1.11-.72-1.795Z"></path>
     <path d="M8.124 14.364c.005.26.09.767.213 1.164.27.854.724 1.638 1.328 2.299a6.835 6.835 0 0 0 2.323 1.667c.961.424 2 .64 3.05.635a7.495 7.495 0 0 0 3.051-.645 6.915 6.915 0 0 0 2.321-1.675 6.199 6.199 0 0 0 1.326-2.303 5.76 5.76 0 0 0 .25-1.285 5.941 5.941 0 0 0-.888-3.594 6.496 6.496 0 0 0-1.545-1.703l.001-.001-6.249-4.8-.016-.013c-.41-.314-1.1-.313-1.55.002-.458.319-.509.846-.105 1.18l2.605 2.122-7.943.009h-.012c-.656 0-1.287.432-1.412.976-.128.555.318 1.015 1.001 1.017v.003l4.026-.008-7.188 5.516-.027.02c-.677.52-.896 1.383-.47 1.93.434.556 1.354.556 2.04.002l3.922-3.21c.001 0-.056.434-.052.695Zm10.078 1.45c-.808.824-1.938 1.29-3.163 1.293-1.226.002-2.356-.461-3.165-1.283a3.739 3.739 0 0 1-.864-1.352 3.503 3.503 0 0 1-.199-1.511c.044-.505.193-.987.434-1.422.236-.43.562-.815.962-1.144a4.477 4.477 0 0 1 2.832-.988 4.478 4.478 0 0 1 2.832.98c.4.326.725.71.961 1.139.24.436.39.916.434 1.42a3.521 3.521 0 0 1-.198 1.512c-.188.508-.484.97-.866 1.356Z"></path>
</svg>