<svg id="iconMenu" width="70" height="70" fill="currentColor" viewBox="0 0 24 24" xmlns="http://www.w3.org/2000/svg">
     <path d="M20.954 10.667c-.072-.322-.272-.621-.502-.745-.07-.039-.522-.088-1.004-.109-.809-.036-.898-.052-1.152-.201-.405-.237-.516-.493-.518-1.187-.002-1.327-.554-2.559-1.646-3.67-.776-.793-1.645-1.329-2.634-1.629-.236-.072-.768-.097-2.545-.118-2.787-.033-3.405.024-4.356.402-1.748.697-3.008 2.166-3.465 4.05-.087.353-.103.92-.124 4.177-.025 4.08.004 4.68.258 5.488.212.668.425 1.077.861 1.657.835 1.108 2.083 1.907 3.334 2.133.595.107 7.931.135 8.683.032 1.306-.178 2.331-.702 3.293-1.684.694-.71 1.13-1.479 1.414-2.499.117-.424.127-.63.15-3.117.016-1.878.001-2.758-.047-2.98ZM8.007 8.108c.313-.316.4-.329 2.364-.329 1.764 0 1.822.004 2.081.134.375.189.538.456.538.88 0 .384-.153.653-.493.869-.184.115-.293.123-2.02.133-1.068.007-1.917-.013-2.044-.048-.669-.184-.918-1.143-.426-1.639Zm7.706 8.037-.597.098-3.114.035c-2.736.033-3.51-.018-3.652-.08-.288-.124-.554-.472-.602-.78-.042-.292.104-.696.33-.9.285-.257.41-.266 3.911-.27 3.602-.002 3.583-.003 3.925.315.482.45.381 1.251-.2 1.582Z"></path>
</svg>