<svg id="iconMenu" width="70" height="70" fill="currentColor" viewBox="0 0 24 24" xmlns="http://www.w3.org/2000/svg">
     <path d="m18.293 4.293-1.086 1.086-1.086-1.086a1 1 0 0 0-1.414 0l-1.249 1.249A8.427 8.427 0 0 0 10.499 5C5.813 5 2 8.813 2 13.5c0 4.687 3.813 8.5 8.499 8.5s8.5-3.813 8.5-8.5c0-.902-.146-1.798-.431-2.654L19.914 9.5a1 1 0 0 0 0-1.414l-1.293-1.293 1.09-1.09C19.94 5.474 20.556 5 21 5h1V3h-1c-1.4 0-2.584 1.167-2.707 1.293ZM10.499 10c-.935 0-1.813.364-2.475 1.025A3.48 3.48 0 0 0 7 13.5H5c0-1.468.571-2.849 1.609-3.888A5.464 5.464 0 0 1 10.499 8v2Z"></path>
</svg>