<svg id="iconMenu" width="70" height="70" fill="currentColor" viewBox="0 0 24 24" xmlns="http://www.w3.org/2000/svg">
     <path d="M18.002 3H6a3.011 3.011 0 0 0-3.002 3.003v12.002A3.012 3.012 0 0 0 6 21.006h12.003a3.012 3.012 0 0 0 3.001-3.001V6.003a3.012 3.012 0 0 0-3-3.003Zm-1.64 12.647c-.152.36-.389.68-.693.927-.36.28-.769.487-1.206.614-.49.151-1.074.229-1.75.229H7.888V6.912h5.103c.943 0 1.7.213 2.267.646.57.436.854 1.082.854 1.958 0 .528-.13.983-.389 1.357-.259.373-.63.664-1.11.868v.034c.641.135 1.136.438 1.463.912.327.473.493 1.069.493 1.789 0 .405-.078.788-.225 1.147l.02.021v.003h-.002Zm-2.084-2.589c-.309-.282-.739-.419-1.297-.419H9.737v3.276h3.253c.554 0 .991-.144 1.298-.435.308-.289.464-.701.464-1.229-.005-.518-.156-.919-.464-1.193h-.014.004Zm-.45-2.119c.298-.251.443-.613.443-1.084 0-.526-.13-.902-.397-1.116-.264-.214-.646-.326-1.146-.326h-3v2.898h3c.436.001.81-.127 1.1-.372Z"></path>
</svg>