<svg id="iconMenu" width="70" height="70" fill="currentColor" viewBox="0 0 24 24" xmlns="http://www.w3.org/2000/svg">
     <path d="M21 10.975V8a2 2 0 0 0-2-2h-6V4.688a1.488 1.488 0 0 0 .06-2.17 1.5 1.5 0 0 0-2.56 1.06c0 .442.195.836.5 1.11V6H5a2 2 0 0 0-2 2v2.998l-.072.005A.999.999 0 0 0 2 12v2a1 1 0 0 0 1 1v5a2 2 0 0 0 2 2h14a2 2 0 0 0 2-2v-5a1 1 0 0 0 1-1v-1.938a1.005 1.005 0 0 0-.072-.455c-.202-.488-.635-.605-.928-.632ZM7 12c0-1.104.672-2 1.5-2s1.5.896 1.5 2-.672 2-1.5 2S7 13.104 7 12Zm8.998 6c-1.001-.003-7.997 0-7.998 0v-2s7.001-.002 8.002 0l-.004 2Zm-.498-4c-.828 0-1.5-.896-1.5-2s.672-2 1.5-2 1.5.896 1.5 2-.672 2-1.5 2Z"></path>
</svg>