<svg id="iconMenu" width="70" height="70" fill="currentColor" viewBox="0 0 24 24" xmlns="http://www.w3.org/2000/svg">
     <path d="m21.207 11.278-2.035-2.035-1.415-1.415-5.035-5.035a1 1 0 0 0-1.414 0L6.151 7.95 4.736 9.363a2.985 2.985 0 0 0-.878 2.122c0 .802.313 1.556.88 2.121l.706.707-2.122 2.122a2.925 2.925 0 0 0-.873 2.108 2.968 2.968 0 0 0 1.063 2.308 2.92 2.92 0 0 0 1.886.681c.834 0 1.654-.34 2.25-.937l2.04-2.039.706.706c1.133 1.133 3.107 1.134 4.242.001l.708-.707.57-.569.137-.138 5.156-5.157a1 1 0 0 0 0-1.414Zm-7.277 5.865-.708.706a1.021 1.021 0 0 1-1.414 0l-1.414-1.413a1 1 0 0 0-1.414 0l-2.746 2.745c-.221.223-.521.35-.836.352a.914.914 0 0 1-.595-.208.98.98 0 0 1-.354-.782.955.955 0 0 1 .287-.692l2.83-2.829a1 1 0 0 0 0-1.414L6.15 12.193a.987.987 0 0 1-.293-.706c0-.268.104-.519.293-.708l.707-.707 3.536 3.536 3.536 3.535Z"></path>
</svg>