<svg id="iconMenu" width="70" height="70" fill="currentColor" viewBox="0 0 24 24" xmlns="http://www.w3.org/2000/svg">
     <path d="M6.787 7.004h10.426c-.108-.158-.201-.331-.318-.481l2.813-2.812-1.414-1.414-2.846 2.846a6.575 6.575 0 0 0-.723-.454 5.778 5.778 0 0 0-5.45 0c-.25.132-.488.287-.722.453L5.707 2.297 4.293 3.71l2.813 2.812c-.118.15-.21.323-.319.48Zm-1.031 2H2v2h2.307c-.065.495-.107.997-.107 1.5 0 .507.042 1.013.107 1.51H2v2h2.753c.013.04.021.08.034.119.188.555.421 1.093.695 1.6.044.08.095.155.141.234l-2.33 2.33 1.414 1.414 2.11-2.111a7.478 7.478 0 0 0 2.068 1.619c.479.253.982.449 1.496.58.204.052.411.085.618.118v-5.913h2v5.914c.208-.029.414-.068.618-.118a6.81 6.81 0 0 0 1.496-.58c.465-.246.914-.55 1.333-.904.258-.218.5-.462.734-.716l2.111 2.11 1.414-1.413-2.33-2.33c.047-.08.098-.155.142-.236.273-.505.507-1.043.694-1.6.013-.038.021-.078.034-.117H22v-2h-2.308c.065-.5.107-1.004.107-1.511 0-.503-.042-1.005-.106-1.5H22v-2H5.756Z"></path>
</svg>