<svg id="iconMenu" width="70" height="70" fill="currentColor" viewBox="0 0 24 24" xmlns="http://www.w3.org/2000/svg">
     <path d="M12 2C6.486 2 2 6.486 2 12s4.486 10 10 10 10-4.486 10-10S17.514 2 12 2Zm7.736 8h-3.16A5.02 5.02 0 0 0 14 7.424V4.263A8.016 8.016 0 0 1 19.736 10ZM12 15c-1.654 0-3-1.346-3-3s1.346-3 3-3 3 1.346 3 3-1.346 3-3 3ZM10 4.263v3.161A5.02 5.02 0 0 0 7.424 10h-3.16A8.015 8.015 0 0 1 10 4.263ZM4.264 14h3.16A5.02 5.02 0 0 0 10 16.576v3.161A8.015 8.015 0 0 1 4.264 14ZM14 19.737v-3.161A5.02 5.02 0 0 0 16.576 14h3.16A8.015 8.015 0 0 1 14 19.737Z"></path>
</svg>