<svg id="iconMenu" width="70" height="70" fill="currentColor" viewBox="0 0 24 24" xmlns="http://www.w3.org/2000/svg">
     <path d="M20.66 6.998a1.51 1.51 0 0 0-.55-.57l-7.34-4.24a1.67 1.67 0 0 0-1.54 0l-7.34 4.24a1.68 1.68 0 0 0-.77 1.33v8.48c.007.268.083.53.22.76.13.236.32.432.55.57l7.34 4.24a1.67 1.67 0 0 0 1.54 0l7.34-4.24c.23-.138.42-.334.55-.57a1.57 1.57 0 0 0 .22-.76v-8.48a1.57 1.57 0 0 0-.22-.76ZM12 17.918a5.92 5.92 0 1 1 5.13-8.92l-1.13.71-.36.2-1 .61A3 3 0 0 0 9 11.998a2.88 2.88 0 0 0 .4 1.48 3 3 0 0 0 5.13 0l2.6 1.52a5.94 5.94 0 0 1-5.13 2.92Zm5.92-5.59h-.66v.67h-.65v-.66H16v-.66h.66v-.68h.65v.66h.66l-.05.67Zm2.47 0h-.66v.67h-.66v-.66h-.65v-.66h.65v-.68h.66v.66h.66v.67Z"></path>
</svg>