<svg id="iconMenu" width="70" height="70" fill="currentColor" viewBox="0 0 24 24" xmlns="http://www.w3.org/2000/svg">
     <path d="M4 20h11.879l-3.083-3.083A4.77 4.77 0 0 1 12 17c-2.71 0-5-2.29-5-5 0-.271.039-.535.083-.796L2.144 6.265C2.054 6.493 2 6.74 2 7v11c0 1.103.897 2 2 2ZM20 5h-2.586l-2.707-2.707A.996.996 0 0 0 14 2h-4a.996.996 0 0 0-.707.293L6.586 5h-.172L3.707 2.293 2.293 3.707l18 18 1.414-1.414-.626-.626A1.981 1.981 0 0 0 22 18V7c0-1.103-.897-2-2-2Zm-5.312 8.274A2.86 2.86 0 0 0 15 12c0-1.626-1.374-3-3-3-.456 0-.884.12-1.274.312l-1.46-1.46A4.88 4.88 0 0 1 12 7c2.71 0 5 2.29 5 5a4.88 4.88 0 0 1-.852 2.734l-1.46-1.46Z"></path>
</svg>