<svg id="iconMenu" width="70" height="70" fill="currentColor" viewBox="0 0 24 24" xmlns="http://www.w3.org/2000/svg">
     <path d="M3 19.723V21a1 1 0 0 0 1 1h1a1 1 0 0 0 1-1v-1h12v1a1 1 0 0 0 1 1h1a1 1 0 0 0 1-1v-1.277A1.99 1.99 0 0 0 22 18v-3c0-.831-.507-1.542-1.228-1.845l-1.368-4.104A2.995 2.995 0 0 0 16.559 7H7.441a2.995 2.995 0 0 0-2.845 2.051l-1.368 4.104A2 2 0 0 0 2 15v3c0 .738.404 1.376 1 1.723ZM5.5 18a1.5 1.5 0 1 1 .001-3.001A1.5 1.5 0 0 1 5.5 18Zm13 0a1.5 1.5 0 1 1 0-3 1.5 1.5 0 0 1 0 3ZM7.441 9h9.117a1 1 0 0 1 .949.684L18.613 13H5.387l1.105-3.316c.137-.409.519-.684.949-.684Z"></path>
     <path d="M22 7.389v-2.11l-9.684-3.227a.996.996 0 0 0-.658.009L2 5.573V7.7l10.015-3.642L22 7.389Z"></path>
</svg>