<svg id="iconMenu" width="70" height="70" fill="currentColor" viewBox="0 0 24 24" xmlns="http://www.w3.org/2000/svg">
     <path d="m20.772 13.155-1.368-4.104a2.995 2.995 0 0 0-2.845-2.05H7.441a2.995 2.995 0 0 0-2.845 2.05l-1.368 4.104A2 2 0 0 0 2 15v3c0 .738.404 1.376 1 1.723V21a1 1 0 0 0 1 1h1a1 1 0 0 0 1-1v-1h12v1a1 1 0 0 0 1 1h1a1 1 0 0 0 1-1v-1.277A1.99 1.99 0 0 0 22 18v-3c0-.83-.507-1.542-1.228-1.845ZM7.441 9h9.117a1 1 0 0 1 .949.684L18.613 13H5.387l1.105-3.316c.137-.409.519-.684.949-.684ZM5.5 18a1.5 1.5 0 1 1 .001-3 1.5 1.5 0 0 1-.001 3Zm13 0a1.5 1.5 0 1 1 0-3 1.5 1.5 0 0 1 0 3ZM9 4.378c.005-1.088-1.037-2.05-1.387-2.344a.176.176 0 0 0-.228 0C7.033 2.325 5.995 3.271 6 4.377 6 5.272 6.673 6 7.5 6S9 5.272 9 4.378Zm4.5 0c.005-1.088-1.037-2.052-1.387-2.344a.176.176 0 0 0-.228 0c-.353.291-1.391 1.238-1.386 2.344C10.5 5.272 11.173 6 12 6c.827 0 1.5-.728 1.5-1.622Zm4.5 0c.005-1.088-1.037-2.052-1.387-2.344a.176.176 0 0 0-.228 0c-.352.291-1.39 1.237-1.385 2.343C15 5.272 15.673 6 16.5 6S18 5.272 18 4.378Z"></path>
</svg>