<svg id="iconMenu" width="70" height="70" fill="currentColor" viewBox="0 0 24 24" xmlns="http://www.w3.org/2000/svg">
     <path d="M17 14a5 5 0 0 0 2.71-.81L20 13a3.16 3.16 0 0 0 .45-.37l.21-.2a4.44 4.44 0 0 0 .48-.58l.06-.08c.162-.239.3-.493.41-.76.036-.074.066-.151.09-.23.083-.204.15-.415.2-.63l.06-.25c.038-.298.051-.6.04-.9V2l-3 3h-4l-3-3v7a5 5 0 0 0 5 5Zm2-7a1 1 0 1 1 0 2 1 1 0 0 1 0-2Zm-4 0a1 1 0 1 1 0 2 1 1 0 0 1 0-2Z"></path>
     <path d="M11 22v-5H8v5H5V11.9a3.49 3.49 0 0 1-2.48-1.64A3.59 3.59 0 0 1 2 8.5 3.65 3.65 0 0 1 6 5a1.89 1.89 0 0 0 2-2 1 1 0 0 1 1-1 1 1 0 0 1 1 1 3.89 3.89 0 0 1-4 4C4.19 7 4 8.16 4 8.51 4 8.86 4.18 10 6 10h5.09A6 6 0 0 0 19 14.65V22h-3v-5h-2v5h-3Z"></path>
</svg>