<svg id="iconMenu" width="70" height="70" fill="currentColor" viewBox="0 0 24 24" xmlns="http://www.w3.org/2000/svg">
     <path d="M2.047 14.664a.992.992 0 0 0 .466.607l1.91 1.104v2.199a1 1 0 0 0 1 1H7.62l1.104 1.91a1.002 1.002 0 0 0 1.366.366L12 20.747l1.91 1.104a1.002 1.002 0 0 0 1.365-.366l1.103-1.91h2.2a1 1 0 0 0 1-1v-2.198l1.908-1.104a1 1 0 0 0 .366-1.366l-1.103-1.91 1.104-1.91a1 1 0 0 0-.366-1.365L19.58 7.618v-2.2a1 1 0 0 0-1-1h-2.2L15.277 2.51a1.004 1.004 0 0 0-1.366-.366l-1.91 1.103-1.91-1.104a.997.997 0 0 0-1.366.365l-1.104 1.91H5.422a1 1 0 0 0-1 1v2.199L2.513 8.722a1.001 1.001 0 0 0-.365 1.366l1.103 1.909-1.104 1.909c-.132.23-.168.502-.1.758Z"></path>
</svg>