<svg id="iconMenu" width="70" height="70" fill="currentColor" viewBox="0 0 24 24" xmlns="http://www.w3.org/2000/svg">
     <path d="m21.838 8.445-.003-.004v-.002a.81.81 0 0 0-.236-.228l-9.164-6.08a.834.834 0 0 0-.898 0L2.371 8.214a.786.786 0 0 0-.37.683v6.16a.79.79 0 0 0 .13.448v.001l.002.002.01.015v.002h.001l.001.001.001.001c.063.088.14.16.226.215l9.165 6.082a.79.79 0 0 0 .898 0l9.165-6.082a.795.795 0 0 0 .371-.685v-6.16a.794.794 0 0 0-.133-.452Zm-9.057-4.172 6.953 4.613-3.183 2.112-3.77-2.536V4.273Zm-1.592 0v4.19l-3.77 2.535-3.182-2.11 6.952-4.615Zm-7.595 6.098 2.395 1.59-2.395 1.611v-3.2Zm7.595 9.311-6.96-4.617 3.195-2.15 3.765 2.498v4.27Zm.795-5.653-3.128-2.078 3.128-2.105 3.131 2.105-3.13 2.078Zm.797 5.653v-4.27l3.766-2.498 3.193 2.15-6.959 4.618Zm7.597-6.11-2.396-1.61 2.396-1.59v3.2Z"></path>
</svg>