<svg id="iconMenu" width="70" height="70" fill="currentColor" viewBox="0 0 24 24" xmlns="http://www.w3.org/2000/svg">
     <path d="M12 10c3.976 0 8-1.374 8-4s-4.024-4-8-4-8 1.374-8 4 4.024 4 8 4Z"></path>
     <path d="M4 10c0 2.626 4.024 4 8 4s8-1.374 8-4V8c0 2.626-4.024 4-8 4s-8-1.374-8-4v2Z"></path>
     <path d="M4 14c0 2.626 4.024 4 8 4s8-1.374 8-4v-2c0 2.626-4.024 4-8 4s-8-1.374-8-4v2Z"></path>
     <path d="M4 18c0 2.626 4.024 4 8 4s8-1.374 8-4v-2c0 2.626-4.024 4-8 4s-8-1.374-8-4v2Z"></path>
</svg>