<svg id="iconMenu" width="70" height="70" fill="currentColor" viewBox="0 0 24 24" xmlns="http://www.w3.org/2000/svg">
     <path d="M12 5C7.031 5 2 6.546 2 9.5 2 12.454 7.031 14 12 14c4.97 0 10-1.546 10-4.5C22 6.546 16.97 5 12 5Zm-5 9.938v3c1.237.299 2.605.482 4 .541v-3a21.17 21.17 0 0 1-4-.541Zm6 .54v3a20.99 20.99 0 0 0 4-.541v-3a20.99 20.99 0 0 1-4 .541Zm6-1.181v3c1.801-.755 3-1.857 3-3.297v-3c0 1.44-1.199 2.542-3 3.297Zm-14 3v-3C3.2 13.542 2 12.439 2 11v3c0 1.439 1.2 2.542 3 3.297Z"></path>
</svg>