<svg id="iconMenu" width="70" height="70" fill="currentColor" viewBox="0 0 24 24" xmlns="http://www.w3.org/2000/svg">
     <path d="m3.553 18.896 4 2a1 1 0 0 0 .894 0L12 19.119l3.553 1.776a.99.99 0 0 0 .894 0l4-2a1 1 0 0 0 .553-.894v-5a1 1 0 0 0-.553-.895L17 10.383V6a1 1 0 0 0-.553-.895l-4-2a1 1 0 0 0-.895 0l-4 2A1.004 1.004 0 0 0 7 6v4.382l-3.447 1.724A.998.998 0 0 0 3 13v5c0 .379.214.725.553.895ZM8 12.119l2.264 1.132-2.913 1.457-2.264-1.132L8 12.119Zm4-2.5 3-1.5v2.264l-3 1.5V9.619Zm6.264 3.632-2.882 1.44-2.264-1.131L16 12.119l2.264 1.132ZM8 18.883l-.062-.031V16.65L11 15.119v2.264l-3 1.5Zm8 0v-2.264l3-1.5v2.264l-3 1.5ZM12 5.119l2.264 1.132-2.882 1.44L9.118 6.56 12 5.119Z"></path>
</svg>