<svg id="iconMenu" width="70" height="70" fill="currentColor" viewBox="0 0 24 24" xmlns="http://www.w3.org/2000/svg">
     <path d="M21.598 11.068a1.007 1.007 0 0 0-.854-.172 2.94 2.94 0 0 1-.744.107c-1.654 0-3-1.345-3.003-2.937.005-.034.016-.134.017-.168a.997.997 0 0 0-1.254-1.006c-.247.07-.503.107-.76.112-1.654 0-3-1.346-3-3 0-.217.031-.444.1-.716a1 1 0 0 0-1.068-1.236A9.956 9.956 0 0 0 2 12.004c0 5.513 4.486 10 10 10s10-4.487 10-10c0-.05-.003-.098-.007-.16a1.004 1.004 0 0 0-.395-.776ZM8.5 6.004a1.5 1.5 0 1 1 0 3 1.5 1.5 0 0 1 0-3Zm-2 8a1.501 1.501 0 0 1-1.06-2.561 1.5 1.5 0 1 1 1.06 2.56Zm3 4a1.5 1.5 0 1 1 0-3 1.5 1.5 0 0 1 0 3Zm2.5-6.5a1.5 1.5 0 1 1 3 0 1.5 1.5 0 0 1-3 0Zm3.5 6.5a1.5 1.5 0 1 1 0-3 1.5 1.5 0 0 1 0 3Z"></path>
</svg>