<svg id="iconMenu" width="70" height="70" fill="currentColor" viewBox="0 0 24 24" xmlns="http://www.w3.org/2000/svg">
     <path d="M20.354 6.477a10.02 10.02 0 0 0-7.421-4.429c-3.108-.294-6.031.771-8.123 2.963-1.277 1.337-2.111 2.826-2.6 4.647-.217.805-.247 1.104-.244 2.396.002 1.293.034 1.599.255 2.432a10.232 10.232 0 0 0 7.451 7.332c.315.078.702.16.859.182.696.097 2.381.056 3.131-.075 3.088-.538 5.832-2.531 7.24-5.258 1.644-3.181 1.426-7.222-.548-10.19Zm-.41 7.688c-.808 2.99-3.263 5.272-6.361 5.912-4.831.997-9.538-2.658-9.839-7.641C3.55 9.219 5.499 5.99 8.489 4.573c1.133-.536 2.045-.733 3.425-.738 1.327-.004 2.064.132 3.223.596 2.324.931 4.146 3.04 4.816 5.573.281 1.06.276 3.103-.009 4.161Z"></path>
     <path d="M8.042 14.956c-.915-.324-1.616-1.275-1.74-2.36-.183-1.607.422-2.856 1.654-3.415.669-.303 1.882-.296 2.603.016.438.19 1.26.933 1.26 1.139 0 .033-.283.201-.63.372l-.632.312-.337-.337c-.187-.188-.475-.363-.65-.396-.432-.082-.951.111-1.186.44-.39.546-.415 1.972-.048 2.533.19.291.512.494.813.518.635.05.796-.006 1.172-.401l.379-.398.488.269c.269.148.527.305.575.347.164.148-.592.92-1.2 1.224-.516.259-.678.293-1.357.286-.425-.006-.95-.074-1.164-.149Zm5.816 0c-.901-.32-1.591-1.241-1.74-2.325-.214-1.569.42-2.888 1.655-3.45.717-.324 1.934-.3 2.66.056.45.221 1.202.911 1.202 1.104 0 .034-.295.203-.654.377l-.654.317-.341-.37c-.304-.332-.385-.369-.802-.369-.576 0-.945.225-1.145.698-.18.423-.201 1.461-.043 1.934.324.961 1.505 1.188 2.175.419l.304-.346.58.294c.32.161.582.319.582.352 0 .219-.75.918-1.256 1.17-.517.259-.68.293-1.358.287-.425-.005-.95-.073-1.165-.148Z"></path>
</svg>