<svg id="iconMenu" width="70" height="70" fill="currentColor" viewBox="0 0 24 24" xmlns="http://www.w3.org/2000/svg">
     <path d="m3.67 16.263.54.53-.62.61c.251.39.532.762.84 1.11l14.08-14.09a10.92 10.92 0 0 0-1.1-.83l-.62.61-.53-.53.48-.48A10 10 0 0 0 3.2 16.743l.47-.48Zm11.19-11.19.53.53-1.39 1.4-.53-.53 1.39-1.4Zm-2.79 2.8.52.53-1.39 1.4-.53-.53 1.4-1.4Zm-2.8 2.8.53.53-1.4 1.39-.53-.53 1.4-1.39Zm-2.8 2.79.53.54-1.4 1.4-.53-.53 1.4-1.41Z"></path>
     <path d="m6.59 20.412.62-.61.53.53-.48.48A10 10 0 0 0 20.8 7.262l-.47.48-.54-.53.62-.61a8.992 8.992 0 0 0-.84-1.11L5.49 19.582c.35.3.716.577 1.1.83Zm11.81-11.8.53.53-1.4 1.4-.53-.54 1.4-1.39Zm-2.8 2.8.53.53-1.4 1.39-.53-.53 1.4-1.39Zm-2.8 2.79.53.53-1.39 1.4-.54-.53 1.4-1.4Zm-2.8 2.8.53.53-1.4 1.4-.53-.53 1.4-1.4Z"></path>
</svg>