<svg id="iconMenu" width="70" height="70" fill="currentColor" viewBox="0 0 24 24" xmlns="http://www.w3.org/2000/svg">
     <path d="M13.55 11.484a2.326 2.326 0 0 0-2.327 2.332c0 1.314 1.013 2.313 2.44 2.313l-.011.002c1.192 0 2.193-.983 2.193-2.28 0-1.349-1.001-2.367-2.294-2.367Z"></path>
     <path d="M3 3v18h18V3H3Zm15.52 15.605h-2.682v-1.058c-.825.81-1.667 1.103-2.786 1.103-1.142 0-2.124-.371-2.947-1.114-1.086-.956-1.648-2.227-1.648-3.701 0-1.351.524-2.561 1.507-3.506.878-.859 1.946-1.298 3.139-1.298 1.14 0 2.018.385 2.647 1.192V6.118l2.77-.574v-.002l.002.003h-.002v13.06Z"></path>
</svg>