<svg id="iconMenu" width="70" height="70" fill="currentColor" viewBox="0 0 24 24" xmlns="http://www.w3.org/2000/svg">
     <path d="M12.005 21.992v-3.877c4.104 0 7.288-4.068 5.714-8.388a5.81 5.81 0 0 0-3.457-3.446c-4.32-1.563-8.39 1.61-8.39 5.714H2.009c0-6.54 6.325-11.642 13.184-9.499 2.99.94 5.383 3.321 6.313 6.313 2.14 6.858-2.96 13.183-9.5 13.183Z"></path>
     <path d="M12.017 18.14H8.152v-3.867h3.865v3.866Zm-3.865 2.958h-2.96V18.14h2.96v2.96Zm-2.96-2.959h-2.48v-2.483h2.482v2.483Z"></path>
</svg>