<svg id="iconMenu" width="70" height="70" fill="currentColor" viewBox="0 0 24 24" xmlns="http://www.w3.org/2000/svg">
     <path d="M14.82 4.258c-.198.356-.375.723-.53 1.1a14.66 14.66 0 0 0-4.58 0 10.14 10.14 0 0 0-.53-1.1 16 16 0 0 0-4.13 1.3 17.33 17.33 0 0 0-3 11.59 16.598 16.598 0 0 0 5.07 2.59c.416-.55.788-1.131 1.11-1.74a9.646 9.646 0 0 1-1.71-.83 3.39 3.39 0 0 0 .42-.33 11.66 11.66 0 0 0 10.12 0c.14.12.28.23.42.33-.544.33-1.116.61-1.71.84.31.622.671 1.218 1.08 1.78a16.44 16.44 0 0 0 5.06-2.59 17.22 17.22 0 0 0-3-11.59 16.09 16.09 0 0 0-4.09-1.35Zm-6.14 10.55a1.94 1.94 0 0 1-1.8-2 1.93 1.93 0 0 1 1.8-2 1.93 1.93 0 0 1 1.8 2 1.93 1.93 0 0 1-1.8 2Zm6.64 0a1.94 1.94 0 0 1-1.8-2 1.93 1.93 0 0 1 1.8-2 1.92 1.92 0 0 1 1.8 2 1.92 1.92 0 0 1-1.8 2Z"></path>
</svg>