<svg id="iconMenu" width="70" height="70" fill="currentColor" viewBox="0 0 24 24" xmlns="http://www.w3.org/2000/svg">
     <path d="M12 2C6.486 2 2 6.486 2 12s4.486 10 10 10 10-4.486 10-10S17.514 2 12 2ZM8 12.414l-1.293 1.293-1.414-1.414L6.586 11 5.293 9.707l1.414-1.414L8 9.586l1.293-1.293 1.414 1.414L9.414 11l1.293 1.293-1.414 1.414L8 12.414ZM14 18h-4v-2h4v2Zm4.707-5.707-1.414 1.414L16 12.414l-1.293 1.293-1.414-1.414L14.586 11l-1.293-1.293 1.414-1.414L16 9.586l1.293-1.293 1.414 1.414L17.414 11l1.293 1.293Z"></path>
</svg>