<svg id="iconMenu" width="70" height="70" fill="currentColor" viewBox="0 0 24 24" xmlns="http://www.w3.org/2000/svg">
     <path d="M20.17 9.824a4.759 4.759 0 0 0-.84.07 3.121 3.121 0 0 0-1.43-2.14l-.28-.16-.19.27a3.7 3.7 0 0 0-.51 1.19 2.839 2.839 0 0 0 .33 2.22 4.11 4.11 0 0 1-1.45.35H2.63a.63.63 0 0 0-.63.62 9.6 9.6 0 0 0 .58 3.39 5 5 0 0 0 2 2.6 8.86 8.86 0 0 0 4.42.95c.81.014 1.62-.047 2.42-.18 1.12-.2 2.199-.59 3.19-1.15a8.903 8.903 0 0 0 2.17-1.85 11.94 11.94 0 0 0 2.13-3.67h.19a3.079 3.079 0 0 0 2.23-.84c.26-.242.46-.54.59-.87l.08-.22-.2-.16a2.69 2.69 0 0 0-1.63-.42Z"></path>
     <path d="M5.61 9.351H3.85a.16.16 0 0 0-.16.15v1.58a.16.16 0 0 0 .16.15h1.76a.16.16 0 0 0 .16-.15v-1.58a.16.16 0 0 0-.16-.15Zm2.44 0H6.28a.16.16 0 0 0-.16.15v1.58a.16.16 0 0 0 .16.15h1.77a.15.15 0 0 0 .15-.15v-1.58a.15.15 0 0 0-.15-.15Zm2.47 0H8.75a.15.15 0 0 0-.15.15v1.58a.15.15 0 0 0 .15.15h1.77a.15.15 0 0 0 .15-.15v-1.58a.15.15 0 0 0-.15-.15Zm.67 0a.15.15 0 0 0-.19.15v1.58a.15.15 0 0 0 .15.15H13a.15.15 0 0 0 .15-.15v-1.58a.15.15 0 0 0-.15-.15h-1.81Zm-4.91-2.26H8a.16.16 0 0 1 .16.16v1.56a.16.16 0 0 1-.16.19H6.28a.15.15 0 0 1-.15-.15v-1.61a.15.15 0 0 1 .15-.15Zm2.47 0h1.77a.15.15 0 0 1 .15.15v1.57a.16.16 0 0 1-.16.16H8.75a.15.15 0 0 1-.15-.15v-1.58a.15.15 0 0 1 .15-.15Zm2.44 0H13a.15.15 0 0 1 .15.15v1.57a.15.15 0 0 1-.15.19h-1.81a.16.16 0 0 1-.19-.19v-1.57a.15.15 0 0 1 .19-.15Z"></path>
     <path d="M12.96 4.82h-1.77a.15.15 0 0 0-.15.15v1.58c0 .083.067.15.15.15h1.77a.15.15 0 0 0 .15-.15V4.97a.15.15 0 0 0-.15-.15Z"></path>
     <path d="M13.65 9.352a.15.15 0 0 0-.15.15v1.58a.15.15 0 0 0 .15.15h1.77a.149.149 0 0 0 .139-.093.15.15 0 0 0 .011-.057v-1.58a.15.15 0 0 0-.15-.15h-1.77Z"></path>
</svg>