<svg id="iconMenu" width="70" height="70" fill="currentColor" viewBox="0 0 24 24" xmlns="http://www.w3.org/2000/svg">
     <path d="M11.473 14.417a3.162 3.162 0 1 0 0 6.324 3.162 3.162 0 0 0 0-6.324Zm3.936-.606a5.433 5.433 0 0 1 1.513 3.769 5.44 5.44 0 0 1-2.335 4.47c2.61-.803 4.771-2.767 5.738-5.142 1.338-3.288.09-5.761-2-8.005.067.288.104.592.104.898a4.175 4.175 0 0 1-3.02 4.01Zm-3.577-4.003a2.42 2.42 0 0 0 2.42 2.419 2.427 2.427 0 0 0 2.423-2.42 2.418 2.418 0 0 0-4.129-1.71 2.425 2.425 0 0 0-.713 1.71Z"></path>
     <path d="M7.303 21.09a5.435 5.435 0 0 1-1.276-3.51 5.441 5.441 0 0 1 4.8-5.408 4.161 4.161 0 0 1 3.99-6.492c-1.361-1.176-2.724-2.37-3.8-3.672.548 5.714-5.2 3.638-7.331 8.904-1.422 3.527-.138 7.892 3.617 10.178Z"></path>
</svg>