<svg id="iconMenu" width="70" height="70" fill="currentColor" viewBox="0 0 24 24" xmlns="http://www.w3.org/2000/svg">
     <path d="M4 22h16a1 1 0 0 0 1-1V5c0-1.654-1.346-3-3-3H6C4.346 2 3 3.346 3 5v16a1 1 0 0 0 1 1ZM18 3.924a1 1 0 1 1 0 2 1 1 0 0 1 0-2Zm-3 0a1 1 0 1 1 0 2 1 1 0 0 1 0-2Zm-3 3.117c3.309 0 6 2.691 6 6s-2.691 6-6 6-6-2.691-6-6 2.691-6 6-6Z"></path>
     <path d="M9.32 12.265c-.415.384-1.04.964-1.04 2.067 0 1.104.625 1.684 1.04 2.068.352.325.4.398.4.6h2c0-1.104-.626-1.684-1.04-2.068-.353-.325-.4-.398-.4-.6 0-.202.047-.275.4-.6.413-.384 1.04-.964 1.04-2.068 0-1.103-.626-1.683-1.04-2.066-.352-.325-.4-.397-.4-.598h-2c0 1.104.627 1.683 1.042 2.066.351.324.4.396.4.597-.002.203-.05.276-.402.602Zm4 0c-.414.384-1.04.964-1.04 2.067 0 1.103.626 1.684 1.04 2.067.351.325.4.398.4.601h2c0-1.104-.627-1.684-1.04-2.067-.352-.325-.4-.398-.4-.601 0-.203.05-.275.4-.601.413-.384 1.04-.964 1.04-2.068 0-1.103-.627-1.682-1.04-2.065-.35-.324-.4-.397-.4-.598h-2c0 1.103.626 1.683 1.041 2.066.35.324.398.397.398.598.001.202-.048.275-.399.601Z"></path>
</svg>