<svg id="iconMenu" width="70" height="70" fill="currentColor" viewBox="0 0 24 24" xmlns="http://www.w3.org/2000/svg">
     <path d="M7.02 12.115V8.008h1.002v2.525c.493-.586 1.17-.756 1.838-.756 1.118 0 2.36.754 2.36 2.383 0 .195-.013.38-.05.559.2-.797 1.063-1.09 2.418-1.123.426-.016.914-.016 1.302-.016v-.111c0-.738-.464-1.04-1.276-1.04-.602 0-1.04.25-1.09.677H12.46c.113-1.076 1.253-1.352 2.242-1.352.889 0 1.666.225 2.017.852l-.365-.702h1.177l1.716 3.443 1.716-3.445H22L18.895 16H17.77l.894-1.703-1.945-3.656c.108.213.167.465.167.777v2.055c0 .289.009.574.034.838h-.931a5.48 5.48 0 0 1-.038-.64c-.503.614-1.103.804-1.937.804-1.236 0-1.897-.652-1.897-1.416 0-.125.013-.236.03-.338-.25 1.04-1.134 1.74-2.31 1.74-.726 0-1.413-.262-1.836-.775 0 .2-.013.412-.033.61h-.986c.018-.323.034-.712.034-1.036v-.877H2.985c.054.914.683 1.45 1.547 1.45.599 0 1.13-.25 1.309-.774h1.035c-.2 1.078-1.344 1.439-2.33 1.439-1.788.018-2.581-.973-2.581-2.301 0-1.463.819-2.428 2.602-2.428 1.409 0 2.445.738 2.454 2.342v.004Zm7.628.153c-.915.027-1.48.193-1.48.793 0 .389.302.809 1.09.809 1.053 0 1.616-.574 1.616-1.514v-.11c-.376 0-.826.007-1.24.02h.012l.002.002Zm-5.06 1.564c.928 0 1.567-.672 1.567-1.686 0-1.014-.642-1.686-1.58-1.686-.928 0-1.578.672-1.578 1.686 0 1.014.639 1.686 1.565 1.686h.027Zm-3.63-2.098c-.037-.94-.714-1.291-1.44-1.291-.788 0-1.414.395-1.516 1.29h2.956Z"></path>
</svg>