<svg id="iconMenu" width="70" height="70" fill="currentColor" viewBox="0 0 24 24" xmlns="http://www.w3.org/2000/svg">
     <path d="M20.35 13.686H8.873c0 .433.063.825.195 1.178a3.334 3.334 0 0 0 1.381 1.634c.31.196.646.36 1.005.484.356.13.73.226 1.107.288.821.13 1.658.123 2.477-.02a9.786 9.786 0 0 0 2.421-.784c.393-.18.79-.376 1.201-.594v3.805c-.866.423-1.774.75-2.71.978-.458.112-.92.196-1.397.246-.486.054-.975.08-1.464.08a8.186 8.186 0 0 1-1.95-.233 7.673 7.673 0 0 1-1.762-.668 7.285 7.285 0 0 1-1.51-1.062 6.67 6.67 0 0 1-1.94-3.103 6.977 6.977 0 0 1-.268-1.953c0-.737.101-1.439.303-2.11A6.718 6.718 0 0 1 8.227 8.51a7.38 7.38 0 0 1 1.847-1.066 3.891 3.891 0 0 0-.869 1.33 5.682 5.682 0 0 0-.4 1.537h6.39c0-.646-.063-1.207-.196-1.689-.13-.484-.342-.885-.637-1.2a2.64 2.64 0 0 0-1.132-.72c-.462-.16-1.02-.24-1.675-.24-.77 0-1.543.11-2.314.343a9.804 9.804 0 0 0-2.2.955c-.695.412-1.335.897-1.919 1.452a9.168 9.168 0 0 0-1.474 1.82c.084-.743.247-1.475.485-2.18.229-.68.535-1.33.912-1.939a8.621 8.621 0 0 1 1.303-1.609 7.776 7.776 0 0 1 1.655-1.235 8.45 8.45 0 0 1 1.955-.792 10.04 10.04 0 0 1 2.233-.254c.46 0 .917.041 1.375.124.457.084.903.196 1.34.342a8.01 8.01 0 0 1 2.314 1.24 7.948 7.948 0 0 1 1.711 1.832 8.219 8.219 0 0 1 1.055 2.292c.242.833.365 1.701.365 2.602v2.23h-.002v.001Z"></path>
</svg>