<svg id="iconMenu" width="70" height="70" fill="currentColor" viewBox="0 0 24 24" xmlns="http://www.w3.org/2000/svg">
     <path d="M12 2C6.486 2 2 6.486 2 12s4.486 10 10 10 10-4.486 10-10S17.514 2 12 2Zm0 18c-4.411 0-8-3.589-8-8 0-1.168.258-2.275.709-3.276.154.09.308.182.456.276.396.25.791.5 1.286.688.494.187 1.088.312 1.879.312.792 0 1.386-.125 1.881-.313.495-.188.891-.437 1.287-.687.396-.25.792-.5 1.287-.688.494-.187 1.088-.312 1.88-.312.792 0 1.386.125 1.88.313.495.187.891.437 1.287.687.396.25.792.5 1.287.688.178.067.374.122.581.171.191.682.3 1.398.3 2.141 0 4.411-3.589 8-8 8Z"></path>
     <path d="M8.5 14a1.5 1.5 0 1 0 0-3 1.5 1.5 0 0 0 0 3Z"></path>
     <path d="M15.5 14a1.5 1.5 0 1 0 0-3 1.5 1.5 0 0 0 0 3Z"></path>
</svg>