<svg id="iconMenu" width="70" height="70" fill="currentColor" viewBox="0 0 24 24" xmlns="http://www.w3.org/2000/svg">
     <path d="M14 2H6a2 2 0 0 0-2 2v16a2 2 0 0 0 2 2h12a2 2 0 0 0 2-2V8l-6-6Zm-2.745 14.186c0 1.345-.644 1.814-1.681 1.814-.245 0-.567-.042-.777-.112l.119-.861c.147.049.336.084.546.084.448 0 .729-.203.729-.938v-2.97h1.064v2.983Zm2.043 1.807c-.539 0-1.071-.141-1.337-.287l.217-.883c.287.147.729.294 1.184.294.491 0 .749-.203.749-.511 0-.295-.224-.463-.791-.666-.784-.272-1.295-.707-1.295-1.394 0-.806.672-1.422 1.786-1.422.533 0 .925.112 1.205.238l-.238.861a2.243 2.243 0 0 0-.987-.224c-.462 0-.687.21-.687.455 0 .301.267.435.875.665.834.309 1.226.742 1.226 1.408-.002.793-.61 1.466-1.907 1.466ZM14 9h-1V4l5 5h-4Z"></path>
</svg>