<svg id="iconMenu" width="70" height="70" fill="currentColor" viewBox="0 0 24 24" xmlns="http://www.w3.org/2000/svg">
     <path d="M14 2H6a2 2 0 0 0-2 2v16a2 2 0 0 0 2 2h12a2 2 0 0 0 2-2V8l-6-6Zm-2.667 15.772c-.435.144-.89.221-1.349.228-.737 0-1.271-.186-1.644-.546-.371-.348-.575-.875-.569-1.469.006-1.344.983-2.111 2.309-2.111.521 0 .924.103 1.121.198l-.191.731c-.222-.096-.498-.174-.941-.174-.762 0-1.338.432-1.338 1.308 0 .833.522 1.325 1.271 1.325.21 0 .378-.024.45-.061v-.846h-.624v-.713h1.505v2.13Zm1.634.186h-.918v-4.042h.918v4.042Zm3.262-3.292h-1.553v.923h1.451v.744h-1.451v1.625h-.918v-4.042h2.471v.75ZM14 9h-1V4l5 5h-4Z"></path>
</svg>