<svg id="iconMenu" width="70" height="70" fill="currentColor" viewBox="0 0 24 24" xmlns="http://www.w3.org/2000/svg">
     <path d="M14.481 14.016c-.238 0-.393.02-.483.042v3.089c.091.02.237.02.371.02.966.008 1.597-.524 1.597-1.652.007-.981-.568-1.5-1.485-1.5Z"></path>
     <path d="M14 2H6a2 2 0 0 0-2 2v16a2 2 0 0 0 2 2h12a2 2 0 0 0 2-2V8l-6-6Zm-2.934 15.951-.07-1.807a53.176 53.176 0 0 1-.042-1.94h-.021a26.064 26.064 0 0 1-.525 1.828l-.574 1.842H9l-.504-1.828a21.99 21.99 0 0 1-.428-1.842h-.013c-.028.638-.049 1.366-.084 1.954l-.084 1.793h-.988L7.2 13.23h1.422l.462 1.576c.147.546.295 1.135.399 1.688h.021a39.43 39.43 0 0 1 .448-1.694l.504-1.569h1.394l.26 4.721h-1.044v-.001Zm5.25-.56c-.498.413-1.253.609-2.178.609-.405.003-.81-.02-1.212-.07v-4.636c.478-.07.96-.103 1.443-.099.896 0 1.478.161 1.933.505.49.364.799.945.799 1.778 0 .904-.33 1.528-.785 1.913ZM14 9h-1V4l5 5h-4Z"></path>
</svg>