<svg id="iconMenu" width="70" height="70" fill="currentColor" viewBox="0 0 24 24" xmlns="http://www.w3.org/2000/svg">
     <path d="M21.634 11.134a2.143 2.143 0 0 0-.06-.286l-.187.236a6.35 6.35 0 0 0-.228-1.274 8.657 8.657 0 0 0-.591-1.51 5.332 5.332 0 0 0-.54-.92c-.109-.17-.203-.297-.221-.323-.362-.589-.767-.947-1.249-1.62a4.942 4.942 0 0 1-.615-1.68 6.097 6.097 0 0 0-.303 1.097c-.483-.489-.913-.846-1.168-1.08-1.267-1.183-1.113-1.79-1.113-1.79s-2.364 2.635-1.342 5.377a5.278 5.278 0 0 0 1.764 2.347c.989.813 2.052 1.452 2.609 3.101a5.2 5.2 0 0 0-1.967-2.087c.253.602.38 1.232.371 1.884a4.468 4.468 0 0 1-4.476 4.465 4.285 4.285 0 0 1-.985-.109 4.118 4.118 0 0 1-1.107-.379 4.4 4.4 0 0 1-1.334-1.226v-.007c.024.011.05.02.075.024.187.067.372.118.567.153a3.558 3.558 0 0 0 2.245-.263c.708-.396 1.139-.685 1.484-.574.348.11.608-.22.373-.565a1.853 1.853 0 0 0-1.79-.692c-.711.101-1.36.6-2.28.117-.067-.032-.117-.066-.176-.1-.06-.043.202.05.134.008a4.14 4.14 0 0 1-.582-.347c-.009-.009.145.043.126.033a2.236 2.236 0 0 1-.608-.614 1.118 1.118 0 0 1-.04-.973.844.844 0 0 1 .38-.354l.192.1s-.059-.1-.085-.15c.01-.009.019 0 .035-.009.102.042.329.16.455.236a.6.6 0 0 1 .212.186s.043-.017.009-.108a.51.51 0 0 0-.221-.263h.018c.093.051.178.102.261.167.076-.186.119-.368.112-.563a.825.825 0 0 0-.043-.313c-.035-.067.017-.093.075-.025a.545.545 0 0 0-.051-.152s.034-.05.051-.062c.043-.04.084-.082.136-.107.293-.185.599-.347.92-.474.175-.068.347-.144.515-.228.067-.042.127-.084.186-.136.22-.185.364-.438.413-.718.01-.04.01-.074.01-.107v-.069c-.034-.144-.279-.245-1.553-.372a1.104 1.104 0 0 1-.911-.852v.007a2.034 2.034 0 0 0-.051.146c.016-.053.033-.094.051-.146v-.007a3.257 3.257 0 0 1 1.249-1.553c.031-.025-.126.007-.093-.017a3.13 3.13 0 0 1 .329-.145c.059-.018-.245-.134-.515-.11a1.545 1.545 0 0 0-.473.11c.067-.049.252-.118.21-.118-.343.06-.672.184-.97.363 0-.033.01-.06.018-.083-.237.1-.444.26-.6.464v-.112a2.79 2.79 0 0 0-.295.28h-.008a3.92 3.92 0 0 0-2.205-.184l-.008-.009h.008a1.684 1.684 0 0 1-.387-.439l-.01.007-.015-.016c-.053-.068-.093-.152-.147-.246-.04-.06-.074-.136-.116-.21 0 0 0-.008-.008-.008-.01 0-.026.077-.033.05a2.668 2.668 0 0 1-.179-1.054H5.28a1.12 1.12 0 0 0-.448.59c-.041.085-.067.127-.092.178v-.028l.024-.125c-.006.01-.006.017-.017.025-.06.07-.11.148-.15.23a1.117 1.117 0 0 0-.103.243v-.042c0-.034.009-.085 0-.067l-.009.023a5.968 5.968 0 0 0-.506 1.902c-.016.118-.016.228-.016.337v.018c-.193.21-.365.44-.514.683a9.703 9.703 0 0 0-1.082 2.66c.161-.355.354-.702.583-1.022a9.332 9.332 0 0 0-.659 3.454c.076-.346.169-.684.278-1.022a8.737 8.737 0 0 0 .787 4.062 9.397 9.397 0 0 0 3.738 4.23 8.036 8.036 0 0 0 2.169 1.047c.102.033.213.074.313.11-.034-.019-.059-.036-.092-.043a9.913 9.913 0 0 0 2.818.413c3.387 0 4.501-1.292 4.61-1.418.16-.15.303-.33.396-.54.068-.025.127-.05.195-.085l.041-.016a7.114 7.114 0 0 0 1.512-.93 3.475 3.475 0 0 0 1.326-1.95c.125-.287.125-.6.024-.895.05-.084.094-.16.101-.178a7.954 7.954 0 0 0 1.199-3.876v-.116a4.91 4.91 0 0 0-.072-.872Z"></path>
</svg>