<svg id="iconMenu" width="70" height="70" fill="currentColor" viewBox="0 0 24 24" xmlns="http://www.w3.org/2000/svg">
     <path d="m17.55 5.553-.404 2.114c-.049.229-.337.47-.605.47h-3.76c-.425 0-.729.295-.729.713v.463c0 .43.307.726.73.726h3.194c.298 0 .591.33.524.646l-.404 2.082c-.037.181-.237.476-.592.476h-2.609c-.477 0-.617.069-.936.454-.316.395-3.175 3.826-3.175 3.826-.026.034-.054.023-.054-.01V5.518c0-.27.234-.587.586-.587h7.756c.283 0 .55.268.477.617v.005Zm.34 8.288c.111-.436 1.32-6.63 1.722-8.592l-1.722 8.593Zm.233-10.903H8.457c-1.33 0-1.723 1.001-1.723 1.634v15.354c0 .71.381.975.596 1.062.214.087.807.16 1.163-.247 0 0 4.563-5.296 4.64-5.373.125-.119.125-.119.238-.119h2.954c1.245 0 1.438-.885 1.574-1.405.114-.428 1.325-6.621 1.721-8.594.307-1.497-.079-2.312-1.495-2.312h-.002Z"></path>
</svg>