<svg id="iconMenu" width="70" height="70" fill="currentColor" viewBox="0 0 24 24" xmlns="http://www.w3.org/2000/svg">
     <path d="M5 12H4v8a2 2 0 0 0 2 2h5V12H5Zm13 0h-5v10h5a2 2 0 0 0 2-2v-8h-2Zm.791-5c.147-.486.217-.992.209-1.5C19 3.57 17.43 2 15.5 2c-1.622 0-2.705 1.482-3.404 3.085C11.407 3.57 10.269 2 8.5 2 6.57 2 5 3.57 5 5.5c0 .596.079 1.089.209 1.5H2v4h9V9h2v2h9V7h-3.209ZM7 5.5C7 4.673 7.673 4 8.5 4c.888 0 1.714 1.525 2.198 3H8c-.374 0-1 0-1-1.5ZM15.5 4c.827 0 1.5.673 1.5 1.5C17 7 16.374 7 16 7h-2.477c.51-1.576 1.251-3 1.977-3Z"></path>
</svg>