<svg id="iconMenu" width="70" height="70" fill="currentColor" viewBox="0 0 24 24" xmlns="http://www.w3.org/2000/svg">
     <path d="m21.62 11.105-8.731-8.729a1.292 1.292 0 0 0-1.823 0L9.257 4.187l2.299 2.3a1.532 1.532 0 0 1 1.939 1.95l2.214 2.217a1.53 1.53 0 0 1 1.583 2.531c-.599.6-1.566.6-2.166 0a1.537 1.537 0 0 1-.337-1.662L12.715 9.46v5.437a1.517 1.517 0 0 1 .853 1.373 1.537 1.537 0 0 1-.945 1.417 1.535 1.535 0 0 1-2.007-2.001 1.571 1.571 0 0 1 .836-.835V9.36a1.529 1.529 0 0 1-.83-2.009l-2.26-2.27-5.987 5.981c-.5.504-.5 1.32 0 1.824l8.731 8.73a1.288 1.288 0 0 0 1.821 0l8.69-8.69a1.284 1.284 0 0 0 .003-1.822"></path>
</svg>