<svg id="iconMenu" width="70" height="70" fill="currentColor" viewBox="0 0 24 24" xmlns="http://www.w3.org/2000/svg">
     <path d="M20.892 9.887a.673.673 0 0 0-.025-.087l-2.104-6.479a.84.84 0 0 0-1.289-.412.822.822 0 0 0-.3.417l-2.006 6.175H8.834L6.826 3.325a.823.823 0 0 0-.786-.575h-.006a.837.837 0 0 0-.795.575L3.133 9.813c0 .005-.005.01-.007.016L2.06 13.11a1.195 1.195 0 0 0 .435 1.34l9.227 6.706c.167.121.393.12.558-.003l9.23-6.703a1.2 1.2 0 0 0 .434-1.34l-1.05-3.223ZM17.97 3.934 19.78 9.5h-3.62l1.81-5.566Zm-11.94 0L7.842 9.5H4.228L6.03 3.934Zm-2.982 9.752a.253.253 0 0 1-.093-.284l.793-2.437 5.817 7.456-6.517-4.735Zm1.5-3.239h3.6l2.573 7.916-6.174-7.916Zm7.451 8.794-2.856-8.798h5.718l-1.792 5.515L12 19.241Zm1.282-.877 2.467-7.588.106-.329h3.604l-5.586 7.156-.59.761Zm7.671-4.678-6.519 4.733.022-.029 5.794-7.425.792 2.436a.25.25 0 0 1-.089.285Z"></path>
</svg>