<svg id="iconMenu" width="70" height="70" fill="currentColor" viewBox="0 0 24 24" xmlns="http://www.w3.org/2000/svg">
     <path d="M3.79 10.17a.18.18 0 0 0-.11 0l-.2.27H7a.15.15 0 0 0 .1-.06l.17-.26v-.05l-3.48.1Z"></path>
     <path d="M2.32 11.063a.14.14 0 0 0-.11 0l-.2.26v.05h4.6a.09.09 0 0 0 .09-.06l.08-.23v-.06l-4.46.04Z"></path>
     <path d="M4.6 12.002a.13.13 0 0 0-.1.06l-.13.24v.06h2.15a.08.08 0 0 0 .07-.07v-.23s0-.07-.06-.07l-1.93.01Z"></path>
     <path d="M20.59 8.93a3.62 3.62 0 0 0-2.78-.5 4.09 4.09 0 0 0-2.72 1.63 4 4 0 0 0-.67 1.26h-3.14a.25.25 0 0 0-.24.16c-.14.25-.37.76-.5 1.06-.13.3 0 .29.18.29h1.88a2.794 2.794 0 0 1-.26.36 1.81 1.81 0 0 1-1.65.65 1.53 1.53 0 0 1-1.32-1.53 2.07 2.07 0 0 1 1-1.85 1.71 1.71 0 0 1 1.77-.15c.175.09.328.216.45.37.13.15.14.14.29.1l1.63-.43c.12 0 .16-.08.1-.16a3 3 0 0 0-1.13-1.38 3.35 3.35 0 0 0-2.58-.47A4.31 4.31 0 0 0 8.16 10a3.81 3.81 0 0 0-.82 2.85A3 3 0 0 0 8.57 15a3.46 3.46 0 0 0 2.62.65A4.059 4.059 0 0 0 14 14c.158-.217.295-.448.41-.69a3 3 0 0 0 1 1.55 3.68 3.68 0 0 0 2.38.86c.25 0 .51 0 .78-.09a4.51 4.51 0 0 0 2.33-1.25A3.72 3.72 0 0 0 22 11.1a3 3 0 0 0-1.41-2.17Zm-1.78 4.73a1.81 1.81 0 0 1-1.59.06 1.61 1.61 0 0 1-.9-1.84A2.12 2.12 0 0 1 18 10.19a1.589 1.589 0 0 1 2 1.29c.006.107.006.213 0 .32a2.11 2.11 0 0 1-1.19 1.86Z"></path>
</svg>