<svg id="iconMenu" width="70" height="70" fill="currentColor" viewBox="0 0 24 24" xmlns="http://www.w3.org/2000/svg">
     <path d="M19.51 9.725a7.833 7.833 0 0 0-2.358-3.804l-.035.035.005-.042A7.81 7.81 0 0 0 4.418 9.725c.03-.013.066-.013.099-.023a5.643 5.643 0 0 0-.306 9.166l.006-.006-.006.024a5.606 5.606 0 0 0 3.407 1.134h4.32l.025.024h4.34a5.644 5.644 0 0 0 3.208-10.319Zm-3.205 6.845h-4.341l-.006.006v-.03h-4.34c-.308 0-.611-.067-.892-.194h.002a2.17 2.17 0 1 1 2.87-2.872l2.518-2.518a5.634 5.634 0 0 0-3.396-2.1c.018-.009.035-.024.05-.02a4.334 4.334 0 0 1 5.93-.452h.047a4.333 4.333 0 0 1 1.558 3.407v.433a2.17 2.17 0 1 1 0 4.34Z"></path>
</svg>