<svg id="iconMenu" width="70" height="70" fill="currentColor" viewBox="0 0 24 24" xmlns="http://www.w3.org/2000/svg">
     <path d="M19.545 15.022v-2.42h2.422v-1.816h-2.422v-2.42H17.73v2.42h-2.421v1.815h2.421v2.421h1.815ZM8.052 8.3c1.133 0 1.896.484 2.33.896l1.722-1.67c-1.048-.98-2.415-1.58-4.052-1.58A6.055 6.055 0 0 0 2 11.997a6.057 6.057 0 0 0 6.052 6.053c3.493 0 5.812-2.457 5.812-5.913 0-.503-.064-.86-.153-1.24H8.049v2.256h3.332c-.158.951-1.011 2.556-3.329 2.556-2.003 0-3.637-1.665-3.637-3.704 0-2.042 1.634-3.706 3.637-3.706Z"></path>
</svg>