<svg id="iconMenu" width="70" height="70" fill="currentColor" viewBox="0 0 24 24" xmlns="http://www.w3.org/2000/svg">
     <path d="M9.5 12c2.206 0 4-1.794 4-4s-1.794-4-4-4-4 1.794-4 4 1.794 4 4 4Zm1.5 1H8c-3.309 0-6 2.691-6 6v1h15v-1c0-3.309-2.691-6-6-6Z"></path>
     <path d="M16.604 11.052a5.67 5.67 0 0 0 .75-3.44c-.178-1.784-1.174-3.361-2.802-4.44l-1.105 1.666c1.119.742 1.8 1.799 1.918 2.974a3.694 3.694 0 0 1-1.072 2.986L13.1 11.99l1.618.475c4.232 1.24 4.28 5.496 4.28 5.539h2c0-1.79-.955-5.285-4.395-6.952Z"></path>
</svg>