<svg id="iconMenu" width="70" height="70" fill="currentColor" viewBox="0 0 24 24" xmlns="http://www.w3.org/2000/svg">
     <path d="M20 6h-2V4c0-1.103-.897-2-2-2H8c-1.103 0-2 .897-2 2v2H4c-1.103 0-2 .897-2 2v12c0 1.103.897 2 2 2h16c1.103 0 2-.897 2-2V8c0-1.103-.897-2-2-2ZM8 4h8v2H8V4ZM6 19a1 1 0 1 1 0-2 1 1 0 0 1 0 2Zm0-3a1 1 0 1 1 0-2 1 1 0 0 1 0 2Zm3 3a1 1 0 1 1 0-2 1 1 0 0 1 0 2Zm0-3a1 1 0 1 1 0-2 1 1 0 0 1 0 2Zm3 3a1 1 0 1 1 0-2 1 1 0 0 1 0 2Zm0-3a1 1 0 1 1 0-2 1 1 0 0 1 0 2Zm3 3a1 1 0 1 1 0-2 1 1 0 0 1 0 2Zm0-3a1 1 0 1 1 0-2 1 1 0 0 1 0 2Zm3 3a1 1 0 1 1 0-2 1 1 0 0 1 0 2Zm0-3a1 1 0 1 1 0-2 1 1 0 0 1 0 2Zm2-4H4V8h16v4Z"></path>
     <path d="M14 9h2v2h-2V9Zm3 0h2v2h-2V9Z"></path>
</svg>