<svg id="iconMenu" width="70" height="70" fill="currentColor" viewBox="0 0 24 24" xmlns="http://www.w3.org/2000/svg">
     <path d="M8.073 12.198 4.212 8.337c-1.52 1.657-2.096 3.317-2.106 3.35L2 12.005l.105.316c.022.067 2.316 6.684 9.949 6.684.929 0 1.775-.102 2.552-.273l-2.746-2.746a3.987 3.987 0 0 1-3.787-3.787Zm3.981-7.194c-1.855 0-3.375.404-4.642.998L3.707 2.297 2.293 3.71l18 18 1.414-1.414-3.298-3.298c2.638-1.953 3.579-4.637 3.593-4.68l.105-.315-.105-.316c-.022-.067-2.315-6.684-9.948-6.684Zm1.906 7.546c.187-.677.028-1.44-.492-1.96-.52-.521-1.283-.68-1.96-.492L10 8.59a3.955 3.955 0 0 1 2.054-.586c2.206 0 4 1.794 4 4a3.94 3.94 0 0 1-.587 2.053L13.96 12.55Z"></path>
</svg>