<svg id="iconMenu" width="70" height="70" fill="currentColor" viewBox="0 0 24 24" xmlns="http://www.w3.org/2000/svg">
     <path d="m21.857 8.485-3-5A.997.997 0 0 0 18 3h-4.586l-.707-.707a1 1 0 0 0-1.414 0L10.586 3H6a.997.997 0 0 0-.857.485l-3 5A1.001 1.001 0 0 0 2.002 9H2v10a1 1 0 0 0 1 1h18a1 1 0 0 0 1-1V9h-.002c0-.178-.046-.356-.141-.515ZM20 18h-6v-4h-4v4H4v-8h2.414l.293-.293 2-2L12 4.414l4.293 4.293 1 1 .293.293H20v8Z"></path>
     <path d="M11.895 12a2.105 2.105 0 1 0 0-4.21 2.105 2.105 0 0 0 0 4.21Z"></path>
     <path d="M6 12h2v3H6v-3Zm10 0h2v3h-2v-3Z"></path>
</svg>