<svg id="iconMenu" width="70" height="70" fill="currentColor" viewBox="0 0 24 24" xmlns="http://www.w3.org/2000/svg">
     <path d="M20.154 8.517c.85-2.04.906-3.738-.113-4.757-1.133-1.132-3.852-.792-6.737.565h-.341c-2.037 0-4.02.738-5.492 2.039-1.244 1.133-2.15 2.605-2.547 4.246.283-.337 1.869-2.207 3.68-3.226.058 0 .51-.283.51-.283-.057 0-.905.85-1.074 1.02-3.965 4.075-6.285 10.248-4.473 12.059 1.188 1.189 3.34.905 5.83-.453 1.076.51 2.266.735 3.566.735 1.699 0 3.285-.453 4.643-1.358 1.416-.906 2.436-2.32 3.059-3.962h-4.416c-.566 1.075-1.87 1.811-3.227 1.811-1.926 0-3.512-1.585-3.568-3.396v-.17h11.55v-.17c0-.283.058-.623.058-.848-.001-1.361-.341-2.663-.908-3.852ZM4.81 19.84c-.906-.905-.621-2.662.453-4.755.51 1.415 1.359 2.662 2.435 3.566.34.282.735.566 1.133.793-1.814.963-3.285 1.133-4.021.396Zm11.606-8.605H9.51v-.057c.113-1.756 1.754-3.285 3.68-3.285 1.813 0 3.285 1.416 3.398 3.285v.056h-.171Zm3.454-3.171a6.947 6.947 0 0 0-1.303-1.585 8.445 8.445 0 0 0-2.718-1.7c1.813-.848 3.34-.96 4.134-.168.623.736.567 1.98-.113 3.453 0 .057 0 .057 0 0 0 .057 0 .057 0 0Z"></path>
</svg>