<svg id="iconMenu" width="70" height="70" fill="currentColor" viewBox="0 0 24 24" xmlns="http://www.w3.org/2000/svg">
     <path d="M9.37 17.508c-3.09.86 1.87 2.64 5.8 1a7.178 7.178 0 0 1-1.1-.54 11.59 11.59 0 0 1-4.16.18c-1.31-.15-.54-.64-.54-.64Z"></path>
     <path d="M14.7 15.83a16.28 16.28 0 0 1-5.36.26c-1.31-.14-.45-.77-.45-.77-3.4 1.12 1.89 2.4 6.64 1a2.249 2.249 0 0 1-.83-.49Z"></path>
     <path d="M16.52 6.102s-6.87 1.71-3.59 5.49a1.47 1.47 0 0 1-.25 2.12s2.46-1.27 1.33-2.86c-1.13-1.59-1.86-2.22 2.51-4.75Z"></path>
     <path d="M18.13 19.142s.56.46-.63.82c-2.27.69-9.43.9-11.42 0-.72-.31.62-.74 1-.83a2.54 2.54 0 0 1 .69-.08c-.8-.56-5.15 1.1-2.21 1.58 8.05 1.37 14.64-.56 12.57-1.49Z"></path>
     <path d="M15.37 14.26c.294-.186.601-.35.92-.49 0 0-1.51.27-3 .4a28.112 28.112 0 0 1-4.82.05C6.09 13.91 9.74 13 9.74 13a6.81 6.81 0 0 0-3.16.75c-2.06 1.03 5.09 1.48 8.79.51Z"></path>
     <path d="M16.28 16.698a.39.39 0 0 1-.08.09c5-1.32 3.18-4.65.78-3.81a.71.71 0 0 0-.33.25s.14-.05.43-.12c1.22-.25 2.92 1.63-.8 3.59Z"></path>
     <path d="M12 13c-.74-1.67-3.26-3.14 0-5.71C16.09 4.08 14 2 14 2c.84 3.31-3 4.31-4.34 6.37-.93 1.41.47 2.92 2.34 4.63Z"></path>
     <path d="M16.41 21.316a29.747 29.747 0 0 1-9.14.14s.46.38 2.84.53c3.61.23 9.15-.12 9.29-1.83 0 0-.26.64-2.99 1.16Z"></path>
</svg>