<svg id="iconMenu" width="70" height="70" fill="currentColor" viewBox="0 0 24 24" xmlns="http://www.w3.org/2000/svg">
     <path d="m15.539 14.059-1.874 1.875-1.777 1.777-.347.35a3.993 3.993 0 0 1-3.785 1.048A2.41 2.41 0 0 1 3 18.567c0-1.138.792-2.092 1.852-2.342a3.993 3.993 0 0 1 1.047-3.811l.135-.135 1.777 1.778-.138.135a1.48 1.48 0 0 0 0 2.092 1.463 1.463 0 0 0 2.09 0l.349-.349 1.775-1.778 1.877-1.879 1.775 1.781Zm.693 4.988a3.986 3.986 0 0 1-3.996-.988l-.135-.139 1.773-1.777.135.139a1.48 1.48 0 0 0 2.41-.479 1.476 1.476 0 0 0-.322-1.607l-.35-.349-1.773-1.777-1.877-1.878 1.777-1.776 1.875 1.879 1.774 1.777.349.349a3.962 3.962 0 0 1 1.058 3.766 2.407 2.407 0 1 1-1.857 4.25 2.392 2.392 0 0 1-.831-1.384l-.01-.006Zm-8.001-8.962 1.881-1.879 1.777-1.777.347-.346a3.972 3.972 0 0 1 3.949-1.002 2.407 2.407 0 1 1 2.699 2.716 3.98 3.98 0 0 1-1.012 3.925l-.137.139-1.777-1.777.139-.138a1.475 1.475 0 0 0-2.086-2.085l-.347.346-1.777 1.776-1.879 1.876-1.777-1.774Zm-1.99 1.984-.346-.347a3.984 3.984 0 0 1-.999-3.965 2.414 2.414 0 0 1-1.874-2.35 2.41 2.41 0 0 1 4.786-.388 3.99 3.99 0 0 1 3.734 1.061l.138.14-1.778 1.776-.137-.136a1.481 1.481 0 0 0-2.523 1.045c0 .392.155.769.431 1.047l.349.35 1.777 1.777 1.879 1.879-1.775 1.777-1.883-1.879-1.778-1.777v-.01h-.001Z"></path>
</svg>