<svg id="iconMenu" width="70" height="70" fill="currentColor" viewBox="0 0 24 24" xmlns="http://www.w3.org/2000/svg">
     <path d="M21.986 9.74a3.241 3.241 0 0 0-.008-.088A5.003 5.003 0 0 0 17 5H7a4.97 4.97 0 0 0-4.987 4.737c-.01.08-.013.161-.013.253v6.51c0 .925.373 1.828 1.022 2.476A3.524 3.524 0 0 0 5.5 20c1.8 0 2.504-1 3.5-3 .146-.292.992-2 3-2 1.996 0 2.853 1.707 3 2 1.004 2 1.7 3 3.5 3 .925 0 1.828-.373 2.476-1.022A3.524 3.524 0 0 0 22 16.5V10c0-.095-.004-.18-.014-.26ZM7 12.031a2.001 2.001 0 1 1-.09-4.001 2.001 2.001 0 0 1 .09 4Zm10-5a1 1 0 1 1 0 2 1 1 0 0 1 0-2Zm-2 4a1 1 0 1 1 0-2 1 1 0 0 1 0 2Zm2 2a1 1 0 1 1 0-2 1 1 0 0 1 0 2Zm2-2a1 1 0 1 1 0-2 1 1 0 0 1 0 2Z"></path>
</svg>