<svg id="iconMenu" width="70" height="70" fill="currentColor" viewBox="0 0 24 24" xmlns="http://www.w3.org/2000/svg">
     <path d="M3.345 6.932c-1.756 2.523-1.538 5.806-.196 8.487l.098.19c.02.04.04.082.063.121.012.024.026.047.039.07.063.116.129.23.198.343l.073.12a9.131 9.131 0 0 0 .432.65l.036.048c.063.088.129.175.196.261l.074.094.182.223.069.082c.082.097.167.194.252.29l.005.004c.004.004.007.006.01.011.083.091.17.181.256.271l.083.083.205.201.084.08c.092.087.186.172.28.256l.005.004.049.041c.083.073.169.145.255.215l.105.084c.183.148.372.289.565.424.029.021.057.042.087.062l.024.017c.076.053.154.103.23.153l.102.067c.287.184.583.354.886.51l.195.1.045.022.08.04c.102.047.205.096.308.142l.066.03c.119.051.239.101.36.148l.088.035a9.371 9.371 0 0 0 .762.266l.092.028c.128.04.256.085.39.11 8.492 1.548 10.958-5.102 10.958-5.102-2.072 2.698-5.748 3.41-9.232 2.618-.132-.03-.261-.07-.39-.109l-.097-.029a10.897 10.897 0 0 1-.755-.264l-.093-.036a9.476 9.476 0 0 1-.356-.148l-.071-.03a11.9 11.9 0 0 1-.301-.14l-.087-.043c-.078-.038-.155-.079-.232-.118-.051-.027-.104-.053-.155-.082a8.216 8.216 0 0 1-.278-.156l-.094-.052a11.439 11.439 0 0 1-.363-.223l-.098-.065a10.373 10.373 0 0 1-.26-.172l-.082-.059a10.806 10.806 0 0 1-.572-.43l-.1-.08a11.95 11.95 0 0 1-.592-.519c-.028-.026-.055-.05-.081-.078a8.013 8.013 0 0 1-.208-.203l-.081-.08a12.884 12.884 0 0 1-.254-.27l-.012-.012a11.665 11.665 0 0 1-.258-.293l-.067-.08a10.307 10.307 0 0 1-.47-.6C3.865 11.822 3.17 8.183 4.716 5.195"></path>
     <path d="M8.794 4.808c-1.27 1.827-1.2 4.273-.21 6.205.166.324.353.639.561.938.191.273.401.597.654.816.092.1.187.199.284.295l.076.074c.094.092.19.182.291.27l.011.01.003.003c.111.097.224.19.34.28l.078.06c.12.093.242.183.366.269.053.037.108.072.161.107.026.017.051.035.078.05.099.065.2.126.301.185.076.044.155.087.233.13.026.015.055.029.082.043.055.028.108.057.163.083.12.06.242.116.365.17l.074.032c.093.039.186.077.281.113l.117.044c.086.032.171.06.256.089l.117.037c.121.038.243.085.37.107 6.556 1.086 8.068-3.961 8.068-3.961-1.364 1.964-4.006 2.902-6.825 2.17a7.878 7.878 0 0 1-.743-.232l-.118-.043a7.667 7.667 0 0 1-.697-.304c-.057-.028-.113-.058-.17-.087l-.099-.051a9.415 9.415 0 0 1-.533-.313l-.08-.053a7.647 7.647 0 0 1-.602-.435c-1.234-.974-2.213-2.306-2.678-3.815-.488-1.566-.382-3.323.462-4.75"></path>
     <path d="M13.38 3.218c-.75 1.102-.824 2.47-.305 3.686.548 1.292 1.671 2.304 2.981 2.785.077.03.155.055.234.08.077.023.152.052.233.066 3.62.7 4.601-1.857 4.862-2.234-.86 1.24-2.306 1.536-4.078 1.105a5.402 5.402 0 0 1-.939-.344 5.39 5.39 0 0 1-.895-.545c-1.585-1.204-2.573-3.5-1.536-5.372"></path>
</svg>