<svg id="iconMenu" width="70" height="70" fill="currentColor" viewBox="0 0 24 24" xmlns="http://www.w3.org/2000/svg">
     <path d="M19.58 11.377c.008-.117.018-.23.018-.35 0-3.243-2.668-5.87-5.96-5.87A5.966 5.966 0 0 0 8.26 8.503a2.732 2.732 0 0 0-1.674-.568c-1.521 0-2.752 1.21-2.752 2.704 0 .283.043.554.125.808a3.957 3.957 0 0 0-1.98 3.418c0 2.173 1.773 3.938 3.975 3.972h11.898c.073 0 .15.012.226.012 2.178 0 3.944-1.739 3.944-3.893a3.885 3.885 0 0 0-2.432-3.579h-.01ZM7.354 15.844a2.33 2.33 0 0 1-.748-1.318 2.865 2.865 0 0 1-.053-.544c0-.74.27-1.347.809-1.827.537-.48 1.22-.722 2.049-.722.853 0 1.653.32 2.362.957.177.158.353.338.515.536l.912 1.071c.157.217.323.4.5.56.47.422.976.632 1.407.632.365 0 .67-.112.912-.336.21-.19.337-.45.364-.73l.008-.123a1.055 1.055 0 0 0-.055-.347 1.275 1.275 0 0 0-1.239-.838c-.453 0-.902.153-1.396.631l-.806-.95-.089-.108c.713-.69 1.415-.95 2.367-.95.838 0 1.526.237 2.038.712l.014.014c.539.474.8 1.09.8 1.842a2.6 2.6 0 0 1-.049.528c-.1.502-.36.958-.74 1.301-.397.364-.894.6-1.427.677a4.498 4.498 0 0 1-.588.038c-.864 0-1.676-.313-2.365-.938a4.87 4.87 0 0 1-.537-.576l-.915-1.065a3.576 3.576 0 0 0-.487-.563c-.463-.425-.977-.626-1.428-.626-.13 0-.26.018-.39.051a1.19 1.19 0 0 0-.522.29c-.232.215-.365.52-.365.838 0 .324.113.6.352.825l.014.013c.25.227.563.338.926.338.463 0 .913-.162 1.4-.639l.8.938.088.1c-.724.702-1.427.964-2.341.964-.838 0-1.525-.238-2.051-.713l-.046.057Z"></path>
</svg>