<svg id="iconMenu" width="70" height="70" fill="currentColor" viewBox="0 0 24 24" xmlns="http://www.w3.org/2000/svg">
     <path d="M3.433 17.325 3.08 19.8a1 1 0 0 0 1.131 1.131l2.475-.354C7.06 20.524 8 18 8 18s.472.405.665.466c.412.13.813-.274.948-.684L10 16.01s.577.292.786.335c.266.055.524-.109.707-.293a.986.986 0 0 0 .241-.39L12 14.01s.675.187.906.214c.263.03.52-.104.707-.293l1.138-1.137a5.501 5.501 0 0 0 5.581-1.338 5.507 5.507 0 0 0 0-7.778 5.507 5.507 0 0 0-7.778 0 5.5 5.5 0 0 0-1.338 5.581l-7.5 7.5a.994.994 0 0 0-.283.566ZM18.504 5.506a2.919 2.919 0 0 1 0 4.122l-4.122-4.122a2.919 2.919 0 0 1 4.122 0Z"></path>
</svg>