<svg id="iconMenu" width="70" height="70" fill="currentColor" viewBox="0 0 24 24" xmlns="http://www.w3.org/2000/svg">
     <path d="m22 3.408-.12-1.26-1.2.4a13.84 13.84 0 0 1-6.41.64 11.87 11.87 0 0 0-6.68.9 7.23 7.23 0 0 0-4.29 5.41 9 9 0 0 0 .39 4.58c.337-.761.732-1.497 1.18-2.2a9.85 9.85 0 0 1 4.07-3.43 11.16 11.16 0 0 1 5.06-1 12.08 12.08 0 0 0-4.66 1.75 9.48 9.48 0 0 0-1.86 1.53 11.385 11.385 0 0 0-1.39 1.91 16.39 16.39 0 0 0-1.57 4.54 26.42 26.42 0 0 0-.52 4.82h2a30.69 30.69 0 0 1 .59-4.32 9.25 9.25 0 0 0 4.52 1.11 11 11 0 0 0 4.28-.87C23 14.668 22 3.858 22 3.408Z"></path>
</svg>