<svg id="iconMenu" width="70" height="70" fill="currentColor" viewBox="0 0 24 24" xmlns="http://www.w3.org/2000/svg">
     <path d="M21.45 8.738a2.231 2.231 0 0 1 .19-1.74 3.51 3.51 0 0 0 .24-2.47 3.55 3.55 0 0 0-2.45-2.45 3.51 3.51 0 0 0-2.43.28 2.23 2.23 0 0 1-1.7.19 10.07 10.07 0 0 0-6.53 0 9.87 9.87 0 0 0-6.23 6.18 10.07 10.07 0 0 0 0 6.53 2.23 2.23 0 0 1-.18 1.74 3.51 3.51 0 0 0-.24 2.47 3.55 3.55 0 0 0 2.45 2.45 3.51 3.51 0 0 0 2.43-.28 2.23 2.23 0 0 1 1.7-.19c1.06.37 2.177.557 3.3.55a10.332 10.332 0 0 0 3.27-.54 9.87 9.87 0 0 0 6.19-6.19 10.07 10.07 0 0 0-.01-6.53ZM12 6.998a5 5 0 0 0-5 5H5a7 7 0 0 1 7-7v2Z"></path>
</svg>