<svg id="iconMenu" width="70" height="70" fill="currentColor" viewBox="0 0 24 24" xmlns="http://www.w3.org/2000/svg">
     <path d="M21.142 10.845c0-.64.098-1.018.098-1.707 0-1.067-.393-1.411-1.263-1.411h-.641v.755h.196c.444 0 .542.147.542.689 0 .509-.05 1.018-.05 1.608 0 .755.247 1.05.74 1.165v.049c-.493.116-.74.41-.74 1.166 0 .59.05 1.067.05 1.608 0 .558-.114.705-.542.705v.017h-.196v.788h.64c.87 0 1.264-.344 1.264-1.411 0-.706-.098-1.067-.098-1.707 0-.345.213-.706.854-.74v-.852c-.642-.016-.854-.377-.854-.722Zm-3.3 1c-.492-.195-.951-.311-.951-.64 0-.245.197-.394.558-.394.36 0 .689.148 1.05.41l.657-.87c-.41-.312-.968-.64-1.724-.64-1.115 0-1.871.64-1.871 1.544 0 .804.706 1.214 1.298 1.443.508.196 1 .36 1 .689 0 .246-.196.41-.64.41-.41 0-.821-.164-1.263-.51l-.657.953c.492.41 1.247.689 1.87.689 1.314 0 2.02-.69 2.02-1.592-.001-.9-.707-1.277-1.346-1.491ZM6.633 13.7c-.113 0-.261-.098-.261-.41V7.727H4.039c-.886 0-1.28.344-1.28 1.41 0 .707.1 1.102.1 1.708 0 .345-.213.706-.854.739v.853c.64.017.854.378.854.723 0 .606-.1.968-.1 1.674 0 1.067.395 1.41 1.265 1.41h.64v-.754h-.197c-.411 0-.542-.164-.542-.706 0-.541.049-1.001.049-1.607 0-.756-.245-1.05-.738-1.165v-.051c.493-.114.738-.41.738-1.165 0-.59-.05-1.066-.05-1.607 0-.542.115-.69.543-.69h.442v4.712c0 1 .345 1.657 1.346 1.657.313 0 .559-.05.739-.115l-.165-1.066c-.098.013-.146.013-.196.013Zm7.239-1.854c-.51-.196-.97-.312-.97-.64 0-.246.198-.395.559-.395.36 0 .689.148 1.05.41l.657-.87c-.41-.312-.968-.64-1.723-.64-1.116 0-1.872.64-1.872 1.544 0 .804.707 1.214 1.297 1.443.51.196 1.002.36 1.002.689 0 .246-.197.41-.641.41-.41 0-.82-.164-1.264-.51l-.64.953c.492.41 1.247.689 1.87.689 1.314 0 2.02-.69 2.02-1.592 0-.9-.705-1.277-1.345-1.491ZM9.03 9.696c-1.198 0-2.347 1-2.314 2.577 0 1.624 1.066 2.576 2.479 2.576.59 0 1.247-.214 1.756-.558l-.492-.87c-.36.213-.706.312-1.066.312-.657 0-1.165-.312-1.297-1.066h2.97c.018-.115.05-.345.05-.607.016-1.33-.707-2.364-2.086-2.364Zm-.935 2.068c.099-.655.492-.97.95-.97.593 0 .822.412.822.97H8.094Z"></path>
</svg>