<svg id="iconMenu" width="70" height="70" fill="currentColor" viewBox="0 0 24 24" xmlns="http://www.w3.org/2000/svg">
     <path d="M12 5.002c-1.836 0-3.356.389-4.617.97L3.707 2.298 2.293 3.71l3.315 3.315c-2.613 1.952-3.543 4.618-3.557 4.66l-.105.316.105.316c.022.068 2.316 6.686 9.95 6.686 1.834 0 3.353-.39 4.614-.971l3.678 3.678 1.414-1.414-3.317-3.317c2.614-1.952 3.545-4.618 3.56-4.66l.104-.316-.105-.316c-.022-.068-2.316-6.686-9.949-6.686Zm.043 2.002H12a5 5 0 0 1 5 5 4.895 4.895 0 0 1-.852 2.734l-.72-.721A3.92 3.92 0 0 0 16 12.003c0-.474-.099-.925-.255-1.35a.985.985 0 0 1-1.452.058.991.991 0 0 1 .39-1.643A3.965 3.965 0 0 0 12 8.003c-.735 0-1.419.218-2.015.572l-.72-.72c.788-.525 1.717-.851 2.735-.851h-.043L12 7.002l.043.002Zm-7.969 4.999a8.39 8.39 0 0 1 .521-.99l5.867 5.868c-4.213-.647-5.939-3.842-6.388-4.878Zm9.247 4.908-7.48-7.48a8.146 8.146 0 0 1 1.188-.984l8.055 8.055a8.842 8.842 0 0 1-1.763.409Z"></path>
</svg>