<svg id="iconMenu" width="70" height="70" fill="currentColor" viewBox="0 0 24 24" xmlns="http://www.w3.org/2000/svg">
     <path d="m11 4-.5-1-.5 1-1 .125.834.708L9.5 6l1-.666 1 .666-.334-1.167.834-.708L11 4Zm8.334 10.666L18.5 13l-.834 1.666-1.666.209 1.39 1.181L16.833 18l1.666-1.111L20.166 18l-.555-1.944 1.39-1.181-1.667-.209ZM6.667 6.333 6 5l-.667 1.333L4 6.5l1.111.944L4.667 9 6 8.111 7.333 9 6.89 7.444 8 6.5l-1.333-.167ZM3.414 17c0 .534.208 1.036.586 1.414L5.586 20c.378.378.88.586 1.414.586.534 0 1.036-.208 1.414-.586L20 8.414c.378-.378.586-.88.586-1.414 0-.534-.208-1.036-.586-1.414L18.414 4c-.756-.756-2.072-.756-2.828 0L4 15.586c-.378.378-.586.88-.586 1.414ZM17 5.414 18.586 7 15 10.586 13.414 9 17 5.414Z"></path>
</svg>