<svg id="iconMenu" width="70" height="70" fill="currentColor" viewBox="0 0 24 24" xmlns="http://www.w3.org/2000/svg">
     <path d="M16.28 11.507c.131-.016.256-.018.372 0 .066-.154.078-.42.02-.708-.09-.43-.212-.688-.462-.646-.25.04-.26.35-.17.779.05.24.14.446.24.575Zm-2.15.339c.18.078.29.129.331.086.03-.028.021-.084-.022-.154a1.05 1.05 0 0 0-.464-.371 1.26 1.26 0 0 0-1.228.146c-.119.088-.232.209-.218.283.007.023.023.042.065.05.1.01.444-.164.843-.188.282-.02.513.068.693.148Zm-.36.205c-.233.037-.362.113-.444.187-.07.062-.113.128-.113.177l.018.042.037.014c.053 0 .171-.046.171-.046.324-.115.54-.102.752-.078.117.014.172.02.198-.02.007-.012.018-.035-.007-.074-.056-.091-.29-.24-.613-.202Zm1.783.756c.16.078.333.046.39-.07.06-.114-.024-.271-.183-.348-.158-.08-.333-.05-.39.066-.057.115.026.274.183.352Zm1.018-.891c-.128-.002-.234.138-.238.316-.003.177.1.32.23.322.128.002.234-.14.237-.315.003-.176-.099-.32-.229-.323Zm-8.644 3.183c-.032-.04-.085-.03-.136-.015-.036.007-.076.017-.119.016a.265.265 0 0 1-.22-.111c-.06-.09-.057-.225.01-.378l.03-.07c.103-.23.274-.618.081-.987a.88.88 0 0 0-.67-.488.86.86 0 0 0-.74.267c-.284.313-.327.74-.273.893.021.056.053.07.075.074.048.007.12-.03.164-.15l.014-.038c.02-.064.057-.184.118-.278a.518.518 0 0 1 .717-.15c.2.13.275.375.19.608-.044.12-.115.35-.1.54.032.383.27.537.48.556.206.007.35-.108.387-.193.021-.053.003-.084-.008-.096Z"></path>
     <path d="M19.82 14.393c-.008-.029-.06-.216-.13-.44l-.143-.384c.28-.423.286-.799.249-1.013a1.284 1.284 0 0 0-.372-.724c-.222-.232-.677-.472-1.315-.65l-.335-.094c-.002-.015-.018-.79-.031-1.123-.011-.24-.031-.616-.148-.986-.14-.502-.381-.938-.684-1.22.835-.865 1.355-1.818 1.354-2.635-.003-1.57-1.933-2.049-4.312-1.063l-.503.214c-.002-.002-.911-.894-.924-.905-2.714-2.366-11.192 7.06-8.48 9.35l.593.5c-.16.43-.217.89-.166 1.345.065.631.389 1.234.915 1.701.5.442 1.159.724 1.796.723 1.055 2.432 3.465 3.922 6.29 4.007 3.033.09 5.577-1.333 6.645-3.889.069-.179.365-.987.365-1.7-.001-.718-.406-1.015-.663-1.014ZM7.417 16.305a1.376 1.376 0 0 1-.28.021c-.916-.026-1.905-.85-2.003-1.827-.11-1.08.443-1.912 1.42-2.108.117-.025.259-.038.41-.03.549.031 1.355.451 1.54 1.644.164 1.055-.096 2.132-1.087 2.3Zm-1.021-4.562a2.325 2.325 0 0 0-1.473.94c-.197-.164-.562-.48-.626-.604-.524-.994.57-2.928 1.337-4.02 1.889-2.698 4.85-4.739 6.223-4.37.222.063.96.92.96.92s-1.37.76-2.642 1.82c-1.711 1.32-3.006 3.235-3.78 5.314Zm9.61 4.158a.05.05 0 0 0 .03-.054.051.051 0 0 0-.018-.034.051.051 0 0 0-.038-.01s-1.433.211-2.788-.284c.147-.479.54-.308 1.134-.259a8.286 8.286 0 0 0 2.735-.296c.613-.177 1.419-.524 2.045-1.018a4.1 4.1 0 0 1 .286.975s.163-.029.3.055c.13.08.224.245.16.671-.133.798-.471 1.445-1.042 2.041a4.258 4.258 0 0 1-1.25.934 5.33 5.33 0 0 1-.813.346c-2.15.701-4.35-.07-5.058-1.727a2.766 2.766 0 0 1-.142-.392c-.302-1.092-.046-2.4.755-3.226.05-.053.102-.114.102-.192 0-.064-.042-.133-.077-.183-.28-.406-1.253-1.099-1.057-2.44.139-.964.982-1.642 1.768-1.602l.2.012c.34.02.637.063.917.076.47.02.89-.049 1.39-.465.17-.142.305-.263.533-.3.024-.007.084-.026.203-.022a.68.68 0 0 1 .343.11c.4.265.457.911.479 1.384.012.27.045.922.055 1.108.026.428.139.49.365.563.129.044.248.074.423.125.529.147.845.3 1.043.493.102.1.169.23.188.372.065.457-.353 1.021-1.455 1.533-1.206.56-2.67.701-3.68.588l-.353-.04c-.81-.108-1.27.936-.784 1.651.313.461 1.164.761 2.017.761 1.953.002 3.455-.832 4.015-1.554l.044-.063c.026-.042.005-.063-.03-.04-.455.311-2.483 1.551-4.651 1.18 0 0-.264-.045-.504-.139-.19-.072-.591-.258-.64-.668 1.748.543 2.85.031 2.85.03ZM9.886 8.05c.673-.776 1.5-1.452 2.242-1.83.025-.014.052.015.038.038-.091.16-.161.33-.208.508-.006.027.023.05.046.032.462-.314 1.264-.65 1.968-.693a.03.03 0 0 1 .033.019.03.03 0 0 1-.012.036 1.66 1.66 0 0 0-.31.311c-.014.02-.001.05.024.05.494.002 1.19.174 1.644.43.03.017.008.076-.025.068-.688-.157-1.811-.277-2.98.008-1.043.254-1.84.646-2.418 1.07-.03.02-.065-.02-.041-.047Z"></path>
</svg>