<svg id="iconMenu" width="70" height="70" fill="currentColor" viewBox="0 0 24 24" xmlns="http://www.w3.org/2000/svg">
     <path d="m11.454 17.025.15.122a6.172 6.172 0 0 1-3.42 1.03 6.169 6.169 0 0 1-6.174-6.173 6.175 6.175 0 0 1 9.592-5.144c-.05.043-.1.082-.138.126a6.632 6.632 0 0 0-2.298 5.018 6.65 6.65 0 0 0 2.288 5.02Zm4.36-11.195A6.14 6.14 0 0 0 12.4 6.86c.049.043.099.082.137.126a6.63 6.63 0 0 1 2.299 5.018 6.665 6.665 0 0 1-2.288 5.02l-.151.123a6.161 6.161 0 0 0 3.418 1.03 6.173 6.173 0 1 0 0-12.347ZM12 7.154a6.152 6.152 0 0 0-2.356 4.85A6.15 6.15 0 0 0 12 16.857a6.156 6.156 0 0 0 2.357-4.853A6.151 6.151 0 0 0 12 7.154Z"></path>
</svg>