<svg id="iconMenu" width="70" height="70" fill="currentColor" viewBox="0 0 24 24" xmlns="http://www.w3.org/2000/svg">
     <path d="M16 17.242c2.5-.3 4.69-1.84 5-3.25a33.59 33.59 0 0 0 .4-5.42c-.07-4.34-2.92-5.57-2.92-5.57a17.64 17.64 0 0 0-6.48-1 17.64 17.64 0 0 0-6.48 1s-2.84 1.23-2.84 5.57v3.44c.1 4.24.78 8.42 4.7 9.46 1.502.42 3.061.6 4.62.53a9.212 9.212 0 0 0 3.54-.81l-.07-1.64a11.41 11.41 0 0 1-3.47.45c-1.8-.06-3.71-.19-4-2.4a4.26 4.26 0 0 1 0-.63c1.314.299 2.653.48 4 .54a23.601 23.601 0 0 0 4-.27Zm-6.54-9.8c-.9 0-1.35.54-1.35 1.62v5.1H6v-5.26a3.78 3.78 0 0 1 .82-2.56 2.85 2.85 0 0 1 2.23-1 2.68 2.68 0 0 1 2.4 1.23l.52.87.52-.87a2.68 2.68 0 0 1 2.4-1.23 2.85 2.85 0 0 1 2.23 1c.599.716.912 1.628.88 2.56v5.26h-2.11v-5.1c0-1.08-.45-1.62-1.35-1.62-1 0-1.51.64-1.51 1.92v2.79H11v-2.79c0-1.28-.54-1.92-1.54-1.92Z"></path>
</svg>