<svg id="iconMenu" width="70" height="70" fill="currentColor" viewBox="0 0 24 24" xmlns="http://www.w3.org/2000/svg">
     <path d="M21.957 6.733a.073.073 0 0 0-.019-.097.053.053 0 0 0-.012-.01l-.006-.002-6.033-3.018a.692.692 0 0 0-.878.25l-3.474 5.646 4.359 7.083 6.063-9.852Zm-1.064 13.543c.611.306 1.107.092 1.107-.478V8.486l-5.809 9.44 4.702 2.35ZM9.622 8.216v6.426l5.711 2.855-5.711-9.28Zm-7.068 9.558 5.19 2.595a.845.845 0 0 0 .374.098c.323 0 .549-.25.549-.669V6.704a.067.067 0 0 0-.035-.059L2.739 3.7a.669.669 0 0 0-.3-.079c-.258 0-.439.2-.439.534v12.723c0 .341.25.744.554.896Z"></path>
</svg>