<svg id="iconMenu" width="70" height="70" fill="currentColor" viewBox="0 0 24 24" xmlns="http://www.w3.org/2000/svg">
     <path d="M20.26 7.8a4.82 4.82 0 0 0-3.93-2.44 3.91 3.91 0 0 0-2.54 1.09 10.577 10.577 0 0 0-1.52 1.71 10.999 10.999 0 0 0-1.63-1.72 4.39 4.39 0 0 0-2.88-1.08A5 5 0 0 0 3.7 8 11.49 11.49 0 0 0 2 14a7 7 0 0 0 .18 1.64c.1.479.28.938.53 1.36a3.23 3.23 0 0 0 3 1.6c1.25 0 2.19-.56 3.3-2a26.412 26.412 0 0 0 2.21-3.6l.63-1.12c.06-.09.11-.18.16-.27l.15.25 1.79 3c.573 1 1.261 1.93 2.05 2.77a3.381 3.381 0 0 0 2.55 1 3 3 0 0 0 2.72-1.51c.121-.201.225-.412.31-.63l.12-.35c.134-.37.235-.752.3-1.14a9.016 9.016 0 0 0 0-1 11.15 11.15 0 0 0-1.74-6.2Zm-10.12 3.56c-.64 1-1.57 2.51-2.37 3.61-1 1.37-1.51 1.51-2.07 1.51a1.29 1.29 0 0 1-1.15-.66 3.3 3.3 0 0 1-.39-1.7A9.74 9.74 0 0 1 5.54 9a2.8 2.8 0 0 1 2.19-1.47A3 3 0 0 1 10 8.74c.359.416.693.854 1 1.31l-.86 1.31Zm8.42 5.12c-.48 0-.85-.19-1.38-.83A34.876 34.876 0 0 1 14.82 12l-.52-.86c-.36-.61-.71-1.16-1-1.65.051-.094.108-.184.17-.27.94-1.39 1.77-2.17 2.8-2.17a3.12 3.12 0 0 1 2.49 1.66 10.17 10.17 0 0 1 1.37 5.34c-.04 1.31-.34 2.43-1.57 2.43Z"></path>
</svg>