<svg id="iconMenu" width="70" height="70" fill="currentColor" viewBox="0 0 24 24" xmlns="http://www.w3.org/2000/svg">
     <path d="M13.507 2.137a1 1 0 0 0-1.155.102L4.196 9.196c-2.924 2.924-2.924 7.682 0 10.606a7.471 7.471 0 0 0 5.3 2.192c1.924 0 3.85-.734 5.317-2.202l6.903-7.096A1 1 0 0 0 21 11h-3.301l4.175-7.514a1 1 0 0 0-1.36-1.36l-7.11 3.95.577-2.879a1.002 1.002 0 0 0-.474-1.059ZM14 14.5a4.5 4.5 0 0 1-9 0c0-1.57.807-2.949 2.025-3.754-.01.084-.025.167-.025.254a2 2 0 1 0 3.845-.772C12.669 10.801 14 12.485 14 14.5Z"></path>
</svg>