<svg id="iconMenu" width="70" height="70" fill="currentColor" viewBox="0 0 24 24" xmlns="http://www.w3.org/2000/svg">
     <path d="m21.707 20.29-3.4-3.4A7.93 7.93 0 0 0 20 11.999h-2a5.945 5.945 0 0 1-1.119 3.467l-1.449-1.45A3.927 3.927 0 0 0 16 11.998v-6c0-2.217-1.785-4.021-3.979-4.021-.07 0-.14.009-.209.025A4.006 4.006 0 0 0 8 5.998v.586L3.707 2.29 2.293 3.705l18 18 1.414-1.414ZM6 11.999H4c0 4.072 3.06 7.436 7 7.93v2.07h2v-2.07a7.937 7.937 0 0 0 2.241-.63l-1.549-1.547c-.55.162-1.12.246-1.692.247-3.309 0-6-2.691-6-6Z"></path>
     <path d="M8.007 12.07a3.996 3.996 0 0 0 3.926 3.926L8.007 12.07Z"></path>
</svg>