<svg id="iconMenu" width="70" height="70" fill="currentColor" viewBox="0 0 24 24" xmlns="http://www.w3.org/2000/svg">
     <path d="M20.288 10.055a1.707 1.707 0 1 0 0-3.414 1.707 1.707 0 0 0 0 3.414Z"></path>
     <path d="M18.58 11.51h3.414v3.657c0 .942-.765 1.706-1.707 1.706H18.58V11.51ZM2.007 4.199v15.6l11.213 1.979V2.219L2.006 4.198Zm8.288 5.41-1.95.05v5.752H6.88V9.755l-1.95.098V8.537l5.363-.292v1.364Zm3.899.44v8.288h1.95c.808 0 1.463-.655 1.463-1.462v-6.826h-3.413Zm1.463-4.875c-.586 0-1.105.264-1.463.673V8.4a1.937 1.937 0 0 0 2.842.101 1.95 1.95 0 0 0-1.38-3.33Z"></path>
</svg>