<svg id="iconMenu" width="70" height="70" fill="currentColor" viewBox="0 0 24 24" xmlns="http://www.w3.org/2000/svg">
     <path d="M12 21.984c-.275 0-.532-.074-.772-.202l-2.44-1.448c-.364-.203-.181-.277-.071-.314.496-.165.588-.2 1.1-.493.057-.037.13-.02.186.017l1.87 1.12c.074.036.166.036.22 0l7.32-4.237c.074-.036.11-.11.11-.202V7.767c0-.09-.036-.165-.11-.2l-7.32-4.22c-.072-.037-.164-.037-.22 0L4.552 7.565c-.073.036-.11.13-.11.201v8.457c0 .073.037.166.11.202l2 1.157c1.082.548 1.762-.095 1.762-.735V8.501c0-.11.09-.22.22-.22h.936c.108 0 .22.091.22.22v8.347c0 1.45-.788 2.294-2.164 2.294-.422 0-.752 0-1.688-.46l-1.925-1.099a1.55 1.55 0 0 1-.771-1.34V7.785c0-.55.293-1.064.77-1.339L11.23 2.21a1.637 1.637 0 0 1 1.544 0l7.317 4.237c.479.274.77.79.77 1.34v8.457a1.55 1.55 0 0 1-.77 1.34l-7.317 4.236c-.241.11-.516.165-.773.165Zm2.256-5.816c-3.21 0-3.87-1.468-3.87-2.714 0-.11.092-.22.22-.22h.954c.11 0 .2.072.2.183.148.971.569 1.45 2.515 1.45 1.54 0 2.202-.35 2.202-1.176 0-.477-.185-.825-2.587-1.063-2-.2-3.246-.643-3.246-2.238 0-1.485 1.247-2.366 3.339-2.366 2.347 0 3.503.81 3.649 2.568a.297.297 0 0 1-.056.165c-.037.036-.091.073-.146.073h-.953a.212.212 0 0 1-.202-.164c-.221-1.012-.79-1.34-2.292-1.34-1.69 0-1.891.587-1.891 1.027 0 .531.237.696 2.514.99 2.256.293 3.32.715 3.32 2.294-.02 1.615-1.34 2.531-3.67 2.531Z"></path>
</svg>