<svg id="iconMenu" width="70" height="70" fill="currentColor" viewBox="0 0 24 24" xmlns="http://www.w3.org/2000/svg">
     <path d="m20.75 12.004 1.103-1.908a1 1 0 0 0-.365-1.366l-1.91-1.104v-2.2a1 1 0 0 0-1-1H16.38l-1.103-1.91a1.008 1.008 0 0 0-.996-.491.993.993 0 0 0-.37.126L12 3.255 10.09 2.15a1 1 0 0 0-1.366.366L7.62 4.426H5.421a1 1 0 0 0-1 1v2.199l-1.91 1.104a.998.998 0 0 0-.365 1.367l1.104 1.908-1.104 1.908a1.004 1.004 0 0 0 .364 1.367l1.91 1.104v2.199a1 1 0 0 0 1 1h2.2l1.104 1.91a1.01 1.01 0 0 0 .866.5c.174 0 .347-.046.501-.135L12 20.753l1.91 1.104a1.001 1.001 0 0 0 1.366-.365l1.103-1.91h2.2a1 1 0 0 0 1-1v-2.2l1.91-1.103a.999.999 0 0 0 .364-1.367l-1.103-1.908ZM9.5 6.994a1.5 1.5 0 1 1-.002 3 1.5 1.5 0 0 1 .001-3Zm.3 9.6-1.6-1.2 6-8 1.6 1.2-6 8Zm4.7.4a1.5 1.5 0 1 1 0-3 1.5 1.5 0 0 1 0 3Z"></path>
</svg>