<svg id="iconMenu" width="70" height="70" fill="currentColor" viewBox="0 0 24 24" xmlns="http://www.w3.org/2000/svg">
     <path d="M21.993 7.949a.96.96 0 0 0-.029-.214c-.007-.025-.021-.05-.03-.074-.021-.057-.04-.113-.07-.165-.016-.027-.038-.05-.057-.075-.032-.045-.063-.091-.102-.13-.023-.022-.053-.04-.078-.061-.039-.032-.075-.067-.12-.094-.004-.003-.009-.003-.014-.006l-.008-.006-8.979-4.99a1.002 1.002 0 0 0-.97-.001l-9.021 4.99c-.003.003-.006.007-.011.01l-.01.004c-.035.02-.061.049-.094.073-.036.027-.074.05-.106.082-.03.03-.053.067-.079.102-.027.035-.057.066-.079.104-.026.043-.04.092-.059.139-.014.033-.032.064-.041.1a.975.975 0 0 0-.029.21c-.001.017-.007.032-.007.05v8.002c0 .362.197.697.515.873l8.978 4.988h.001l.002.002.02.01c.043.024.09.038.135.055.032.012.063.03.097.038.166.043.34.043.506 0 .033-.009.064-.026.097-.038.045-.017.092-.03.135-.055l.02-.01.002-.002h.001l8.978-4.988a.998.998 0 0 0 .513-.873V7.996c0-.017-.006-.031-.007-.048ZM11.972 11.87 5.058 8.005 7.82 6.476l6.834 3.904-2.682 1.49Zm.048-7.718 6.921 3.847-2.244 1.247-6.83-3.903 2.153-1.191ZM13 19.299l.002-5.678L16 11.942v3.056l2-1v-3.176l2-1.118v5.704l-7 3.89Z"></path>
</svg>