<svg id="iconMenu" width="70" height="70" fill="currentColor" viewBox="0 0 24 24" xmlns="http://www.w3.org/2000/svg">
     <path d="M9.38 21.645a9.983 9.983 0 0 0 2.62.354l.14-.001a2.999 2.999 0 0 0 2.516-1.425c.542-.876.6-1.953.153-2.88l-.198-.415c-.453-.942-.097-1.796.388-2.281.485-.485 1.34-.841 2.28-.388l.414.199a2.99 2.99 0 0 0 2.88-.153A2.996 2.996 0 0 0 22 12.14a9.925 9.925 0 0 0-.353-2.76c-1.038-3.827-4.353-6.754-8.246-7.285-3.15-.427-6.241.602-8.471 2.833-2.23 2.23-3.264 5.318-2.834 8.47.53 3.895 3.458 7.209 7.284 8.247ZM15.5 5.999a1.5 1.5 0 1 1 0 3 1.5 1.5 0 0 1 0-3Zm-5-1a1.5 1.5 0 1 1 0 3 1.5 1.5 0 0 1 0-3ZM9 15.505a1.5 1.5 0 1 1-3 0 1.5 1.5 0 0 1 3 0Zm-2.5-6.5a1.5 1.5 0 1 1-.001 3 1.5 1.5 0 0 1 0-3Z"></path>
</svg>