<svg id="iconMenu" width="70" height="70" fill="currentColor" viewBox="0 0 24 24" xmlns="http://www.w3.org/2000/svg">
     <path d="m20.487 17.142-4.065-3.696a1.001 1.001 0 0 0-1.39.043l-2.394 2.461c-.576-.11-1.734-.47-2.926-1.66-1.192-1.193-1.553-2.354-1.66-2.926l2.46-2.394a1 1 0 0 0 .042-1.39L6.86 3.514a1 1 0 0 0-1.39-.087L3.298 5.29a1 1 0 0 0-.29.65c-.016.25-.302 6.171 4.29 10.765 4.006 4.005 9.024 4.298 10.406 4.298.202 0 .326-.006.36-.008a.992.992 0 0 0 .647-.29l1.86-2.172a.997.997 0 0 0-.085-1.39Z"></path>
</svg>