<svg id="iconMenu" width="70" height="70" fill="currentColor" viewBox="0 0 24 24" xmlns="http://www.w3.org/2000/svg">
     <path d="M15.793 6.797 13 4.004v7h7L17.207 8.21l4.5-4.5-1.414-1.414-4.5 4.5Z"></path>
     <path d="M16.422 13.445a1.001 1.001 0 0 0-1.39.043l-2.393 2.461c-.576-.11-1.734-.47-2.926-1.66-1.192-1.193-1.553-2.354-1.66-2.926l2.46-2.394a1 1 0 0 0 .042-1.39L6.86 3.514a1 1 0 0 0-1.39-.087L3.3 5.29a1.001 1.001 0 0 0-.292.65c-.015.25-.3 6.171 4.291 10.765 4.006 4.005 9.025 4.298 10.406 4.298.203 0 .326-.006.36-.008a.99.99 0 0 0 .647-.29l1.861-2.172a1 1 0 0 0-.086-1.39l-4.065-3.697Z"></path>
</svg>