<svg id="iconMenu" width="70" height="70" fill="currentColor" viewBox="0 0 24 24" xmlns="http://www.w3.org/2000/svg">
     <path d="m16.793 5.793-4.5 4.5 1.414 1.414 4.5-4.5L21 10V3h-7l2.793 2.793Z"></path>
     <path d="M16.422 13.445a1.001 1.001 0 0 0-1.39.043l-2.394 2.461c-.576-.11-1.734-.47-2.926-1.66-1.192-1.193-1.553-2.354-1.66-2.926l2.46-2.394a1 1 0 0 0 .042-1.39L6.86 3.514a1 1 0 0 0-1.39-.087L3.298 5.29a.996.996 0 0 0-.29.648c-.016.25-.302 6.172 4.29 10.766 4.006 4.006 9.024 4.3 10.406 4.3.202 0 .326-.007.36-.009a.992.992 0 0 0 .647-.29l1.86-2.172a1 1 0 0 0-.086-1.39l-4.064-3.697Z"></path>
</svg>