<svg id="iconMenu" width="70" height="70" fill="currentColor" viewBox="0 0 24 24" xmlns="http://www.w3.org/2000/svg">
     <path d="M20 10.999h2C22 5.869 18.127 2 12.99 2v2C17.052 4 20 6.943 20 10.999Z"></path>
     <path d="M13 8.002c2.103 0 3 .897 3 3h2c0-3.225-1.775-5-5-5v2Zm3.422 5.443a1.001 1.001 0 0 0-1.39.043l-2.394 2.461c-.576-.11-1.734-.47-2.926-1.66-1.192-1.193-1.553-2.354-1.66-2.926l2.46-2.394a1 1 0 0 0 .042-1.39L6.86 3.514a1 1 0 0 0-1.39-.087L3.298 5.29a1 1 0 0 0-.29.65c-.016.25-.302 6.171 4.29 10.765 4.006 4.005 9.024 4.298 10.406 4.298.202 0 .326-.006.36-.008a.992.992 0 0 0 .647-.29l1.86-2.172a1 1 0 0 0-.086-1.39l-4.064-3.697Z"></path>
</svg>