<svg id="iconMenu" width="70" height="70" fill="currentColor" viewBox="0 0 24 24" xmlns="http://www.w3.org/2000/svg">
     <path d="M2.15 16.778h1.57a.14.14 0 0 0 .14-.12l.35-1.82h1.22c.51.012 1.02-.055 1.51-.2.397-.132.759-.35 1.06-.64.27-.243.497-.53.67-.85a3.43 3.43 0 0 0 .36-1 2.43 2.43 0 0 0-.41-2.16 2.64 2.64 0 0 0-2.09-.78h-3a.16.16 0 0 0-.15.13L2 16.598a.19.19 0 0 0 0 .13.17.17 0 0 0 .15.05ZM5 10.618h1a1.449 1.449 0 0 1 1.08.29c.17.18.2.52.11 1a1.81 1.81 0 0 1-.57 1.12 2.17 2.17 0 0 1-1.33.33h-.8l.51-2.74Zm9.8-.95a2.7 2.7 0 0 0-1.88-.51h-1.19l.33-1.76a.15.15 0 0 0 0-.13.16.16 0 0 0-.11 0h-1.57a.14.14 0 0 0-.14.12l-1.38 7.27a.13.13 0 0 0 0 .12.13.13 0 0 0 .11.06h1.54a.14.14 0 0 0 .14-.13l.77-4.07h1.11c.45 0 .61.1.66.16a.808.808 0 0 1 0 .62l-.61 3.24a.13.13 0 0 0 0 .12.143.143 0 0 0 .11.06h1.56a.16.16 0 0 0 .15-.13l.64-3.4a1.7 1.7 0 0 0-.24-1.64Zm4.52-.51h-3.13a.14.14 0 0 0-.15.13l-1.46 7.31a.16.16 0 0 0 0 .13.14.14 0 0 0 .11.05h1.63a.14.14 0 0 0 .15-.12l.37-1.82h1.27a5.282 5.282 0 0 0 1.56-.2 3 3 0 0 0 1.18-.64c.279-.243.515-.53.7-.85.174-.313.299-.65.37-1a2.38 2.38 0 0 0-.42-2.16 2.81 2.81 0 0 0-2.18-.83Zm.62 2.77a1.83 1.83 0 0 1-.6 1.12 2.28 2.28 0 0 1-1.37.33h-.8l.54-2.76h1a1.6 1.6 0 0 1 1.13.29c.16.18.16.52.1 1.02Z"></path>
</svg>