<svg id="iconMenu" width="70" height="70" fill="currentColor" viewBox="0 0 24 24" xmlns="http://www.w3.org/2000/svg">
     <path d="M19.071 4.929A9.97 9.97 0 0 0 12 2a9.936 9.936 0 0 0-7.071 2.929A9.936 9.936 0 0 0 2 12c0 2.67 1.04 5.182 2.929 7.071A9.936 9.936 0 0 0 12 22c2.67 0 5.182-1.04 7.071-2.929A9.937 9.937 0 0 0 22 12a9.97 9.97 0 0 0-2.929-7.071Zm-1.414 12.728A7.948 7.948 0 0 1 12 20a7.948 7.948 0 0 1-5.657-2.343A7.948 7.948 0 0 1 4 12c0-2.137.832-4.146 2.343-5.657A7.948 7.948 0 0 1 12 4v8h8a7.947 7.947 0 0 1-2.343 5.657Z"></path>
</svg>