<svg id="iconMenu" width="70" height="70" fill="currentColor" viewBox="0 0 24 24" xmlns="http://www.w3.org/2000/svg">
     <path d="M15.165 15.585c4.587-4.073 8.14-9.424 6.057-11.77-.661-.745-1.584-1.09-2.575-.984-.832.091-1.687.502-2.55 1.192a8.922 8.922 0 0 0-8.711.282 8.917 8.917 0 0 0-4.11 5.515 8.892 8.892 0 0 0 .307 5.325c-1.065 1.203-2.054 3.677-.823 5.063.517.581 1.257.841 2.147.841 2.707 0 6.808-2.399 10.258-5.464Zm3.699-10.767c.358-.034.632.064.86.323.232.261.17.946-.251 1.93a9.058 9.058 0 0 0-1.617-1.854c.43-.262.776-.373 1.008-.399ZM4.633 17.121A8.982 8.982 0 0 0 6.2 18.858c-1.025.303-1.714.283-1.945.021-.217-.243.002-1.069.377-1.758Zm16.31-5.869c-1.215 1.797-2.906 3.671-4.778 5.333-1.934 1.72-4.066 3.208-6.05 4.202a9.087 9.087 0 0 0 1.874.212 8.987 8.987 0 0 0 4.616-1.282 8.915 8.915 0 0 0 4.338-8.465Z"></path>
</svg>