<svg id="iconMenu" width="70" height="70" fill="currentColor" viewBox="0 0 24 24" xmlns="http://www.w3.org/2000/svg">
     <path d="m12.954 11.618 2.957-2.957L6.36 3.293c-.633-.342-1.226-.39-1.746-.016l8.34 8.34Zm3.461 3.462 3.074-1.73c.6-.335.929-.811.929-1.34 0-.526-.329-1.003-.928-1.34l-2.783-1.562-3.133 3.132 2.841 2.84ZM4.1 4.004c-.064.197-.1.417-.1.658v14.705c0 .38.084.709.236.97l8.097-8.098L4.1 4.004Zm8.854 8.855-8.052 8.053c.154.059.32.09.495.09.312 0 .637-.092.968-.276l9.255-5.197-2.666-2.67Z"></path>
</svg>