<svg id="iconMenu" width="70" height="70" fill="currentColor" viewBox="0 0 24 24" xmlns="http://www.w3.org/2000/svg">
     <path d="M19.327 3.984H4.746c-.947 0-1.736.726-1.736 1.673v5.396c0 4.892 4.04 8.964 9.026 8.964 4.955 0 8.964-4.072 8.964-8.964V5.657c0-.947-.758-1.673-1.673-1.673Zm-2.178 6.691-4.293 4.04c-.221.253-.567.348-.82.348-.315 0-.631-.095-.884-.348l-4.23-4.04c-.44-.473-.503-1.262 0-1.768.476-.44 1.264-.504 1.737 0l3.377 3.251 3.44-3.25c.44-.505 1.23-.442 1.673 0 .442.505.442 1.294 0 1.767Z"></path>
</svg>