<svg id="iconMenu" width="70" height="70" fill="currentColor" viewBox="0 0 24 24" xmlns="http://www.w3.org/2000/svg">
     <path d="M9.585 11.692h4.328s2.432.039 2.432-2.35V5.391S16.715 3 11.936 3C7.362 3 7.647 4.983 7.647 4.983l.006 2.055h4.363v.617H5.92s-2.927-.332-2.927 4.282 2.555 4.45 2.555 4.45h1.524v-2.141s-.083-2.554 2.513-2.554Zm-.056-5.74a.785.785 0 1 1 0-1.57.785.785 0 0 1 0 1.57Z"></path>
     <path d="M18.452 7.532h-1.524v2.141s.083 2.554-2.513 2.554h-4.328s-2.432-.04-2.432 2.35v3.951s-.369 2.391 4.409 2.391c4.573 0 4.288-1.983 4.288-1.983l-.006-2.054h-4.363v-.617h6.097s2.927.332 2.927-4.282-2.555-4.451-2.555-4.451Zm-3.981 10.436a.785.785 0 1 1 0 1.57.785.785 0 0 1 0-1.57Z"></path>
</svg>