<svg id="iconMenu" width="70" height="70" fill="currentColor" viewBox="0 0 24 24" xmlns="http://www.w3.org/2000/svg">
     <path d="M12.555 17.025c-.624-1.227-1.354-2.465-2.781-2.465-.271 0-.546.046-.795.157l-.484-.967c.59-.509 1.544-.911 2.77-.911 1.908 0 2.889.922 3.667 2.094.459-1.001.678-2.354.678-4.03 0-4.188-1.308-6.336-4.366-6.336-3.014 0-4.318 2.148-4.318 6.336 0 4.164 1.305 6.291 4.318 6.291.478 0 .913-.051 1.31-.169Zm.747 1.461a7.977 7.977 0 0 1-2.06.274c-4.013 0-7.94-3.202-7.94-7.858C3.302 6.203 7.229 3 11.242 3c4.082 0 7.973 3.179 7.973 7.903 0 2.628-1.226 4.763-3.007 6.143.572.861 1.157 1.436 1.988 1.436.899 0 1.26-.687 1.328-1.236h1.167c.07.73-.301 3.754-3.574 3.754-1.99 0-3.035-1.146-3.822-2.496l.007-.018Z"></path>
</svg>