<svg id="iconMenu" width="70" height="70" fill="currentColor" viewBox="0 0 24 24" xmlns="http://www.w3.org/2000/svg">
     <path d="M6.5 10.001c-.223 0-.437.034-.65.065.069-.232.14-.468.254-.68.114-.308.292-.575.469-.844.148-.29.409-.488.6-.737.202-.242.476-.403.693-.604.213-.21.492-.315.714-.463.232-.133.434-.28.65-.35l.539-.222.474-.197-.485-1.938-.597.144c-.191.048-.424.104-.69.171-.27.05-.56.187-.881.312-.318.142-.686.238-1.028.466-.344.218-.741.4-1.091.692-.34.301-.748.562-1.05.945-.33.358-.656.734-.91 1.162-.292.408-.491.856-.701 1.3-.19.442-.343.895-.468 1.335-.237.882-.343 1.72-.384 2.437-.034.718-.014 1.315.028 1.747.015.204.043.402.063.54l.025.167.026-.006a4.5 4.5 0 1 0 4.4-5.442Zm11 0c-.223 0-.437.034-.65.065.069-.232.14-.468.254-.68.114-.308.292-.575.469-.844.148-.29.409-.488.6-.737.202-.242.476-.403.693-.604.213-.21.492-.315.714-.463.232-.133.434-.28.65-.35l.539-.222.474-.197-.485-1.938-.597.144c-.191.048-.424.104-.69.171-.27.05-.56.187-.881.312-.317.143-.686.238-1.028.467-.344.218-.741.4-1.091.692-.34.301-.748.562-1.05.944-.33.358-.656.734-.91 1.162-.292.408-.491.856-.701 1.3-.19.442-.343.895-.468 1.335-.237.882-.343 1.72-.384 2.437-.034.718-.014 1.315.028 1.747.015.204.043.402.063.54l.025.167.026-.006a4.5 4.5 0 1 0 4.4-5.442Z"></path>
</svg>