<svg id="iconMenu" width="70" height="70" fill="currentColor" viewBox="0 0 24 24" xmlns="http://www.w3.org/2000/svg">
     <path d="m21.95 8.721-.025-.168-.026.006a4.5 4.5 0 1 0-4.4 5.441c.224 0 .438-.034.65-.065a3.58 3.58 0 0 1-.253.68c-.114.308-.292.575-.47.844-.147.291-.408.488-.6.737-.201.242-.475.403-.692.604-.213.21-.492.315-.714.463-.232.133-.434.28-.65.35l-.54.222-.473.197.484 1.939.597-.144c.19-.048.424-.104.689-.171.27-.05.56-.187.882-.312.317-.143.686-.238 1.028-.467.344-.218.74-.4 1.09-.692.34-.301.749-.562 1.05-.944.33-.358.657-.734.91-1.162.293-.408.492-.856.702-1.299.19-.443.343-.896.468-1.336.237-.882.343-1.72.384-2.437.034-.718.014-1.315-.028-1.747a7.067 7.067 0 0 0-.063-.539Zm-11 0-.025-.168-.026.006A4.5 4.5 0 1 0 6.499 14c.224 0 .438-.034.65-.065a3.58 3.58 0 0 1-.253.68c-.114.308-.292.575-.47.844-.147.291-.408.488-.6.737-.201.242-.475.403-.692.604-.213.21-.492.315-.714.463-.232.133-.434.28-.65.35l-.54.222-.472.195.484 1.939.597-.144c.19-.048.424-.104.689-.171.27-.05.56-.187.882-.312.317-.143.686-.238 1.028-.467.344-.218.74-.4 1.09-.692.34-.301.749-.562 1.05-.944.33-.358.657-.734.91-1.162.293-.408.492-.856.702-1.299.19-.443.343-.896.468-1.336.237-.882.343-1.72.384-2.437.034-.718.014-1.315-.028-1.747a7.624 7.624 0 0 0-.064-.537Z"></path>
</svg>