<svg id="iconMenu" width="70" height="70" fill="currentColor" viewBox="0 0 24 24" xmlns="http://www.w3.org/2000/svg">
     <path d="M3.691 6.292C5.094 4.771 7.217 4 10.001 4h1v2.819l-.805.161c-1.37.274-2.323.813-2.833 1.604A2.902 2.902 0 0 0 6.925 10H10a1 1 0 0 1 1 1v7c0 1.103-.897 2-2 2H3a1 1 0 0 1-1-1v-5l.003-2.919c-.009-.111-.199-2.741 1.688-4.789ZM20.001 20h-6a1 1 0 0 1-1-1v-5l.002-2.919c-.009-.111-.199-2.741 1.688-4.789C16.094 4.771 18.217 4 21.001 4h1v2.819l-.805.161c-1.37.274-2.323.813-2.833 1.604A2.902 2.902 0 0 0 17.925 10H21a1 1 0 0 1 1 1v7c0 1.103-.897 2-2 2Z"></path>
</svg>