<svg id="iconMenu" width="70" height="70" fill="currentColor" viewBox="0 0 24 24" xmlns="http://www.w3.org/2000/svg">
     <path d="M9.912 8.533 7.121 3.88a.5.5 0 0 0-.704-.166 9.982 9.982 0 0 0-4.396 7.604.505.505 0 0 0 .497.528l5.421.09a4.042 4.042 0 0 1 1.973-3.402Zm8.109-4.51a.504.504 0 0 0-.729.151l-2.793 4.658a4.029 4.029 0 0 1 1.546 3.112l5.419-.09a.507.507 0 0 0 .499-.53 9.984 9.984 0 0 0-3.942-7.3Zm-4.067 11.511a4.015 4.015 0 0 1-1.962.526 4.017 4.017 0 0 1-1.963-.526L7.387 20.29a.5.5 0 0 0 .207.692 9.949 9.949 0 0 0 4.398 1.021 9.94 9.94 0 0 0 4.396-1.02.502.502 0 0 0 .207-.693l-2.641-4.755Z"></path>
     <path d="M12 15a3 3 0 1 0 0-6 3 3 0 0 0 0 6Z"></path>
</svg>