<svg id="iconMenu" width="70" height="70" fill="currentColor" viewBox="0 0 24 24" xmlns="http://www.w3.org/2000/svg">
     <path d="M12 13.03a1.785 1.785 0 1 0 0-3.569 1.785 1.785 0 0 0 0 3.57Z"></path>
     <path d="m7.002 14.793-.395-.1C3.673 13.95 1.99 12.69 1.99 11.24c0-1.452 1.684-2.711 4.617-3.452l.395-.1.111.39a19.507 19.507 0 0 0 1.136 2.983l.085.179-.085.178c-.46.963-.84 1.96-1.136 2.984l-.11.39Zm-.577-6.095c-2.229.628-3.598 1.586-3.598 2.543 0 .954 1.368 1.912 3.598 2.54.273-.869.603-1.718.985-2.54a20.36 20.36 0 0 1-.985-2.543Zm10.572 6.095-.11-.391a19.615 19.615 0 0 0-1.137-2.984l-.085-.177.085-.18c.46-.96.84-1.96 1.137-2.983l.11-.39.395.1c2.935.74 4.617 2 4.617 3.453 0 1.452-1.683 2.71-4.617 3.452l-.395.1Zm-.41-3.552c.4.866.733 1.718.987 2.54 2.23-.628 3.6-1.587 3.6-2.54 0-.957-1.369-1.913-3.6-2.543a20.673 20.673 0 0 1-.987 2.543Z"></path>
     <path d="m6.42 8.692-.11-.39c-.827-2.908-.577-4.99.686-5.717 1.235-.715 3.222.13 5.303 2.265l.284.292-.284.291a19.71 19.71 0 0 0-2.02 2.474l-.113.162-.196.016c-1.064.084-2.12.254-3.157.51l-.394.097ZM8 3.163c-.224 0-.422.05-.589.145-.828.477-.974 2.138-.404 4.38.891-.197 1.79-.338 2.696-.417a21.058 21.058 0 0 1 1.713-2.123C10.113 3.881 8.883 3.163 8 3.163Zm7.997 16.984c-1.188 0-2.714-.896-4.298-2.522l-.283-.29.283-.29c.74-.77 1.415-1.6 2.021-2.478l.112-.16.194-.019a19.472 19.472 0 0 0 3.158-.507l.395-.1.111.391c.822 2.906.573 4.992-.688 5.718a1.98 1.98 0 0 1-1.005.257Zm-3.415-2.82c1.302 1.267 2.533 1.986 3.415 1.986.225 0 .423-.05.59-.145.828-.478.975-2.142.403-4.384-.89.198-1.79.34-2.698.42a20.534 20.534 0 0 1-1.71 2.123Z"></path>
     <path d="m17.58 8.692-.395-.1a19.475 19.475 0 0 0-3.158-.508l-.194-.017-.113-.162A19.55 19.55 0 0 0 11.7 5.43l-.284-.291.284-.29c2.08-2.134 4.066-2.98 5.303-2.265 1.262.727 1.512 2.81.688 5.717l-.111.39ZM14.293 7.27c.954.085 1.858.228 2.698.417.57-2.242.425-3.903-.404-4.381-.825-.477-2.376.253-4.005 1.84.616.67 1.188 1.379 1.71 2.124ZM8 20.146a1.981 1.981 0 0 1-1.005-.256c-1.263-.727-1.513-2.812-.688-5.719l.108-.39.395.1a19.64 19.64 0 0 0 3.158.506l.194.02.112.16c.604.877 1.28 1.706 2.02 2.477l.284.29-.284.29C10.712 19.252 9.186 20.147 8 20.147Zm-.993-5.362c-.57 2.242-.424 3.906.404 4.385.825.47 2.37-.256 4.004-1.843a21.173 21.173 0 0 1-1.712-2.123c-.907-.08-1.808-.22-2.696-.418Z"></path>
     <path d="M12 15.317a25.37 25.37 0 0 1-2.1-.088l-.196-.017-.113-.162c-.4-.575-.775-1.165-1.126-1.77a26.006 26.006 0 0 1-.97-1.858l-.085-.177.084-.18c.3-.631.622-1.251.971-1.857.347-.596.726-1.192 1.126-1.77l.113-.16.196-.018a25.146 25.146 0 0 1 4.198 0l.194.019.113.16a25.14 25.14 0 0 1 2.1 3.628l.083.179-.083.177a24.752 24.752 0 0 1-2.1 3.628l-.113.162-.194.017c-.706.057-1.412.087-2.098.087Zm-1.834-.904c1.235.093 2.433.093 3.667 0a24.484 24.484 0 0 0 1.832-3.168 23.932 23.932 0 0 0-1.832-3.168 23.875 23.875 0 0 0-3.667 0 23.742 23.742 0 0 0-1.832 3.168 24.812 24.812 0 0 0 1.832 3.168Z"></path>
</svg>