<svg id="iconMenu" width="70" height="70" fill="currentColor" viewBox="0 0 24 24" xmlns="http://www.w3.org/2000/svg">
     <path d="M12.002 2.009 12 2.008c-5.52 0-9.996 4.475-9.996 9.995S6.48 22 12 22c5.52 0 9.996-4.475 9.996-9.997 0-5.52-4.475-9.995-9.994-9.995Zm.162 13.53a.267.267 0 0 1-.174.066H6.455a.268.268 0 0 1-.266-.267V8.65c0-.148.119-.268.266-.268h2.589c1.612 0 2.576.87 2.576 2.327 0 .969-.486 1.729-1.272 2.039l1.842 2.413a.269.269 0 0 1-.026.378Zm3.695.068h-2.665a.268.268 0 0 1-.266-.27V8.65c0-.148.119-.267.266-.267h2.472c1.853 0 2.242 1.09 2.242 2.007 0 .529-.141.949-.421 1.258.68.28 1.047.913 1.047 1.827 0 1.335-1.001 2.132-2.675 2.132Z"></path>
</svg>