<svg id="iconMenu" width="70" height="70" fill="currentColor" viewBox="0 0 24 24" xmlns="http://www.w3.org/2000/svg">
     <path d="M9.67 14.002a1.001 1.001 0 1 0 0-2.002 1.001 1.001 0 0 0 0 2.002Z"></path>
     <path d="M14.09 15.39A3.28 3.28 0 0 1 12 16a3.271 3.271 0 0 1-2.081-.63.27.27 0 0 0-.38.38 3.84 3.84 0 0 0 2.472.77 3.811 3.811 0 0 0 2.469-.77v.04a.285.285 0 0 0 .006-.397.28.28 0 0 0-.396-.003Zm.209-3.35a1 1 0 1 0 0 2l-.008.038c.016.002.033 0 .05 0a1 1 0 0 0 .959-1.038.998.998 0 0 0-1.001-1Z"></path>
     <path d="M12 2C6.479 2 2 6.477 2 12c0 5.521 4.479 10 10 10s10-4.479 10-10c0-5.523-4.479-10-10-10Zm5.859 11.33c.012.146.012.293 0 .439 0 2.24-2.609 4.062-5.83 4.062s-5.83-1.82-5.83-4.062a2.681 2.681 0 0 1 0-.439 1.46 1.46 0 1 1 1.608-2.39 7.145 7.145 0 0 1 3.899-1.23l.743-3.47v-.004A.313.313 0 0 1 12.82 6l2.449.49a1.001 1.001 0 1 1-.131.61L13 6.65l-.649 3.12a7.123 7.123 0 0 1 3.85 1.23 1.461 1.461 0 0 1 2.469 1c.01.563-.307 1.08-.811 1.33Z"></path>
</svg>