<svg id="iconMenu" width="70" height="70" fill="currentColor" viewBox="0 0 24 24" xmlns="http://www.w3.org/2000/svg">
     <path d="M15.661 15.55a1.315 1.315 0 0 0 1.185-1.385 1.363 1.363 0 0 0-1.35-1.302h-.048a1.352 1.352 0 0 0-1.303 1.397c.024.379.18.687.391.91-.827 1.61-2.07 2.795-3.954 3.789-1.266.663-2.604.912-3.905.734-1.089-.153-1.94-.64-2.463-1.421-.78-1.185-.852-2.462-.2-3.74A5.597 5.597 0 0 1 5.67 12.6a7.88 7.88 0 0 1-.33-1.218c-3.507 2.51-3.149 5.942-2.085 7.564.794 1.184 2.415 1.94 4.19 1.94.474 0 .972-.034 1.457-.153 3.077-.592 5.41-2.438 6.747-5.16l.011-.023Z"></path>
     <path d="M19.887 12.587c-1.834-2.154-4.533-3.337-7.61-3.337h-.404c-.2-.438-.66-.71-1.183-.71h-.036c-.744 0-1.325.64-1.3 1.384.022.71.626 1.302 1.35 1.302h.058a1.333 1.333 0 0 0 1.183-.828h.44c1.823 0 3.55.532 5.125 1.574 1.206.792 2.072 1.834 2.557 3.077.425 1.02.402 2.013-.035 2.843-.675 1.302-1.812 1.988-3.314 1.988-.947 0-1.87-.296-2.345-.509-.283.235-.758.626-1.102.863 1.042.473 2.096.746 3.113.746 2.31 0 4.023-1.302 4.676-2.557.71-1.422.651-3.813-1.16-5.859l-.013.023Z"></path>
     <path d="M7.647 15.975c.023.71.626 1.302 1.35 1.302h.048a1.335 1.335 0 0 0 1.302-1.397c0-.71-.616-1.301-1.338-1.301H8.96c-.048 0-.118 0-.178.022-.982-1.657-1.397-3.434-1.242-5.349.094-1.445.567-2.7 1.42-3.742.71-.888 2.048-1.326 2.96-1.35 2.556-.048 3.622 3.138 3.704 4.404l1.184.354C16.536 5.036 14.122 3 11.813 3 9.647 3 7.647 4.574 6.842 6.884c-1.102 3.077-.38 6.036.97 8.404-.117.154-.188.426-.165.687Z"></path>
</svg>