<svg id="iconMenu" width="70" height="70" fill="currentColor" viewBox="0 0 24 24" xmlns="http://www.w3.org/2000/svg">
     <path d="M11.492 21.768c.294.157.663.157.957-.001 8.012-4.304 8.581-12.713 8.574-15.104a.989.989 0 0 0-.596-.903l-8.05-3.565a1.005 1.005 0 0 0-.814 0L3.57 5.763a.988.988 0 0 0-.592.89c-.034 2.38.445 10.807 8.514 15.116ZM8.293 9.704 9.707 8.29 12 10.583l2.293-2.293 1.414 1.414-2.293 2.293 2.293 2.293-1.414 1.414L12 13.41l-2.293 2.293-1.414-1.414 2.293-2.293-2.293-2.293Z"></path>
</svg>