<svg id="iconMenu" width="70" height="70" fill="currentColor" viewBox="0 0 24 24" xmlns="http://www.w3.org/2000/svg">
     <path d="M21.88 5.223a.496.496 0 0 0-.746-.412c-.672.392-1.718.898-2.643.898-.421 0-.85-.064-1.29-.198a5.71 5.71 0 0 1-.807-.309c-1.338-.639-2.567-1.767-3.696-2.889a1.008 1.008 0 0 0-.698-.29 1.008 1.008 0 0 0-.698.29c-1.13 1.122-2.358 2.25-3.696 2.89h-.001a5.66 5.66 0 0 1-.807.308 4.41 4.41 0 0 1-1.29.198c-.924 0-1.97-.507-2.642-.898a.496.496 0 0 0-.747.412c-.061 1.538-.077 4.84.688 7.444 1.399 4.763 4.48 7.976 8.91 9.292l.14.041.14-.014V22v-.014H12l.143.014.14-.04c4.43-1.317 7.51-4.53 8.91-9.293.765-2.604.748-5.906.688-7.444Z"></path>
</svg>