<svg id="iconMenu" width="70" height="70" fill="currentColor" viewBox="0 0 24 24" xmlns="http://www.w3.org/2000/svg">
     <path d="m14.49 20.934 5.38-1.166S17.93 6.63 17.915 6.543c-.016-.086-.086-.144-.158-.144-.072 0-1.44-.101-1.44-.101s-.948-.95-1.063-1.05c-.027-.03-.057-.043-.086-.058l-.677 15.744Zm.446-15.772c-.016 0-.043.014-.057.014-.016 0-.217.059-.533.158-.318-.92-.88-1.768-1.871-1.768h-.086c-.29-.361-.633-.52-.936-.52-2.316 0-3.426 2.893-3.77 4.36-.892.275-1.538.476-1.613.505-.504.158-.517.172-.574.648-.057.344-1.367 10.489-1.367 10.489l10.117 1.899.69-15.785Zm-2.635.704v.102c-.56.173-1.178.36-1.783.547.346-1.323.992-1.972 1.553-2.217.146.375.23.878.23 1.568Zm-.92-2.2c.1 0 .2.028.303.102-.732.344-1.54 1.222-1.871 2.978-.469.15-.939.294-1.411.432.389-1.34 1.325-3.512 2.979-3.512Zm.402 7.812s-.604-.315-1.322-.315c-1.08 0-1.123.676-1.123.849 0 .92 2.418 1.28 2.418 3.453 0 1.712-1.08 2.806-2.547 2.806-1.756 0-2.648-1.094-2.648-1.094l.475-1.554s.922.792 1.697.792a.693.693 0 0 0 .72-.69c0-1.21-1.985-1.268-1.985-3.252 0-1.67 1.195-3.295 3.627-3.295.936 0 1.395.272 1.395.272l-.707 2.028Zm.922-7.281c.518.06.85.648 1.064 1.31-.258.088-.547.174-.863.274v-.187c0-.561-.072-1.022-.201-1.397Z"></path>
</svg>