<svg id="iconMenu" width="70" height="70" fill="currentColor" viewBox="0 0 24 24" xmlns="http://www.w3.org/2000/svg">
     <path d="M6.194 14.645c0 1.16-.943 2.107-2.103 2.107a2.11 2.11 0 0 1-2.104-2.107 2.11 2.11 0 0 1 2.104-2.106h2.103v2.106Zm1.061 0c0-1.16.944-2.106 2.104-2.106a2.11 2.11 0 0 1 2.103 2.106v5.274a2.11 2.11 0 0 1-2.103 2.106 2.108 2.108 0 0 1-2.104-2.106v-5.274ZM9.36 6.19a2.11 2.11 0 0 1-2.104-2.107c0-1.16.944-2.106 2.104-2.106a2.11 2.11 0 0 1 2.103 2.106V6.19H9.36Zm0 1.06a2.11 2.11 0 0 1 2.103 2.107 2.11 2.11 0 0 1-2.103 2.106H4.092a2.11 2.11 0 0 1-2.104-2.106A2.11 2.11 0 0 1 4.092 7.25H9.36Zm8.447 2.107c0-1.16.943-2.107 2.103-2.107a2.11 2.11 0 0 1 2.104 2.107 2.11 2.11 0 0 1-2.104 2.106h-2.103V9.357Zm-1.06 0a2.11 2.11 0 0 1-2.105 2.106 2.11 2.11 0 0 1-2.103-2.106V4.083a2.11 2.11 0 0 1 2.103-2.106c1.16 0 2.104.946 2.104 2.106v5.274Zm-2.105 8.455a2.11 2.11 0 0 1 2.104 2.107 2.109 2.109 0 0 1-2.104 2.106 2.11 2.11 0 0 1-2.103-2.106v-2.107h2.103Zm0-1.06a2.11 2.11 0 0 1-2.103-2.107 2.11 2.11 0 0 1 2.103-2.106h5.268a2.11 2.11 0 0 1 2.104 2.106 2.11 2.11 0 0 1-2.104 2.107h-5.268Z"></path>
</svg>