<svg id="iconMenu" width="70" height="70" fill="currentColor" viewBox="0 0 24 24" xmlns="http://www.w3.org/2000/svg">
     <path d="M20.935 12.643a1.617 1.617 0 0 0-2.022-1.034l-1.632.532c-.355-1.099-.735-2.268-1.092-3.365l.006-.002-.004-.008 1.613-.523A1.62 1.62 0 0 0 18.84 6.22a1.62 1.62 0 0 0-2.025-1.034l-1.62.527-.52-1.604a1.619 1.619 0 0 0-2.024-1.034A1.618 1.618 0 0 0 11.617 5.1l.522 1.61L8.771 7.8l-.524-1.61a1.618 1.618 0 0 0-2.022-1.035 1.617 1.617 0 0 0-1.034 2.023l.524 1.616-1.662.541a1.602 1.602 0 0 0-.988 1.95c.25.856 1.152 1.373 1.98 1.092.005 0 .657-.209 1.664-.536l1.1 3.386h-.003v.002l-1.67.545a1.599 1.599 0 0 0-.987 1.95c.25.856 1.15 1.373 1.98 1.092.006 0 .658-.21 1.664-.538l.003.005c.003 0 .006 0 .008-.002l.54 1.657a1.6 1.6 0 0 0 1.948.99c.857-.25 1.373-1.152 1.094-1.98 0-.006-.209-.654-.533-1.654l-.003-.009c1.104-.358 2.276-.739 3.376-1.098l.543 1.668a1.602 1.602 0 0 0 1.95.99c.855-.252 1.373-1.153 1.091-1.98 0-.007-.209-.659-.535-1.663l.02-.006-.004-.007 1.61-.522a1.62 1.62 0 0 0 1.034-2.024ZM10.86 14.235l-1.097-3.377h.005v-.007c1.098-.356 2.268-.735 3.363-1.092l1.098 3.377-3.369 1.1Z"></path>
</svg>