<svg id="iconMenu" width="70" height="70" fill="currentColor" viewBox="0 0 24 24" xmlns="http://www.w3.org/2000/svg">
     <path d="M2.971 12.188c-.04 0-.078.038-.083.082l-.194 1.797.194 1.756c.005.05.042.082.083.082s.075-.033.084-.082l.211-1.756-.225-1.797c0-.046-.037-.082-.074-.082h.004Zm-.754.691c-.05 0-.076.03-.088.08l-.138 1.108.138 1.092c0 .046.037.078.075.078.04 0 .073-.038.087-.087l.176-1.1-.176-1.112a.073.073 0 0 0-.075-.076l.001.017Zm1.525-1.042c-.052 0-.1.04-.1.087l-.176 2.14.188 2.05c0 .05.037.1.1.1.051 0 .088-.05.101-.1l.211-2.064-.21-2.126c-.014-.049-.053-.1-.103-.1l-.01.013Zm.801-.088c-.063 0-.114.051-.126.113l-.16 2.201.176 2.123c.012.063.061.114.122.114.064 0 .113-.05.125-.124l.201-2.113-.2-2.187a.11.11 0 0 0-.112-.112l-.026-.015Zm.962.301a.128.128 0 0 0-.133-.125.134.134 0 0 0-.137.125l-.182 2.026.17 2.138a.13.13 0 0 0 .131.131c.062 0 .123-.055.123-.132l.19-2.139-.19-2.036.028.012Zm.674-1.426a.154.154 0 0 0-.148.15l-.176 3.3.156 2.14c0 .076.066.136.15.136.078 0 .145-.074.15-.15l.174-2.137-.173-3.313c-.007-.088-.074-.152-.15-.152l.017.026Zm.783-.788a.178.178 0 0 0-.17.163l-.15 4.063.138 2.125c0 .1.075.174.163.174.086 0 .161-.074.174-.174l.162-2.125-.16-4.052c-.014-.1-.089-.175-.176-.175l.02.001Zm.807-.373c-.102 0-.176.073-.188.173l-.139 4.4.14 2.102c.011.1.085.188.187.188a.193.193 0 0 0 .187-.188l.163-2.102-.164-4.4c0-.1-.087-.188-.188-.188l.002.015Zm1.036.023a.196.196 0 0 0-.199-.199.205.205 0 0 0-.2.2l-.126 4.537.124 2.09c.015.11.101.198.214.198a.198.198 0 0 0 .201-.199l.136-2.089-.136-4.55-.014.012Zm.625-.11c-.113 0-.213.1-.213.21l-.125 4.44.125 2.062c0 .125.1.213.213.213a.22.22 0 0 0 .214-.224l.125-2.064-.14-4.428c0-.122-.1-.225-.225-.225l.026.015Zm.812.123a.236.236 0 0 0-.237.237l-.086 4.29.113 2.063c0 .124.1.231.236.231.125 0 .227-.1.237-.237l.101-2.038-.112-4.265c-.01-.137-.113-.238-.237-.238l-.015-.043Zm1.003-.743a.27.27 0 0 0-.139-.037c-.05 0-.1.013-.137.037a.25.25 0 0 0-.125.214v.05l-.086 5.044.096 2.043v.007c.006.05.024.112.06.15.05.051.12.086.196.086a.28.28 0 0 0 .175-.074.261.261 0 0 0 .076-.188l.013-.2.097-1.839-.113-5.075a.24.24 0 0 0-.11-.199l-.003-.019Zm.837-.457a.155.155 0 0 0-.124-.052.283.283 0 0 0-.174.052.265.265 0 0 0-.1.201v.023l-.114 5.513.063 1.014.052.988a.274.274 0 1 0 .548-.012l.125-2.013-.125-5.536a.273.273 0 0 0-.138-.23l-.013.052Zm7.465 3.097c-.336 0-.663.072-.949.193a4.34 4.34 0 0 0-5.902-3.65c-.188.074-.227.15-.238.3v7.812a.31.31 0 0 0 .275.29h6.827a2.427 2.427 0 0 0 2.45-2.438 2.457 2.457 0 0 0-2.45-2.463"></path>
</svg>