<svg id="iconMenu" width="70" height="70" fill="currentColor" viewBox="0 0 24 24" xmlns="http://www.w3.org/2000/svg">
     <path d="M12.01 2.016c-5.495 0-9.991 4.496-9.991 9.99 0 5.495 4.496 9.99 9.99 9.99 5.495 0 9.99-4.495 9.99-9.99 0-5.494-4.445-9.99-9.99-9.99Zm4.595 14.436c-.2.299-.55.4-.85.2-2.35-1.45-5.296-1.75-8.793-.95-.348.102-.648-.148-.748-.45-.101-.35.149-.647.45-.748 3.795-.85 7.093-.5 9.69 1.1.35.149.4.548.25.848Zm1.2-2.747c-.251.349-.7.499-1.051.249-2.697-1.646-6.792-2.148-9.94-1.148-.397.1-.85-.1-.948-.498-.101-.402.1-.852.499-.952 3.646-1.098 8.143-.548 11.239 1.35.3.15.45.649.2.999Zm.099-2.8C14.707 9.01 9.362 8.81 6.314 9.76a.938.938 0 0 1-1.148-.6.937.937 0 0 1 .599-1.151c3.547-1.05 9.392-.85 13.089 1.35.449.25.599.85.349 1.299-.25.35-.85.498-1.3.248Z"></path>
</svg>