<svg id="iconMenu" width="70" height="70" fill="currentColor" viewBox="0 0 24 24" xmlns="http://www.w3.org/2000/svg">
     <path d="M20.205 16.39c-2.469 3.289-7.741 2.179-11.122 2.338 0 0-.599.034-1.201.133 0 0 .228-.097.519-.198 2.374-.821 3.496-.986 4.939-1.727 2.71-1.388 5.408-4.413 5.957-7.555-1.032 3.022-4.17 5.623-7.027 6.679-1.955.722-5.492 1.424-5.493 1.424a5.792 5.792 0 0 1-.143-.076c-2.405-1.17-2.475-6.38 1.894-8.06 1.916-.735 3.747-.331 5.818-.824 2.208-.525 4.766-2.18 5.805-4.344 1.165 3.458 2.565 8.866.054 12.21Zm.042-13.28A9.211 9.211 0 0 1 19.182 5a9.981 9.981 0 0 0-7.167-3.031C6.492 1.969 2 6.46 2 11.983a9.983 9.983 0 0 0 3.205 7.334l.22.194a.856.856 0 1 1 .001 0l.149.133a9.96 9.96 0 0 0 6.44 2.354c5.278 0 9.613-4.108 9.984-9.292.274-2.54-.476-5.763-1.752-9.596"></path>
</svg>