<svg id="iconMenu" width="70" height="70" fill="currentColor" viewBox="0 0 24 24" xmlns="http://www.w3.org/2000/svg">
     <path d="M20.886 9.264c-1.502-1.5-3.941-1.5-5.475 0l-6.13 6.132a.98.98 0 0 0 0 1.377.982.982 0 0 0 1.376 0l6.13-6.131a1.924 1.924 0 1 1 2.722 2.723l-6.037 6.034c.75.75 1.97.75 2.723 0l4.66-4.66c1.53-1.534 1.53-3.973.03-5.475Zm-2.064 2.034a.982.982 0 0 0-1.376 0l-6.134 6.161c-.751.75-1.97.75-2.72 0a.983.983 0 0 0-1.377 0 .98.98 0 0 0 0 1.375c1.502 1.503 3.942 1.503 5.475 0l6.13-6.128c.376-.406.376-1.034.002-1.409Zm-2.035-6.13c-1.501-1.502-3.941-1.502-5.475 0l-6.131 6.13a.98.98 0 0 0 0 1.374.98.98 0 0 0 1.377 0l6.168-6.129a1.934 1.934 0 0 1 2.727 0 .982.982 0 0 0 1.376 0c.352-.406.352-1-.024-1.375h-.018ZM14.724 7.2a.978.978 0 0 0-1.376 0l-6.131 6.165a1.933 1.933 0 0 1-2.723 0 1.927 1.927 0 0 1 0-2.724l6.037-6.039a1.928 1.928 0 0 0-2.722 0L3.118 9.264c-1.501 1.503-1.501 3.942 0 5.476 1.5 1.501 3.94 1.501 5.475 0l6.129-6.132c.377-.408.377-1.033 0-1.408h.002Z"></path>
</svg>