<svg id="iconMenu" width="70" height="70" fill="currentColor" viewBox="0 0 24 24" xmlns="http://www.w3.org/2000/svg">
     <path d="M8.21 17.319 7 16.799a2.13 2.13 0 1 0 1.17-2.93l1.28.53a1.582 1.582 0 0 1-1.22 2.92h-.02Z"></path>
     <path d="M12 2a10 10 0 0 0-10 9.34l5.38 2.21a2.31 2.31 0 0 1 .47-.24A2.62 2.62 0 0 1 9 13.1l2.44-3.56a3.8 3.8 0 1 1 3.8 3.8h-.08l-3.51 2.5a2.77 2.77 0 0 1-5.47.68l-3.77-1.6A10 10 0 1 0 12 2Z"></path>
     <path d="M17.79 9.498a2.53 2.53 0 1 0-2.53 2.5 2.54 2.54 0 0 0 2.53-2.5Zm-4.42 0a1.9 1.9 0 1 1 .14.723 1.899 1.899 0 0 1-.14-.733v.01Z"></path>
</svg>