<svg id="iconMenu" width="70" height="70" fill="currentColor" viewBox="0 0 24 24" xmlns="http://www.w3.org/2000/svg">
     <path d="M21.842 6.218a1.977 1.977 0 0 0-.424-.628A1.99 1.99 0 0 0 20 5H8c-.297 0-.578.132-.77.359l-5 6c-.308.371-.308.91 0 1.281l5 6c.192.228.473.36.77.36h12a1.978 1.978 0 0 0 1.41-.582A1.992 1.992 0 0 0 22 17V7c0-.266-.052-.525-.158-.782Zm-4.135 8.075-1.414 1.414L14 13.414l-2.293 2.293-1.414-1.414L12.586 12l-2.293-2.293 1.414-1.414L14 10.586l2.293-2.293 1.414 1.414L15.414 12l2.293 2.293Z"></path>
</svg>