<svg id="iconMenu" width="70" height="70" fill="currentColor" viewBox="0 0 24 24" xmlns="http://www.w3.org/2000/svg">
     <path d="M18.5 9.506a4.22 4.22 0 0 1-1.91-1.34A5.77 5.77 0 0 0 12 5.996a4.72 4.72 0 0 0-5 4 3.23 3.23 0 0 1 3.5-1.49 4.32 4.32 0 0 1 1.91 1.35 5.772 5.772 0 0 0 4.59 2.14 4.72 4.72 0 0 0 5-4 3.2 3.2 0 0 1-3.5 1.51Zm-13 4.98a4.22 4.22 0 0 1 1.91 1.34 5.772 5.772 0 0 0 4.59 2.17 4.72 4.72 0 0 0 5-4 3.231 3.231 0 0 1-3.5 1.49 4.32 4.32 0 0 1-1.91-1.35A5.8 5.8 0 0 0 7 11.996a4.72 4.72 0 0 0-5 4 3.2 3.2 0 0 1 3.5-1.51Z"></path>
</svg>