<svg id="iconMenu" width="70" height="70" fill="currentColor" viewBox="0 0 24 24" xmlns="http://www.w3.org/2000/svg">
     <path d="M4.93 19.071a9.953 9.953 0 0 0 6.691 2.906c-.463-2.773.365-5.72 2.5-7.856 2.136-2.135 5.083-2.963 7.856-2.5a9.953 9.953 0 0 0-2.906-6.692 9.955 9.955 0 0 0-6.692-2.906c.463 2.773-.365 5.721-2.5 7.856-2.136 2.135-5.083 2.963-7.856 2.5a9.944 9.944 0 0 0 2.906 6.692Z"></path>
     <path d="M15.536 15.536a6.997 6.997 0 0 0-1.912 6.318 9.929 9.929 0 0 0 8.23-8.229 6.998 6.998 0 0 0-6.318 1.911Zm-7.07-7.07a6.995 6.995 0 0 0 1.91-6.318 9.929 9.929 0 0 0-8.23 8.23 7 7 0 0 0 6.32-1.912Z"></path>
</svg>