<svg id="iconMenu" width="70" height="70" fill="currentColor" viewBox="0 0 24 24" xmlns="http://www.w3.org/2000/svg">
     <path d="M8.31 10.281a2.5 2.5 0 1 0 0 5 2.5 2.5 0 0 0 0-5Zm0 3.8a1.312 1.312 0 0 1-1.425-1.305 1.31 1.31 0 0 1 1.425-1.305 1.31 1.31 0 1 1 0 2.61Zm7.38-3.8a2.5 2.5 0 1 0 0 5 2.5 2.5 0 0 0 0-5Zm1.31 2.49a1.311 1.311 0 1 1-2.623.02A1.311 1.311 0 0 1 17 12.77Z"></path>
     <path d="M12 2a10 10 0 1 0 0 20 10 10 0 0 0 0-20Zm7.38 10.77a3.69 3.69 0 0 1-6.2 2.71L12 16.77l-1.18-1.29a3.696 3.696 0 0 1-5.97-1.451 3.694 3.694 0 0 1 .97-3.989l-1.2-1.3H7.3a8.33 8.33 0 0 1 9.41 0h2.67l-1.2 1.31a3.71 3.71 0 0 1 1.2 2.72Z"></path>
     <path d="M14.77 9.047a7.19 7.19 0 0 0-5.54 0 4.06 4.06 0 0 1 2.77 3.65 4.08 4.08 0 0 1 2.77-3.65Z"></path>
</svg>