<svg id="iconMenu" width="70" height="70" fill="currentColor" viewBox="0 0 24 24" xmlns="http://www.w3.org/2000/svg">
     <path d="M12.642 8.085c-.364.189-.79.42-1.242.42-.453 0-.81-.21-1.066-.413-.13-.101-.234-.202-.313-.276-.137-.108-.12-.26-.064-.254.093.012.107.136.167.19.08.076.18.173.303.27.242.192.566.38.973.38.405 0 .877-.238 1.166-.4.163-.092.371-.256.541-.381.13-.095.126-.21.232-.198.107.013.028.127-.122.258a3.4 3.4 0 0 1-.575.404Z"></path>
     <path d="M19.648 17.77c-.142-.16-.209-.455-.28-.77-.072-.315-.153-.654-.412-.874l-.002-.001a1.055 1.055 0 0 0-.317-.192c.36-1.065.22-2.126-.145-3.084-.444-1.177-1.222-2.202-1.815-2.903-.663-.838-1.313-1.633-1.3-2.808.02-1.793.196-5.118-2.959-5.122-.133 0-.267.005-.4.017-3.526.283-2.59 4.008-2.643 5.255-.064.912-.25 1.63-.877 2.523-.736.876-1.774 2.295-2.266 3.77-.232.698-.342 1.408-.241 2.08a1.965 1.965 0 0 0-.091.09c-.216.23-.376.51-.555.699-.166.167-.403.229-.664.323s-.547.23-.721.565l-.001.002a1 1 0 0 0-.108.484c0 .154.023.31.046.46.048.314.097.61.032.81-.206.565-.232.955-.087 1.238.146.284.444.409.783.479.676.14 1.592.106 2.314.489L7 21.183l-.061.118c.773.404 1.557.547 2.182.405.454-.104.82-.374 1.01-.79.49-.001 1.026-.208 1.886-.255.582-.047 1.311.207 2.148.16.022.091.056.18.1.264.323.649.928.946 1.57.896.644-.05 1.33-.43 1.883-1.09l-.102-.084.102.084c.527-.64 1.403-.905 1.984-1.255.29-.175.526-.395.544-.713.018-.318-.169-.675-.599-1.152Zm-7.79-11.707a1.475 1.475 0 0 1 .127-.64c.09-.203.2-.35.357-.47a.795.795 0 0 1 .494-.175h.01c.178 0 .332.053.489.167.158.116.273.26.365.463.094.199.142.416.142.636.002.235-.039.435-.128.639a1.228 1.228 0 0 1-.18.299l-.074-.033a7.09 7.09 0 0 0-.237-.096c-.07-.027-.123-.044-.18-.064.04-.05.122-.108.15-.181a.94.94 0 0 0 .072-.347l.002-.016a.95.95 0 0 0-.05-.337.634.634 0 0 0-.155-.263.313.313 0 0 0-.223-.101h-.01a.324.324 0 0 0-.218.086.62.62 0 0 0-.174.25.945.945 0 0 0-.071.348l-.002.015a.993.993 0 0 0 .014.2 2.46 2.46 0 0 0-.507-.171 1.7 1.7 0 0 1-.014-.19v-.02h.002Zm-2.143.052a1.524 1.524 0 0 1 .064-.556.951.951 0 0 1 .238-.418.51.51 0 0 1 .349-.168h.03c.117 0 .224.04.334.127a.966.966 0 0 1 .284.389c.077.17.117.343.128.545v.002c.005.08.005.162-.002.243l-.069.02c-.127.045-.23.094-.328.159a.842.842 0 0 0 .003-.214v-.012a.95.95 0 0 0-.068-.274.522.522 0 0 0-.138-.203.223.223 0 0 0-.152-.064h-.018a.221.221 0 0 0-.156.093.537.537 0 0 0-.101.223.913.913 0 0 0-.02.293l.002.012c.01.103.03.189.066.275a.528.528 0 0 0 .167.224c-.06.045-.098.078-.146.113l-.11.08a.995.995 0 0 1-.23-.341 1.528 1.528 0 0 1-.127-.546v-.002Zm.155 1.228c.187-.14.315-.234.402-.298.085-.063.12-.086.147-.112h.002c.14-.132.362-.374.699-.49.115-.04.245-.065.39-.066.274-.001.607.089 1.01.348.247.16.439.174.882.363.214.087.339.202.4.32.06.12.063.25.011.388-.103.273-.429.562-.886.705h-.002c-.224.072-.418.233-.647.364a1.449 1.449 0 0 1-.841.217 1.105 1.105 0 0 1-.374-.083 1.206 1.206 0 0 1-.27-.167c-.161-.131-.303-.295-.51-.416h-.002c-.333-.19-.515-.408-.573-.598-.057-.19-.003-.351.162-.475ZM10 20.36c-.046.624-.397.962-.937 1.086-.54.123-1.27 0-2-.381-.808-.427-1.768-.385-2.384-.514-.308-.064-.51-.161-.602-.341-.092-.18-.094-.494.102-1.028v-.002l.002-.002c.097-.3.025-.626-.021-.934-.047-.307-.07-.586.034-.781v-.002c.136-.26.333-.352.577-.44.245-.087.534-.156.764-.385v-.001l.002-.001c.212-.223.37-.503.557-.702.157-.167.314-.28.55-.28h.01c.04 0 .085.003.132.01.314.048.588.269.853.626l.762 1.389c.203.423.632.89.995 1.365.362.475.643.952.606 1.317H10Zm-.062-1.01a6.724 6.724 0 0 0-.333-.47 13.477 13.477 0 0 0-.23-.292c.152 0 .28-.024.385-.072a.485.485 0 0 0 .265-.274c.09-.242 0-.583-.287-.973-.29-.39-.778-.83-1.494-1.27-.527-.327-.821-.728-.96-1.164-.137-.436-.118-.907-.012-1.373.204-.894.729-1.762 1.063-2.308.09-.066.032.123-.34.81-.331.63-.952 2.082-.102 3.215a6.69 6.69 0 0 1 .538-2.398c.472-1.067 1.456-2.92 1.534-4.395.04.029.18.123.24.158.182.106.316.262.492.403.178.142.397.264.73.283l.093.003c.343 0 .61-.112.832-.24.242-.137.437-.291.618-.35h.002c.386-.122.694-.335.869-.585.302 1.186 1 2.897 1.45 3.733.239.443.715 1.385.92 2.52.13-.004.273.015.427.054.536-1.393-.456-2.892-.91-3.31-.184-.178-.191-.258-.101-.254.492.436 1.138 1.31 1.373 2.3.108.45.13.925.017 1.393.056.023.113.048.17.076.862.42 1.181.785 1.027 1.283-.05-.002-.1-.001-.147 0h-.015c.125-.395-.15-.687-.889-1.02-.764-.336-1.373-.303-1.476.379a1.341 1.341 0 0 0-.016.109c-.057.02-.114.045-.172.076-.359.197-.556.553-.665.99-.107.437-.14.964-.17 1.558-.018.298-.14.702-.265 1.129-1.25.897-2.986 1.283-4.461.276Zm9.627.057c-.524.317-1.456.593-2.05 1.313-.517.615-1.146.952-1.7.996-.554.044-1.032-.186-1.314-.752v-.001l-.002-.003c-.175-.333-.101-.858.045-1.412.147-.554.36-1.123.388-1.585v-.001c.03-.592.063-1.11.163-1.51.1-.398.256-.668.534-.82l.039-.02c.03.513.285 1.036.733 1.149.491.129 1.2-.292 1.498-.636.06-.002.118-.006.175-.007.262-.006.481.009.707.205h.002c.172.147.255.424.325.734.072.31.128.647.343.888.41.456.543.764.532.96-.012.198-.154.344-.418.502Z"></path>
     <path d="M11.738 6.76c.015.048.093.04.138.063.04.02.07.065.116.066.042 0 .107-.015.113-.057.008-.056-.073-.091-.126-.111-.067-.026-.153-.04-.216-.004-.014.008-.03.027-.025.043Zm-.46 0c-.016.048-.094.04-.14.063-.038.02-.07.065-.114.066-.042 0-.108-.015-.114-.057-.007-.056.074-.091.126-.111.067-.026.153-.04.217-.004.015.008.03.027.025.043Z"></path>
</svg>