<svg id="iconMenu" width="70" height="70" fill="currentColor" viewBox="0 0 24 24" xmlns="http://www.w3.org/2000/svg">
     <path d="M19.633 7.994c.013.175.013.349.013.523 0 5.325-4.053 11.46-11.46 11.46A11.38 11.38 0 0 1 2 18.169c.324.037.636.05.973.05a8.07 8.07 0 0 0 5.001-1.721 4.036 4.036 0 0 1-3.767-2.793c.249.037.499.062.761.062.361 0 .724-.05 1.061-.137a4.027 4.027 0 0 1-3.23-3.953v-.05a4.05 4.05 0 0 0 1.82.51 4.022 4.022 0 0 1-1.796-3.353c0-.748.199-1.434.548-2.032a11.457 11.457 0 0 0 8.306 4.215c-.062-.3-.1-.611-.1-.923a4.024 4.024 0 0 1 4.028-4.028c1.16 0 2.207.486 2.943 1.272a7.957 7.957 0 0 0 2.556-.973c-.3.93-.93 1.72-1.771 2.22a8.074 8.074 0 0 0 2.319-.624 8.646 8.646 0 0 1-2.019 2.083Z"></path>
</svg>