<svg id="iconMenu" width="70" height="70" fill="currentColor" viewBox="0 0 24 24" xmlns="http://www.w3.org/2000/svg">
     <path d="M12 2C6.486 2 2 6.486 2 12s4.486 10 10 10 10-4.486 10-10S17.514 2 12 2ZM8.507 15a1.494 1.494 0 1 1-.076-2.987A1.494 1.494 0 0 1 8.507 15Zm4.301-6.919a4.108 4.108 0 0 0-1.616 0 4.12 4.12 0 0 0-.751.233c-.234.1-.463.224-.678.368-.425.29-.791.656-1.08 1.082L7.024 8.646a6.026 6.026 0 0 1 2.639-2.175c.364-.153.742-.27 1.128-.35a6.061 6.061 0 0 1 2.415 0 5.919 5.919 0 0 1 2.148.903 6.077 6.077 0 0 1 1.621 1.622l-1.658 1.117a3.994 3.994 0 0 0-.488-.59 3.988 3.988 0 0 0-2.021-1.092ZM15.5 15a1.5 1.5 0 1 1 0-3 1.5 1.5 0 0 1 0 3Z"></path>
</svg>