<svg id="iconMenu" width="70" height="70" fill="currentColor" viewBox="0 0 24 24" xmlns="http://www.w3.org/2000/svg">
     <path d="M8 12.049c1.995 0 3.5-1.505 3.5-3.5s-1.505-3.5-3.5-3.5-3.5 1.505-3.5 3.5 1.505 3.5 3.5 3.5Zm1 .948H7c-2.757 0-5 2.243-5 5v1h12v-1c0-2.757-2.243-5-5-5Zm9.364-10.364L16.95 4.047A6.962 6.962 0 0 1 19 8.997a6.962 6.962 0 0 1-2.05 4.95l1.414 1.414A8.944 8.944 0 0 0 21 8.997a8.944 8.944 0 0 0-2.636-6.364Z"></path>
     <path d="m15.535 5.46-1.414 1.417c.567.565.88 1.318.88 2.12s-.313 1.555-.88 2.12l1.414 1.416A4.967 4.967 0 0 0 17 8.997a4.967 4.967 0 0 0-1.465-3.536Z"></path>
</svg>