<svg id="iconMenu" width="70" height="70" fill="currentColor" viewBox="0 0 24 24" xmlns="http://www.w3.org/2000/svg">
     <path d="M16.539 9.189a4.155 4.155 0 0 0-1.451-.251c-1.6 0-2.73.806-2.738 1.963-.01.85.803 1.329 1.418 1.613.631.292.842.476.84.737-.004.397-.504.577-.969.577-.639 0-.988-.09-1.525-.312l-.199-.093-.227 1.332c.389.162 1.09.3 1.814.313 1.701 0 2.813-.801 2.826-2.032.014-.68-.426-1.192-1.352-1.616-.563-.275-.912-.46-.912-.738 0-.247.299-.511.924-.511.416-.01.83.068 1.213.229l.15.067.227-1.287-.039.009Zm4.152-.143h-1.25c-.389 0-.682.107-.852.493l-2.404 5.446h1.701l.34-.893 2.076.002c.049.209.199.89.199.89h1.5l-1.31-5.938Zm-10.642-.05h1.621l-1.014 5.942H9.037l1.012-5.944v.002ZM5.934 12.27l.168.825 1.584-4.05h1.717l-2.551 5.93H5.14l-1.4-5.021a.339.339 0 0 0-.149-.2 6.947 6.947 0 0 0-1.592-.588l.022-.125h2.61c.353.014.638.125.733.503l.57 2.729v-.003h.001Zm12.757.606.646-1.662c-.008.018.133-.343.215-.566l.111.513.375 1.714H18.69h.001Z"></path>
</svg>