<svg id="iconMenu" width="70" height="70" fill="currentColor" viewBox="0 0 24 24" xmlns="http://www.w3.org/2000/svg">
     <path d="M4 22h16a1 1 0 0 0 1-1V5c0-1.654-1.346-3-3-3H6C4.346 2 3 3.346 3 5v16a1 1 0 0 0 1 1ZM18 3.924a1 1 0 1 1 0 2 1 1 0 0 1 0-2Zm-3 0a1 1 0 1 1 0 2 1 1 0 0 1 0-2ZM12 7c3.309 0 6 2.691 6 6s-2.691 6-6 6-6-2.691-6-6 2.691-6 6-6Z"></path>
     <path d="M12.766 16.93c1.4-.261 2.571-1.315 3.023-2.665a3.853 3.853 0 0 0-.153-2.893.482.482 0 0 0-.544-.266c-.604.149-1.019.448-1.5.8-.786.578-1.765 1.295-3.592 1.295-.813 0-1.45-.146-1.984-.354l-.013.009a4.006 4.006 0 0 0 4.763 4.074Z"></path>
</svg>