<svg id="iconMenu" width="70" height="70" fill="currentColor" viewBox="0 0 24 24" xmlns="http://www.w3.org/2000/svg">
     <path d="M12.043 6.922a4.985 4.985 0 0 0-4.219 7.628l.118.188-.503 1.837 1.885-.494.181.108a4.97 4.97 0 0 0 2.535.693h.002a4.986 4.986 0 0 0 4.603-6.885 4.946 4.946 0 0 0-1.08-1.615 4.946 4.946 0 0 0-3.521-1.46Zm2.929 7.118c-.125.35-.723.668-1.01.71a2.045 2.045 0 0 1-.944-.058 8.504 8.504 0 0 1-.853-.315c-1.501-.648-2.482-2.16-2.558-2.26-.074-.1-.61-.812-.61-1.548 0-.737.386-1.1.523-1.25a.552.552 0 0 1 .4-.185c.1 0 .2 0 .287.005.092.004.215-.035.336.257.126.3.426 1.036.463 1.11.037.075.062.163.012.263s-.074.162-.15.25c-.074.088-.157.195-.223.263-.075.074-.153.155-.066.305.087.149.387.64.832 1.037.572.51 1.055.667 1.204.743.15.074.236.063.325-.038.087-.101.373-.437.474-.586.1-.15.199-.125.337-.076.136.05.873.412 1.022.487.148.074.248.112.287.175.035.062.035.36-.088.71Z"></path>
     <path d="M20 3H4a1 1 0 0 0-1 1v16a1 1 0 0 0 1 1h16a1 1 0 0 0 1-1V4a1 1 0 0 0-1-1Zm-7.96 14.896h-.002c-1 0-1.984-.25-2.862-.729L6 18l.85-3.104a5.991 5.991 0 0 1 5.19-8.983 5.95 5.95 0 0 1 4.238 1.757 5.95 5.95 0 0 1 1.751 4.237 5.998 5.998 0 0 1-5.989 5.989Z"></path>
</svg>