<svg id="iconMenu" width="70" height="70" fill="currentColor" viewBox="0 0 24 24" xmlns="http://www.w3.org/2000/svg">
     <path d="M4 11h6a1 1 0 0 0 1-1V4a1 1 0 0 0-1-1H4a1 1 0 0 0-1 1v6a1 1 0 0 0 1 1Zm0 10h6a1 1 0 0 0 1-1v-6a1 1 0 0 0-1-1H4a1 1 0 0 0-1 1v6a1 1 0 0 0 1 1Zm10 0h6a1 1 0 0 0 1-1v-6a1 1 0 0 0-1-1h-6a1 1 0 0 0-1 1v6a1 1 0 0 0 1 1Zm7.293-14.707-3.586-3.586a1 1 0 0 0-1.414 0l-3.586 3.586a1 1 0 0 0 0 1.414l3.586 3.586a1.001 1.001 0 0 0 1.414 0l3.586-3.586a1 1 0 0 0 0-1.414Z"></path>
</svg>