<svg id="iconMenu" width="70" height="70" fill="currentColor" viewBox="0 0 24 24" xmlns="http://www.w3.org/2000/svg">
     <path d="M12.081 12.93c-.78 1.61-1.849 3.791-2.379 4.776-.513.896-.94.776-1.278.024-1.172-2.77-3.58-7.626-4.712-10.347-.209-.502-.367-.823-.516-.95-.151-.125-.462-.2-.936-.227-.174-.02-.26-.061-.26-.131v-.38l.043-.037c.771-.004 4.503 0 4.503 0l.042.038v.362c0 .1-.063.147-.188.147l-.47.024c-.403.026-.605.137-.605.365 0 .112.044.275.139.5.902 2.207 4.017 8.773 4.017 8.773l.114.038 2.01-4.011-.402-.89L9.82 8.283s-.265-.545-.357-.727C8.856 6.353 8.87 6.29 8.257 6.209c-.173-.02-.261-.042-.261-.125v-.39l.05-.037h3.578l.095.03v.376c0 .088-.063.125-.189.125l-.257.039c-.66.05-.551.318-.113 1.186l1.319 2.711 1.465-2.921c.244-.533.194-.668.093-.79-.058-.07-.255-.184-.677-.2l-.168-.017a.191.191 0 0 1-.121-.043.125.125 0 0 1-.056-.107v-.357l.051-.037c1.04-.007 3.371 0 3.371 0l.05.037v.364c0 .1-.05.148-.161.148-.539.024-.652.079-.854.366-.1.154-.313.49-.538.865l-1.919 3.563-.054.112 2.328 4.763.142.04 3.665-8.703c.129-.352.107-.602-.053-.746-.165-.144-.289-.228-.716-.246l-.35-.014a.211.211 0 0 1-.127-.037.129.129 0 0 1-.06-.1v-.361l.049-.038h4.137l.034.038v.364c0 .1-.062.15-.174.15-.541.024-.94.15-1.203.35-.263.214-.465.515-.614.89 0 0-3.371 7.72-4.524 10.29-.438.84-.878.765-1.253-.026-.477-.977-1.478-3.156-2.206-4.761l.045-.03Z"></path>
</svg>