<svg id="iconMenu" width="70" height="70" fill="currentColor" viewBox="0 0 24 24" xmlns="http://www.w3.org/2000/svg">
     <path d="M13.444 8.259c-.4.212-.544.562-.544 1.53 0 0 .202-.194.5-.303a2.01 2.01 0 0 0 .511-.275c.338-.247.385-.562.385-1.096 0 0-.553-.016-.852.144Zm-2.349.229c-.32.286-.418.739-.418.739L9.6 13.367l-.89-3.393c-.087-.355-.246-.808-.495-1.107-.31-.378-.944-.401-1.015-.401-.068 0-.709.023-1.026.407-.246.303-.406.75-.493 1.108l-.889 3.395-1.066-4.147s-.092-.46-.418-.74c-.529-.464-1.314-.366-1.314-.366l2.048 7.764s.677.052 1.015-.126c.441-.224.66-.401.93-1.463.24-.94.911-3.704.973-3.905.03-.098.07-.332.241-.332.18 0 .214.229.241.332.064.195.73 2.965.976 3.905.268 1.055.481 1.227.93 1.463.337.178 1.014.126 1.014.126l2.048-7.76c-.002 0-.789-.098-1.315.362Zm3.201.9s-.129.195-.42.367c-.188.104-.367.178-.562.27-.323.155-.414.333-.414.596v5.266s.522.063.854-.104c.436-.222.533-.435.541-1.404V9.388h.001Zm5.112 2.632 2.6-3.875s-1.097-.19-1.642.309c-.35.315-.738.885-.738.885l-.952 1.386c-.053.069-.104.15-.2.15-.099 0-.16-.075-.202-.15l-.962-1.382s-.385-.568-.74-.884c-.54-.5-1.64-.31-1.64-.31l2.602 3.865-2.603 3.858s1.146.149 1.688-.35c.35-.315.688-.837.688-.837l.95-1.383c.053-.068.104-.147.2-.147.1 0 .161.075.202.147l.952 1.383s.355.51.7.837c.538.499 1.667.35 1.667.35l-2.57-3.852Z"></path>
</svg>