<svg id="iconMenu" width="70" height="70" fill="currentColor" viewBox="0 0 24 24" xmlns="http://www.w3.org/2000/svg">
     <path d="M19.891 7.789a8.966 8.966 0 0 1 1.099 4.313 8.986 8.986 0 0 1-4.47 7.77l2.746-7.938c.513-1.282.684-2.31.684-3.22 0-.31-.02-.618-.059-.925Zm-6.651.087c.343-.017.685-.047 1.026-.088.485-.063.428-.775-.056-.75 0 0-1.463.113-2.4.113-.887 0-2.375-.125-2.375-.125-.487-.024-.55.713-.061.738 0 0 .449.052.938.075l1.399 3.838-1.975 5.899-3.274-9.724c.343-.018.686-.045 1.028-.083.487-.063.43-.775-.055-.747 0 0-1.455.115-2.395.115-.167 0-.365-.007-.575-.013C6.093 4.727 8.862 3.114 12 3.114c2.341 0 4.471.894 6.071 2.36-.038-.002-.076-.008-.117-.008-.883 0-1.51.77-1.51 1.596 0 .74.427 1.369.883 2.108.343.6.742 1.37.742 2.48 0 .764-.295 1.663-.685 2.9l-.896 2.987-3.25-9.675.002.014ZM12 21.088c-.86 0-1.715-.122-2.54-.364l2.697-7.838 2.763 7.572c.021.044.042.085.065.124A9.017 9.017 0 0 1 12 21.09v-.002Zm-8.99-8.986a8.94 8.94 0 0 1 .778-3.658l4.287 11.749a8.993 8.993 0 0 1-5.065-8.091Zm8.99-10c-5.513 0-10 4.487-10 10s4.487 10 10 10 10-4.487 10-10-4.487-10-10-10"></path>
</svg>