<svg id="iconMenu" width="70" height="70" fill="currentColor" viewBox="0 0 24 24" xmlns="http://www.w3.org/2000/svg">
     <path d="M19.062 4.938A9.942 9.942 0 0 0 12.016 2h-.026a9.94 9.94 0 0 0-7.071 2.938c-3.898 3.898-3.898 10.243 0 14.143a9.937 9.937 0 0 0 7.07 2.938 9.935 9.935 0 0 0 7.072-2.938c3.9-3.899 3.9-10.243 0-14.143ZM13.5 15a1.5 1.5 0 1 1-.001 3 1.5 1.5 0 0 1 0-3ZM6.333 6.353A7.953 7.953 0 0 1 11.99 4l.026.001c1.652.008 3.242 1.066 3.55 2.371.366 1.552-1.098 3.278-4.018 4.737-5.113 2.555-5.312 5.333-4.975 6.762l.008.021c-.082-.075-.17-.146-.25-.226-3.117-3.119-3.117-8.194.002-11.313Z"></path>
     <path d="M10.5 9a1.5 1.5 0 1 0 0-3 1.5 1.5 0 0 0 0 3Z"></path>
</svg>