<svg id="iconMenu" width="70" height="70" fill="currentColor" viewBox="0 0 24 24" xmlns="http://www.w3.org/2000/svg">
     <path d="M18 8.311c-.36-.41-.73-.82-1.12-1.21l-.29-.27.14-.12a3.15 3.15 0 0 0 .9-3.49A3.91 3.91 0 0 0 14 1.001v2a2 2 0 0 1 1.76 1c.17.4 0 .84-.47 1.31-.07.08-.15.13-.22.2-3-2.41-6.29-3.77-7.9-2.16a2.16 2.16 0 0 0-.41.59v.1l-.18.53-4.41 13.1a3.28 3.28 0 0 0 3.11 4.33 3.21 3.21 0 0 0 1-.17L20 17.281a1 1 0 0 0 .43-.31l.21-.18c1.43-1.44.51-4.21-1.41-6.9a6.63 6.63 0 0 1 3.77-.89v-2a8.44 8.44 0 0 0-5 1.31ZM5.7 19.931a1.29 1.29 0 0 1-1.63-1.63l1.36-4.1a10.7 10.7 0 0 0 4.29 4.39l-4.02 1.34Zm7-2.33a8.87 8.87 0 0 1-6.3-6.29l1-3 .06.09c.11.22.25.45.39.68.14.23.16.29.26.44.1.15.33.48.51.73s.19.28.3.42c.11.14.43.55.66.82l.29.35c.34.39.7.77 1.08 1.16.38.39.68.64 1 1l.33.28.78.63.37.28c.28.2.55.4.83.58l.31.2c.36.22.72.43 1.07.61h.05l-2.99 1.02Zm6.51-2.23h-.06c-.69.38-3.56-.57-6.79-3.81-.34-.34-.66-.67-.95-1l-.29-.35-.53-.64-.29-.4c-.13-.19-.27-.37-.39-.55l-.26-.42-.29-.47c-.08-.14-.14-.27-.21-.4-.07-.13-.15-.26-.21-.4a3.31 3.31 0 0 1-.14-.36c-.05-.13-.11-.26-.15-.38-.04-.12-.05-.19-.08-.31s-.05-.22-.07-.32a2.26 2.26 0 0 1 0-.26 1 1 0 0 1 0-.24l.11-.31c.36-.36 2.23 0 4.73 1.9a4.13 4.13 0 0 1-1.34.35v2a6.45 6.45 0 0 0 3-.94l.48.46c.42.42.81.85 1.18 1.28a5.32 5.32 0 0 0-.6 3.4l2-.39a3.566 3.566 0 0 1 0-1.12c.305.463.576.948.81 1.45.56 1.32.52 2.06.34 2.23Z"></path>
</svg>