<svg id="iconMenu" width="70" height="70" fill="currentColor" viewBox="0 0 24 24" xmlns="http://www.w3.org/2000/svg">
     <path d="M18.404 3.001c-.757-.754-2.077-.75-2.828.005l-1.784 1.791-2.206 2.206H7a.998.998 0 0 0-.939.658l-4 11c-.133.365-.042.774.232 1.05l2 2a.997.997 0 0 0 1.05.231l11-4a.998.998 0 0 0 .657-.939v-4.586l2.207-2.207h.001L21 8.411c.378-.378.586-.88.585-1.415 0-.535-.209-1.038-.588-1.415l-2.593-2.58Zm-3.11 8.295a.997.997 0 0 0-.294.707v4.3l-9.249 3.363 4.671-4.67c.026 0 .052.007.078.007a1.5 1.5 0 1 0-1.5-1.5c0 .026.007.052.008.078l-4.67 4.671L7.7 9.003H12c.266 0 .52-.105.707-.293L14.5 6.917l2.586 2.586-1.793 1.793Zm3.205-3.208-2.586-2.586 1.08-1.084L19.584 7 18.5 8.09Z"></path>
</svg>