<svg id="iconMenu" width="70" height="70" fill="currentColor" viewBox="0 0 24 24" xmlns="http://www.w3.org/2000/svg">
     <path d="M16.712 13.289a.998.998 0 0 0-1.414 0l-1.597 1.596c-.824-.245-2.166-.771-2.99-1.596-.874-.874-1.374-2.253-1.594-2.992l1.594-1.594a1 1 0 0 0 0-1.414l-4-4a1.03 1.03 0 0 0-1.414 0l-2.709 2.71c-.382.38-.597.904-.588 1.437.022 1.423.396 6.367 4.297 10.268 3.898 3.897 8.845 4.274 10.27 4.297h.027c.528 0 1.027-.208 1.405-.586l2.712-2.712a1 1 0 0 0 0-1.414l-3.999-4ZM16.585 20c-1.248-.021-5.518-.356-8.874-3.712-3.368-3.368-3.692-7.652-3.71-8.874L6.003 5.41 8.59 7.996 7.297 9.289a.998.998 0 0 0-.27.912c.023.115.61 2.842 2.27 4.502 1.66 1.66 4.387 2.247 4.502 2.27a.994.994 0 0 0 .912-.27l1.293-1.293 2.586 2.586L16.585 20Z"></path>
     <path d="m15.795 6.792-2.79-2.79v6.994H20l-2.791-2.79 4.503-4.503-1.414-1.414-4.503 4.503Z"></path>
</svg>