<svg id="iconMenu" width="70" height="70" fill="currentColor" viewBox="0 0 24 24" xmlns="http://www.w3.org/2000/svg">
     <path d="M16.57 22.002a2 2 0 0 0 1.43-.59l2.71-2.71a1 1 0 0 0 0-1.41l-4-4a1 1 0 0 0-1.41 0l-1.6 1.59a7.55 7.55 0 0 1-3-1.59 7.62 7.62 0 0 1-1.59-3l1.59-1.6a1 1 0 0 0 0-1.41l-4-4a1 1 0 0 0-1.41 0l-2.7 2.72A2 2 0 0 0 2 7.432a15.28 15.28 0 0 0 4.3 10.27 15.28 15.28 0 0 0 10.27 4.3ZM6 5.412l2.59 2.59-1.29 1.29a1 1 0 0 0-.3.91 10.12 10.12 0 0 0 2.3 4.5 10.08 10.08 0 0 0 4.5 2.3 1 1 0 0 0 .91-.27l1.29-1.32 2.59 2.59-2 2a13.28 13.28 0 0 1-8.87-3.71A13.28 13.28 0 0 1 4 7.412l2-2Zm14 5.59h2a8.809 8.809 0 0 0-9-9v2a6.77 6.77 0 0 1 7 7Z"></path>
     <path d="M13 8c2.1 0 3 .9 3 3h2c0-3.22-1.78-5-5-5v2Z"></path>
</svg>