<svg id="iconMenu" width="70" height="70" fill="currentColor" viewBox="0 0 24 24" xmlns="http://www.w3.org/2000/svg">
     <path d="M16.712 13.285a.998.998 0 0 0-1.414 0l-1.594 1.594c-.739-.22-2.118-.72-2.992-1.594-.874-.874-1.374-2.253-1.594-2.992L10.712 8.7a.998.998 0 0 0 0-1.414l-4-4a1 1 0 0 0-1.414 0L2.586 5.997c-.38.38-.594.902-.586 1.435.023 1.424.4 6.37 4.298 10.268 3.898 3.898 8.844 4.274 10.268 4.297h.028c.528 0 1.027-.208 1.405-.586l2.712-2.712a.998.998 0 0 0 0-1.414l-3.999-4Zm-.127 6.712c-1.248-.02-5.518-.356-8.873-3.712C4.346 12.92 4.02 8.635 4 7.411l2.005-2.005 2.586 2.586-1.293 1.293a1 1 0 0 0-.272.912c.024.115.611 2.842 2.271 4.502 1.66 1.66 4.387 2.247 4.502 2.271a.992.992 0 0 0 .912-.27l1.293-1.294 2.586 2.586-2.005 2.005Z"></path>
     <path d="m16.795 5.788-4.497 4.497 1.414 1.414 4.497-4.497 2.796 2.795V2.992H14l2.795 2.796Z"></path>
</svg>