<svg id="iconMenu" width="70" height="70" fill="currentColor" viewBox="0 0 24 24" xmlns="http://www.w3.org/2000/svg">
     <path d="M12 2a9.936 9.936 0 0 0-7.071 2.929A9.936 9.936 0 0 0 2 12c0 2.67 1.04 5.182 2.929 7.071A9.936 9.936 0 0 0 12 22c2.67 0 5.182-1.04 7.071-2.929A9.936 9.936 0 0 0 22 12c0-2.67-1.04-5.182-2.929-7.071A9.936 9.936 0 0 0 12 2Zm5.657 15.657A7.948 7.948 0 0 1 12 20a7.948 7.948 0 0 1-5.657-2.343A7.948 7.948 0 0 1 4 12c0-2.137.832-4.146 2.343-5.657A7.927 7.927 0 0 1 11 4.069V12a1 1 0 0 0 1 1h7.931a7.927 7.927 0 0 1-2.274 4.657ZM13 11V4.062a7.945 7.945 0 0 1 4.657 2.281A7.934 7.934 0 0 1 19.938 11H13Z"></path>
</svg>