<svg id="iconMenu" width="70" height="70" fill="currentColor" viewBox="0 0 24 24" xmlns="http://www.w3.org/2000/svg">
     <path d="M12.01 14a2 2 0 1 0 0-4 2 2 0 0 0 0 4Z"></path>
     <path d="M11.01 22h2l.5-7h-3l.5 7Z"></path>
     <path d="M12 2a10 10 0 0 0-2.45 19.68l-.15-2.12a8 8 0 1 1 5.21 0l-.15 2.12A10 10 0 0 0 12 2Z"></path>
     <path d="M15.32 9.613c.148.212.272.44.37.68.102.241.179.493.23.75a3.667 3.667 0 0 1 0 1.61 3.869 3.869 0 0 1-.6 1.43 4.7 4.7 0 0 1-.35.43l-.19 2.62c.2-.091.393-.195.58-.31a5.86 5.86 0 0 0 1.64-1.62c.217-.314.401-.649.55-1 .154-.364.271-.743.35-1.13a6.06 6.06 0 0 0 .1-1.23 6.228 6.228 0 0 0-.13-1.21 6.091 6.091 0 0 0-.87-2.14 6.298 6.298 0 0 0-.73-.89 5.677 5.677 0 0 0-.89-.73 6.306 6.306 0 0 0-1-.56 6.171 6.171 0 0 0-1.17-.31 6.11 6.11 0 0 0-2.41 0 5.51 5.51 0 0 0-1.13.36 5.57 5.57 0 0 0-1 .55 5.67 5.67 0 0 0-.89.73 6.29 6.29 0 0 0-.78.85 6.09 6.09 0 0 0-.9 2.14 6.21 6.21 0 0 0-.1 1.21c0 .406.04.812.12 1.21.078.387.195.766.35 1.13.148.351.333.686.55 1a6.24 6.24 0 0 0 1.62 1.62c.187.115.38.218.58.31l-.22-2.6a4.697 4.697 0 0 1-.35-.43 3.439 3.439 0 0 1-.37-.68 3.831 3.831 0 0 1-.23-.75 3.65 3.65 0 0 1-.05-.81 3.56 3.56 0 0 1 .08-.8 3.83 3.83 0 0 1 .23-.75c.097-.24.221-.468.37-.68a3.87 3.87 0 0 1 1.09-1.09 3.44 3.44 0 0 1 .68-.37c.24-.106.492-.186.75-.24a4.36 4.36 0 0 1 1.61 0c.257.054.509.134.75.24.48.188.912.478 1.27.85.185.184.35.389.49.61Z"></path>
</svg>