<svg id="iconMenu" width="70" height="70" fill="currentColor" viewBox="0 0 24 24" xmlns="http://www.w3.org/2000/svg">
     <path d="m21.224 15.546-.813-1.464-1.748.972.812 1.461c.048.085.082.173.104.264a.987.987 0 0 1-.118.735.978.978 0 0 1-.86.489h-4.6v-2l-4 3 4 3v-2h4.6c.278 0 .552-.037.811-.109a2.95 2.95 0 0 0 1.32-.776 2.98 2.98 0 0 0 .455-.593 2.992 2.992 0 0 0 .336-2.215 3.164 3.164 0 0 0-.299-.764ZM5.862 11.042l-2.31 4.62a2.997 2.997 0 0 0 .59 3.49c.178.174.376.326.595.453.457.261.973.398 1.5.398H8v-2H6.236a.975.975 0 0 1-.853-.479 1 1 0 0 1-.149-.468.933.933 0 0 1 .018-.245c.018-.087.048-.173.09-.256l2.255-4.512 1.6.923-.599-4.963L4 9.967l1.862 1.075Zm12.736 1.925.598-4.964-1.638.945-2.843-5.117a2.95 2.95 0 0 0-1.913-1.459 3.227 3.227 0 0 0-.772-.083c-.529.01-1.045.16-1.498.433A2.967 2.967 0 0 0 9.41 3.947l-.732 1.464 1.79.895.731-1.465c.045-.09.101-.17.166-.242a.933.933 0 0 1 .443-.27c.173-.048.355-.052.53-.01a.962.962 0 0 1 .63.484l2.858 5.146L14 11.003l4.598 1.964Z"></path>
</svg>