<svg id="iconMenu" width="70" height="70" fill="currentColor" viewBox="0 0 24 24" xmlns="http://www.w3.org/2000/svg">
     <path d="M19.89 10.105a8.699 8.699 0 0 0-.789-1.456l-1.658 1.119c.478.71.813 1.507.987 2.345a6.662 6.662 0 0 1 0 2.648 6.5 6.5 0 0 1-.384 1.231 6.41 6.41 0 0 1-.603 1.112 6.656 6.656 0 0 1-1.776 1.775 6.607 6.607 0 0 1-2.343.987 6.734 6.734 0 0 1-2.646 0 6.55 6.55 0 0 1-3.317-1.788 6.605 6.605 0 0 1-1.408-2.088 6.612 6.612 0 0 1-.382-1.23 6.627 6.627 0 0 1 .382-3.877c.33-.78.808-1.488 1.407-2.086a6.54 6.54 0 0 1 3.316-1.789c.107-.022.216-.032.324-.049V10l5-4-5-4v2.938a8.797 8.797 0 0 0-.725.111 8.566 8.566 0 0 0-4.33 14.445 8.55 8.55 0 0 0 11.486.563 8.576 8.576 0 0 0 2.958-4.895 8.645 8.645 0 0 0 0-3.45 8.695 8.695 0 0 0-.499-1.607Z"></path>
</svg>