<svg id="iconMenu" width="70" height="70" fill="currentColor" viewBox="0 0 24 24" xmlns="http://www.w3.org/2000/svg">
     <path d="M12.006 2.008a9.927 9.927 0 0 0-7.07 2.922c-3.899 3.899-3.899 10.243 0 14.142a9.931 9.931 0 0 0 7.07 2.923 9.93 9.93 0 0 0 7.071-2.923c3.898-3.898 3.898-10.242 0-14.142a9.928 9.928 0 0 0-7.07-2.922Zm5.657 15.649a7.946 7.946 0 0 1-5.657 2.337c-2.14 0-4.15-.83-5.657-2.337-3.118-3.12-3.118-8.194 0-11.313a7.944 7.944 0 0 1 5.657-2.336c2.141 0 4.15.829 5.657 2.336 3.118 3.119 3.118 8.194 0 11.313Z"></path>
     <path d="m11.467 11.125-3.214 3.214 1.414 1.414 3.214-3.214 2.125 2.124V9H9.343l2.124 2.125Z"></path>
</svg>