<svg id="iconMenu" width="70" height="70" fill="currentColor" viewBox="0 0 24 24" xmlns="http://www.w3.org/2000/svg">
     <path d="M12 2.008A9.928 9.928 0 0 0 4.93 4.93c-3.9 3.899-3.9 10.243 0 14.143A9.931 9.931 0 0 0 12 21.996a9.931 9.931 0 0 0 7.071-2.923c3.9-3.9 3.9-10.243 0-14.143a9.927 9.927 0 0 0-7.07-2.922Zm5.657 15.65A7.945 7.945 0 0 1 12 19.995c-2.14 0-4.15-.83-5.657-2.337-3.119-3.12-3.119-8.195 0-11.314A7.944 7.944 0 0 1 12 4.008c2.141 0 4.15.829 5.657 2.336 3.12 3.119 3.12 8.195 0 11.314Z"></path>
     <path d="M9.661 8.25 8.247 9.664l3.214 3.214-2.125 2.125H15V9.34l-2.125 2.124L9.661 8.25Z"></path>
</svg>