<svg id="iconMenu" width="70" height="70" fill="currentColor" viewBox="0 0 24 24" xmlns="http://www.w3.org/2000/svg">
     <path d="M20.92 2.381a15.719 15.719 0 0 0-3.42-.38 8.26 8.26 0 0 0-6 2.06 721.914 721.914 0 0 0-3.19 3.21c-1.21-.13-4.08-.2-6 1.74a1 1 0 0 0 0 1.41l11.3 11.32a1 1 0 0 0 1.41 0c1.95-2 1.89-4.82 1.77-6l3.21-3.2c3.19-3.19 1.74-9.18 1.68-9.43a1 1 0 0 0-.76-.73Zm-2.36 8.75L15 14.671a1 1 0 0 0-.27.9 6.81 6.81 0 0 1-.54 3.94l-9.67-9.69a6.67 6.67 0 0 1 4-.5 1 1 0 0 0 .87-.32s1.4-1.45 3.51-3.56a6.61 6.61 0 0 1 4.6-1.44c.781.004 1.56.07 2.33.2.24 1.43.62 5.04-1.27 6.93Z"></path>
     <path d="M15.73 10.297a2 2 0 1 0 0-4 2 2 0 0 0 0 4Z"></path>
     <path d="M5 16c-2 1-2 5-2 5a7.81 7.81 0 0 0 5-2l-3-3Z"></path>
</svg>