<svg id="iconMenu" width="70" height="70" fill="currentColor" viewBox="0 0 24 24" xmlns="http://www.w3.org/2000/svg">
     <path d="M16.242 17.242a6.034 6.034 0 0 1-1.37 1.027l.961 1.754a8.067 8.067 0 0 0 2.569-2.225l-1.6-1.201c-.17.228-.358.444-.56.645Zm1.743-4.671a5.973 5.973 0 0 1-.362 2.528l1.873.701a7.975 7.975 0 0 0 .483-3.371l-1.994.142Zm1.512-2.368a8.047 8.047 0 0 0-1.841-2.859l-1.414 1.414a6.069 6.069 0 0 1 1.382 2.146l1.873-.701Zm-8.128 8.763c-.047-.005-.094-.015-.141-.021a6.73 6.73 0 0 1-.468-.075 5.923 5.923 0 0 1-2.421-1.122 5.956 5.956 0 0 1-.583-.506 6.129 6.129 0 0 1-.516-.597 5.91 5.91 0 0 1-.891-1.634 6.084 6.084 0 0 1-.247-.902c-.008-.043-.012-.088-.019-.131A6.33 6.33 0 0 1 6 13.002V13c0-1.603.624-3.109 1.758-4.242A5.944 5.944 0 0 1 11 7.089V10l5-4-5-4v3.069a7.917 7.917 0 0 0-4.656 2.275A7.936 7.936 0 0 0 4 12.999v.009c0 .253.014.504.037.753.007.076.021.15.03.227.021.172.044.345.076.516.019.1.044.196.066.295.032.142.065.283.105.423.032.112.07.223.107.333.026.079.047.159.076.237l.008-.003A7.947 7.947 0 0 0 5.6 17.785l-.007.005c.021.028.049.053.07.081.211.272.433.538.681.785.3.296.624.57.966.816.265.192.537.372.821.529l.028.019.001-.001c.67.367 1.39.635 2.136.795l-.001.005.053.009c.201.042.405.071.61.098.069.009.138.023.207.03.846.089 1.7.042 2.532-.137l-.424-1.955a6.112 6.112 0 0 1-1.904.102Z"></path>
</svg>