<svg id="iconMenu" width="70" height="70" fill="currentColor" viewBox="0 0 24 24" xmlns="http://www.w3.org/2000/svg">
     <path d="M17 6a2 2 0 1 0 0-4 2 2 0 0 0 0 4Z"></path>
     <path d="M15.777 10.973a2.007 2.007 0 0 0 2.148.83l3.316-.83-.483-1.94-3.316.83-1.379-2.067a2.01 2.01 0 0 0-1.272-.854l-3.846-.77a1.998 1.998 0 0 0-2.181 1.067l-1.658 3.316 1.789.895 1.658-3.317 1.967.394-5.086 8.477H3v2h4.434c.698 0 1.355-.372 1.715-.971l1.918-3.196 5.169 1.034 1.816 5.449 1.896-.633-1.815-5.448a2.006 2.006 0 0 0-1.506-1.33l-3.039-.607 1.772-2.954.417.625Z"></path>
</svg>