<svg id="iconMenu" width="70" height="70" fill="currentColor" viewBox="0 0 24 24" xmlns="http://www.w3.org/2000/svg">
     <path d="M19.494 9.05a8.14 8.14 0 0 0-4.544-4.544A2.998 2.998 0 0 0 12 2a2.998 2.998 0 0 0-2.95 2.506A8.136 8.136 0 0 0 4.506 9.05 2.998 2.998 0 0 0 2 12a2.998 2.998 0 0 0 2.506 2.95 8.14 8.14 0 0 0 4.544 4.544A2.998 2.998 0 0 0 12 22a2.998 2.998 0 0 0 2.95-2.506 8.14 8.14 0 0 0 4.544-4.544A2.998 2.998 0 0 0 22 12a2.998 2.998 0 0 0-2.506-2.95ZM12 4a1 1 0 0 1 1 1c0 .06-.023.11-.034.167-.014.096-.042.19-.083.279-.014.027-.034.049-.051.075a1.063 1.063 0 0 1-.16.209c-.04.037-.09.062-.136.092-.054.036-.104.078-.165.103A.975.975 0 0 1 12 6a.975.975 0 0 1-.371-.075c-.061-.024-.111-.066-.165-.103-.046-.03-.096-.055-.136-.092a1.063 1.063 0 0 1-.16-.209c-.017-.026-.037-.048-.051-.075a1.027 1.027 0 0 1-.083-.279C11.023 5.11 11 5.06 11 5a1 1 0 0 1 1-1Zm-7 7c.06 0 .11.023.167.034.099.017.194.041.279.083.027.014.049.034.075.051.075.047.149.097.209.16.037.04.062.09.092.136.036.054.078.104.103.165A.975.975 0 0 1 6 12a.975.975 0 0 1-.075.371c-.024.061-.066.111-.103.165-.03.046-.055.096-.092.136-.06.063-.134.113-.209.16-.026.017-.048.037-.075.051-.089.04-.183.069-.279.083C5.11 12.977 5.06 13 5 13a1 1 0 0 1 0-2Zm7 9a1 1 0 0 1-1-1c0-.06.023-.11.034-.167.017-.099.041-.194.083-.279.014-.027.034-.049.051-.075.047-.075.097-.149.16-.209.04-.037.09-.062.136-.092.054-.036.104-.078.165-.103A.975.975 0 0 1 12 18c.132 0 .256.028.371.075.061.024.111.066.165.103.046.03.096.055.136.092.063.06.113.134.16.209.017.026.037.048.051.075.042.085.066.181.083.279.011.057.034.107.034.167a1 1 0 0 1-1 1Zm2.583-2.512c-.006-.011-.017-.019-.022-.029a3.008 3.008 0 0 0-.996-1.007c-.054-.033-.109-.06-.166-.09a2.9 2.9 0 0 0-.486-.205c-.064-.021-.128-.044-.194-.061A3.01 3.01 0 0 0 12 16c-.248 0-.486.039-.718.097-.066.017-.13.039-.195.061-.168.054-.33.122-.485.205-.056.029-.112.057-.166.09a3.007 3.007 0 0 0-.996 1.007c-.006.011-.017.019-.022.029a6.15 6.15 0 0 1-2.905-2.905c.011-.006.019-.017.029-.022.41-.247.755-.589 1.007-.996.033-.054.061-.11.09-.166.083-.154.15-.316.205-.485.021-.065.044-.129.061-.195.056-.234.095-.472.095-.72s-.039-.486-.097-.718a2.566 2.566 0 0 0-.061-.194 2.9 2.9 0 0 0-.205-.486c-.03-.057-.057-.112-.09-.166A3.007 3.007 0 0 0 6.54 9.44c-.01-.006-.018-.017-.028-.023a6.15 6.15 0 0 1 2.905-2.905c.006.01.017.018.022.029.248.411.588.755.996 1.007.054.033.11.061.166.09.155.083.316.15.486.205.064.021.128.044.194.061.233.057.47.096.719.096a2.94 2.94 0 0 0 .912-.158c.17-.055.331-.122.486-.205.056-.029.112-.057.166-.09.408-.252.748-.596.996-1.007.006-.011.017-.019.022-.029a6.15 6.15 0 0 1 2.905 2.905c-.011.006-.019.017-.029.022-.41.247-.755.589-1.007.996-.033.054-.061.11-.09.166-.083.155-.15.316-.205.486-.021.064-.044.128-.061.194-.06.235-.092.477-.095.72.004.31.058.618.158.912.055.17.122.331.205.486.029.056.057.112.09.166.252.408.596.748 1.007.996.011.006.019.017.029.022a6.144 6.144 0 0 1-2.906 2.906ZM19 13c-.06 0-.11-.023-.167-.034a1.015 1.015 0 0 1-.279-.083c-.027-.014-.049-.034-.075-.051a1.065 1.065 0 0 1-.209-.16c-.037-.04-.062-.09-.092-.136-.036-.054-.078-.104-.103-.165A.975.975 0 0 1 18 12c0-.132.028-.256.075-.371.024-.061.066-.111.103-.165.03-.046.055-.096.092-.136.06-.063.134-.113.209-.16.026-.017.048-.037.075-.051.085-.042.181-.066.279-.083.057-.011.107-.034.167-.034a1 1 0 0 1 0 2Z"></path>
</svg>