<svg id="iconMenu" width="70" height="70" fill="currentColor" viewBox="0 0 24 24" xmlns="http://www.w3.org/2000/svg">
     <path d="M18 15c-.183 0-.358.022-.532.054L8.946 6.532C8.978 6.359 9 6.182 9 6c0-1.654-1.346-3-3-3S3 4.346 3 6c0 1.302.839 2.401 2 2.815v6.369A2.997 2.997 0 0 0 3 18c0 1.654 1.346 3 3 3a2.994 2.994 0 0 0 2.815-2h6.369a2.994 2.994 0 0 0 2.815 2c1.654 0 3-1.346 3-3S19.654 15 18 15Zm-11 .184V8.816c.329-.118.629-.291.894-.508l7.799 7.799a2.97 2.97 0 0 0-.508.894h-6.37A2.99 2.99 0 0 0 7 15.184ZM6 5a1.001 1.001 0 1 1 .002 2.002A1.001 1.001 0 0 1 6 5Zm0 14a1 1 0 0 1 0-2 1 1 0 0 1 0 2Zm12 0a1 1 0 0 1 0-2 1 1 0 0 1 0 2Z"></path>
</svg>