<svg id="iconMenu" width="70" height="70" fill="currentColor" viewBox="0 0 24 24" xmlns="http://www.w3.org/2000/svg">
     <path d="m20.48 6.106-8-4a1 1 0 0 0-.895 0l-8 4a1.002 1.002 0 0 0-.547.795c-.011.107-.961 10.767 8.589 15.014a.99.99 0 0 0 .812 0c9.55-4.247 8.6-14.906 8.589-15.014a1.001 1.001 0 0 0-.548-.795Zm-8.447 13.792C5.265 16.626 4.943 9.643 4.999 7.636l7.034-3.517 7.029 3.515c.038 1.989-.328 9.018-7.03 12.264Z"></path>
     <path d="M14.293 8.297 12 10.59 9.707 8.297 8.293 9.71l2.293 2.293-2.293 2.293 1.414 1.414L12 13.418l2.293 2.293 1.414-1.414-2.293-2.293 2.293-2.293-1.414-1.414Z"></path>
</svg>