<svg id="iconMenu" width="70" height="70" fill="currentColor" viewBox="0 0 24 24" xmlns="http://www.w3.org/2000/svg">
     <path d="M21.438 5.086a1.002 1.002 0 0 0-.96.015c-.683.389-1.354.577-2.052.577-2.035 0-3.952-1.63-5.722-3.39-.375-.373-1.063-.373-1.438 0C9.592 3.956 7.598 5.66 5.51 5.66c-.69 0-1.351-.184-2.018-.561a1.006 1.006 0 0 0-.96-.012.994.994 0 0 0-.528.8c-.011.13-.944 12.873 9.683 16.042.092.027.189.042.286.042H12c.097 0 .192-.014.285-.041 10.657-3.17 9.695-15.916 9.684-16.044a1 1 0 0 0-.531-.8Zm-9.452 14.842c-6.98-2.255-7.934-9.412-8.014-12.477.505.14 1.019.209 1.537.209 2.492 0 4.65-1.567 6.476-3.283 1.893 1.788 3.983 3.3 6.442 3.3.53 0 1.057-.073 1.575-.22-.074 3.066-1.021 10.218-8.016 12.47Z"></path>
</svg>