<svg id="iconMenu" width="70" height="70" fill="currentColor" viewBox="0 0 24 24" xmlns="http://www.w3.org/2000/svg">
     <path d="M12 2C6.486 2 2 6.486 2 12s4.486 10 10 10 10-4.486 10-10S17.514 2 12 2Zm0 18c-4.411 0-8-3.589-8-8s3.589-8 8-8 8 3.589 8 8-3.589 8-8 8Z"></path>
     <path d="M14.83 14.826a4.002 4.002 0 0 1-6.147-.592l-1.659 1.12a6.065 6.065 0 0 0 1.621 1.62c.65.439 1.38.746 2.148.902a6.043 6.043 0 0 0 2.415 0 5.973 5.973 0 0 0 3.034-1.634c.272-.27.52-.57.734-.889l-1.658-1.119a3.905 3.905 0 0 1-.489.592Z"></path>
     <path d="M8.5 12a1.5 1.5 0 1 0 0-3 1.5 1.5 0 0 0 0 3Z"></path>
     <path d="M15.493 11.986a1.493 1.493 0 1 0 0-2.986 1.493 1.493 0 0 0 0 2.986Z"></path>
</svg>