<svg id="iconMenu" width="70" height="70" fill="currentColor" viewBox="0 0 24 24" xmlns="http://www.w3.org/2000/svg">
     <path d="M12 14a2 2 0 1 0 0-4 2 2 0 0 0 0 4Z"></path>
     <path d="m7.758 16.245 1.414-1.415A3.97 3.97 0 0 1 8 11.999c0-1.068.417-2.071 1.173-2.825L7.758 7.758a5.957 5.957 0 0 0-1.76 4.24c0 1.604.625 3.112 1.76 4.247Zm8.484 0A5.96 5.96 0 0 0 18 12.002a5.962 5.962 0 0 0-1.758-4.243l-1.414 1.414A3.975 3.975 0 0 1 16 12.002a3.975 3.975 0 0 1-1.172 2.829l1.414 1.414Z"></path>
     <path d="M6.344 17.658a7.952 7.952 0 0 1-2.345-5.66c0-2.136.833-4.144 2.345-5.653L4.93 4.93a9.92 9.92 0 0 0-2.931 7.069 9.936 9.936 0 0 0 2.931 7.073l1.414-1.414ZM17.657 6.344A7.946 7.946 0 0 1 20 12a7.948 7.948 0 0 1-2.343 5.657l1.414 1.414A9.933 9.933 0 0 0 22 12a9.933 9.933 0 0 0-2.929-7.071l-1.414 1.414Z"></path>
</svg>