<svg id="iconMenu" width="70" height="70" fill="currentColor" viewBox="0 0 24 24" xmlns="http://www.w3.org/2000/svg">
     <path d="M22 5c0-1.654-1.346-3-3-3H5C3.346 2 2 3.346 2 5v2.831c0 1.053.382 2.01 1 2.746V19c0 1.103.897 2 2 2h14c1.103 0 2-.897 2-2v-8.424c.618-.735 1-1.692 1-2.746V5Zm-2 0v2.831c0 1.14-.849 2.112-1.891 2.167L18 10c-1.103 0-2-.897-2-2V4h3c.552 0 1 .449 1 1ZM10 4h4v4c0 1.103-.897 2-2 2s-2-.897-2-2V4ZM4 5c0-.551.448-1 1-1h3v4c0 1.103-.897 2-2 2l-.109-.003C4.849 9.943 4 8.971 4 7.831V5Zm6 14v-3h4v3h-4Zm6 0v-3c0-1.103-.897-2-2-2h-4c-1.103 0-2 .897-2 2v3H5v-7.131c.254.067.517.111.787.125A3.989 3.989 0 0 0 9 10.643 3.99 3.99 0 0 0 12 12a3.99 3.99 0 0 0 3-1.357 3.987 3.987 0 0 0 4 1.226V19h-3Z"></path>
</svg>