<svg id="iconMenu" width="70" height="70" fill="currentColor" viewBox="0 0 24 24" xmlns="http://www.w3.org/2000/svg">
     <path d="M12 6a2 2 0 1 0 0-4 2 2 0 0 0 0 4Z"></path>
     <path d="M12 18h2v-5h2V9c0-1.103-.897-2-2-2h-4c-1.103 0-2 .897-2 2v4h2v5h2Z"></path>
     <path d="m18.446 11.383-.893 1.789c1.555.775 2.447 1.805 2.447 2.825 0 1.892-3.285 4-8 4s-8-2.108-8-4c0-1.02.892-2.05 2.446-2.825l-.893-1.79C3.295 12.51 2 14.19 2 15.998c0 3.364 4.393 6 10 6s10-2.636 10-6c0-1.807-1.295-3.488-3.554-4.614Z"></path>
</svg>