<svg id="iconMenu" width="70" height="70" fill="currentColor" viewBox="0 0 24 24" xmlns="http://www.w3.org/2000/svg">
     <path d="M6.993 12A5.012 5.012 0 0 0 12 17.007 5.013 5.013 0 0 0 17.007 12 5.013 5.013 0 0 0 12 6.993 5.012 5.012 0 0 0 6.993 12ZM12 8.993A3.01 3.01 0 0 1 15.007 12 3.01 3.01 0 0 1 12 15.007 3.01 3.01 0 0 1 8.993 12 3.01 3.01 0 0 1 12 8.993ZM10.998 19h2v3h-2v-3Zm0-17h2v3h-2V2Zm-9 9h3v2h-3v-2Zm17 0h3v2h-3v-2ZM4.219 18.363l2.12-2.122 1.415 1.414-2.12 2.122-1.415-1.414ZM16.24 6.344l2.122-2.122 1.414 1.414-2.122 2.122-1.414-1.414ZM6.342 7.759 4.22 5.637l1.415-1.414 2.12 2.122-1.413 1.414Zm13.434 10.605-1.414 1.414-2.122-2.122 1.414-1.414 2.122 2.122Z"></path>
</svg>