<svg id="iconMenu" width="70" height="70" fill="currentColor" viewBox="0 0 24 24" xmlns="http://www.w3.org/2000/svg">
     <path d="M19.003 8.004a2.002 2.002 0 1 0 0-4.004 2.002 2.002 0 0 0 0 4.004Z"></path>
     <path d="M18.875 13.222c-.567.453-.978.781-1.878.781-.899 0-1.288-.311-1.876-.781-.68-.543-1.525-1.219-3.127-1.219-1.601 0-2.445.676-3.124 1.219-.588.47-.975.781-1.875.781-.898 0-1.286-.311-1.873-.78-.679-.544-1.522-1.22-3.122-1.22v2c.897 0 1.285.311 1.872.78.679.544 1.523 1.22 3.123 1.22 1.6 0 2.446-.676 3.125-1.22.587-.47.976-.78 1.874-.78.9 0 1.311.328 1.878.781.679.543 1.524 1.219 3.125 1.219 1.602 0 2.447-.676 3.127-1.219.588-.47.977-.781 1.876-.781v-2c-1.601 0-2.446.676-3.125 1.219Zm-1.878 5.781c-.899 0-1.288-.311-1.876-.781-.68-.543-1.525-1.219-3.127-1.219-1.601 0-2.445.676-3.124 1.219-.588.47-.975.781-1.875.781-.898 0-1.286-.311-1.873-.78-.679-.544-1.522-1.22-3.122-1.22v2c.897 0 1.285.311 1.872.78.679.544 1.523 1.22 3.123 1.22 1.6 0 2.446-.676 3.125-1.22.587-.47.976-.78 1.874-.78.9 0 1.311.328 1.878.781.679.543 1.524 1.219 3.125 1.219 1.602 0 2.447-.676 3.127-1.219.588-.47.977-.781 1.876-.781v-2c-1.601 0-2.446.676-3.125 1.219-.567.453-.978.781-1.878.781ZM11 5.422l2.104 2.104-2.057 2.57c.286-.056.596-.093.947-.093 1.602 0 2.447.676 3.127 1.219.588.47.977.781 1.876.781.9 0 1.311-.328 1.878-.781.132-.105.274-.217.423-.326l-2.096-2.09.005-.005-5.5-5.5a1 1 0 0 0-1.414 0l-4 4 1.414 1.414L11 5.422Z"></path>
</svg>