<svg id="iconMenu" width="70" height="70" fill="currentColor" viewBox="0 0 24 24" xmlns="http://www.w3.org/2000/svg">
     <path d="M4.93 19.081A9.937 9.937 0 0 0 12 22.019a9.935 9.935 0 0 0 7.071-2.938c3.9-3.899 3.9-10.243 0-14.143A9.94 9.94 0 0 0 12.001 2a9.94 9.94 0 0 0-7.072 2.938c-3.899 3.899-3.899 10.244 0 14.143Zm12.727-1.414a7.969 7.969 0 0 1-3.813 2.129c-.009-1.602.586-3.146 1.691-4.251 1.163-1.163 2.732-1.828 4.277-1.851a7.944 7.944 0 0 1-2.155 3.973Zm2.325-5.965c-2.124-.021-4.284.853-5.86 2.429-1.533 1.532-2.328 3.68-2.264 5.881a7.946 7.946 0 0 1-5.516-2.345 7.97 7.97 0 0 1-2.332-5.512c.077.002.154.014.231.014 2.115 0 4.16-.804 5.637-2.28 1.58-1.58 2.457-3.739 2.43-5.873a7.948 7.948 0 0 1 5.35 2.337 7.96 7.96 0 0 1 2.324 5.349ZM6.343 6.353a7.968 7.968 0 0 1 3.973-2.169c-.018 1.555-.685 3.124-1.85 4.291-1.105 1.103-2.643 1.696-4.239 1.691a7.929 7.929 0 0 1 2.116-3.813Z"></path>
</svg>