<svg id="iconMenu" width="70" height="70" fill="currentColor" viewBox="0 0 24 24" xmlns="http://www.w3.org/2000/svg">
     <path d="M12 14c-3 0-4 3-4 3h8s-1-3-4-3Z"></path>
     <path d="M12 2C6.486 2 2 6.486 2 12s4.486 10 10 10 10-4.486 10-10S17.514 2 12 2Zm0 18c-4.411 0-8-3.589-8-8s3.589-8 8-8 8 3.589 8 8-3.589 8-8 8Z"></path>
     <path d="m17.555 8.836-1.11-1.664-3 2a1.001 1.001 0 0 0 .109 1.727l4 2 .895-1.79-2.46-1.228 1.566-1.045Zm-6.557 1.23a1 1 0 0 0-.443-.894l-3-2-1.11 1.664L8.01 9.88l-2.46 1.229.896 1.789 4-2a1 1 0 0 0 .55-.832Z"></path>
</svg>