<svg id="iconMenu" width="70" height="70" fill="currentColor" viewBox="0 0 24 24" xmlns="http://www.w3.org/2000/svg">
     <path d="M8.5 16a1.5 1.5 0 1 0 0-3 1.5 1.5 0 0 0 0 3Z"></path>
     <path d="M15.5 16a1.5 1.5 0 1 0 0-3 1.5 1.5 0 0 0 0 3Z"></path>
     <path d="M18.87 3.34A3.55 3.55 0 0 0 16.38 2H7.62a3.47 3.47 0 0 0-2.5 1.35A4.32 4.32 0 0 0 4 6v12a1 1 0 0 0 1 1h2l-2 3h2.32L8 21h8l.68 1H19l-2-3h2a1 1 0 0 0 1-1V6a4.15 4.15 0 0 0-1.13-2.66ZM7.62 4h8.72c.4.097.753.33 1 .66.09.108.174.221.25.34H6.39a2.3 2.3 0 0 1 .25-.35A1.65 1.65 0 0 1 7.62 4ZM6 8V7h12v3H6V8Zm12 9H6v-5h12v5Z"></path>
</svg>