<svg id="iconMenu" width="70" height="70" fill="currentColor" viewBox="0 0 24 24" xmlns="http://www.w3.org/2000/svg">
     <path d="m16.949 14.125 2.122-2.121a5.008 5.008 0 0 0 0-7.071 5.006 5.006 0 0 0-7.071 0l-.707.707 1.414 1.414.707-.707a3.007 3.007 0 0 1 4.243 0 3.005 3.005 0 0 1 0 4.243l-2.122 2.12a2.7 2.7 0 0 1-.844.57l-1.277-1.276 1.414-1.414-.707-.707a4.966 4.966 0 0 0-3.535-1.465c-.235 0-.464.032-.691.066L3.707 2.297 2.293 3.71l18 18 1.414-1.414-5.536-5.536c.277-.184.538-.396.778-.636Zm-6.363 3.536a3.007 3.007 0 0 1-4.243 0 3.005 3.005 0 0 1 0-4.243l1.476-1.475-1.414-1.414-1.476 1.475a5.008 5.008 0 0 0 0 7.07 4.984 4.984 0 0 0 3.535 1.463A4.983 4.983 0 0 0 12 19.075l.707-.707-1.414-1.414-.707.707Z"></path>
</svg>