<svg id="iconMenu" width="70" height="70" fill="currentColor" viewBox="0 0 24 24" xmlns="http://www.w3.org/2000/svg">
     <path d="M12 2C6.486 2 2 6.486 2 12s4.486 10 10 10 10-4.486 10-10S17.514 2 12 2Zm0 18c-4.411 0-8-3.589-8-8s3.589-8 8-8 8 3.589 8 8-3.589 8-8 8Z"></path>
     <path d="M14.83 9.174c.18.18.345.38.487.592l1.658-1.12a6.062 6.062 0 0 0-1.62-1.62 5.964 5.964 0 0 0-2.149-.902 5.985 5.985 0 0 0-6.18 2.523l1.656 1.119a4.017 4.017 0 0 1 2.51-1.683 3.989 3.989 0 0 1 3.637 1.09Z"></path>
     <path d="M15.5 15a1.5 1.5 0 1 0 0-3 1.5 1.5 0 0 0 0 3Z"></path>
     <path d="M8.507 15.002a1.493 1.493 0 1 0 0-2.986 1.493 1.493 0 0 0 0 2.986Z"></path>
</svg>