<svg id="iconMenu" width="70" height="70" fill="currentColor" viewBox="0 0 24 24" xmlns="http://www.w3.org/2000/svg">
     <path d="M8 11.997c2.28 0 4-1.72 4-4 0-2.28-1.72-4-4-4-2.28 0-4 1.72-4 4 0 2.28 1.72 4 4 4Zm0-6c1.178 0 2 .822 2 2s-.822 2-2 2-2-.822-2-2 .822-2 2-2Zm1 7H7c-2.757 0-5 2.243-5 5v1h2v-1c0-1.654 1.346-3 3-3h2c1.654 0 3 1.346 3 3v1h2v-1c0-2.757-2.243-5-5-5Zm9.364-10.364L16.95 4.047A6.962 6.962 0 0 1 19 8.997a6.962 6.962 0 0 1-2.05 4.95l1.414 1.414A8.944 8.944 0 0 0 21 8.997a8.944 8.944 0 0 0-2.636-6.364Z"></path>
     <path d="m15.535 5.46-1.414 1.417c.567.565.88 1.318.88 2.12s-.313 1.555-.88 2.12l1.414 1.416A4.967 4.967 0 0 0 17 8.997a4.967 4.967 0 0 0-1.465-3.536Z"></path>
</svg>