<svg id="iconMenu" width="70" height="70" fill="currentColor" viewBox="0 0 24 24" xmlns="http://www.w3.org/2000/svg">
     <path d="m15.71 15.711 2.29-2.3 2.29 2.3 1.42-1.42-2.3-2.29 2.3-2.29-1.42-1.42-2.29 2.3-2.29-2.3-1.42 1.42 2.29 2.29-2.29 2.29 1.42 1.42ZM12 8.001a3.91 3.91 0 0 0-4-4 3.91 3.91 0 0 0-4 4 3.91 3.91 0 0 0 4 4 3.911 3.911 0 0 0 4-4Zm-6 0a1.91 1.91 0 0 1 2-2 1.91 1.91 0 0 1 2 2 1.91 1.91 0 0 1-2 2 1.911 1.911 0 0 1-2-2Zm-2 10a3 3 0 0 1 3-3h2a3 3 0 0 1 3 3v1h2v-1a5 5 0 0 0-5-5H7a5 5 0 0 0-5 5v1h2v-1Z"></path>
</svg>