<svg id="iconMenu" width="70" height="70" fill="currentColor" viewBox="0 0 24 24" xmlns="http://www.w3.org/2000/svg">
     <path d="M12 2A10.13 10.13 0 0 0 2 12a10 10 0 0 0 4 7.92V20h.1a9.7 9.7 0 0 0 11.8 0h.1v-.08A10 10 0 0 0 22 12 10.13 10.13 0 0 0 12 2ZM8.07 18.93A3 3 0 0 1 11 16.57h2a3 3 0 0 1 2.93 2.36 7.75 7.75 0 0 1-7.86 0Zm9.54-1.29A5 5 0 0 0 13 14.57h-2a5 5 0 0 0-4.61 3.07A8 8 0 0 1 4 12a8.1 8.1 0 0 1 8-8 8.1 8.1 0 0 1 8 8 8 8 0 0 1-2.39 5.64Z"></path>
     <path d="M12 6.001a3.91 3.91 0 0 0-4 4 3.91 3.91 0 0 0 4 4 3.912 3.912 0 0 0 4-4 3.91 3.91 0 0 0-4-4Zm0 6a1.91 1.91 0 0 1-2-2 1.909 1.909 0 0 1 2-2 1.91 1.91 0 0 1 2 2 1.912 1.912 0 0 1-2 2Z"></path>
</svg>