<svg id="iconMenu" width="70" height="70" fill="currentColor" viewBox="0 0 24 24" xmlns="http://www.w3.org/2000/svg">
     <path d="m11.95 3.562.708.707-9.193 9.193A4.969 4.969 0 0 0 2 16.998c0 1.336.521 2.592 1.465 3.535A4.965 4.965 0 0 0 7 21.998a4.965 4.965 0 0 0 3.535-1.465l9.193-9.193.707.708 1.414-1.414-8.485-8.486-1.414 1.414ZM9.121 19.12c-1.133 1.133-3.109 1.133-4.242 0A2.98 2.98 0 0 1 4 17c0-.803.313-1.556.879-2.122l.879-.879h8.484L9.121 19.12ZM16.242 12H7.758l6.314-6.315 4.242 4.242-2.072 2.072Z"></path>
</svg>