<svg id="iconMenu" width="70" height="70" fill="currentColor" viewBox="0 0 24 24" xmlns="http://www.w3.org/2000/svg">
     <path d="M17.5 8a4.505 4.505 0 0 0-4.5 4.5c0 .925.281 1.784.762 2.5h-3.523c.48-.716.761-1.575.761-2.5C11 10.019 8.981 8 6.5 8A4.505 4.505 0 0 0 2 12.5C2 14.981 4.019 17 6.5 17c.171 0 .334-.032.5-.051V17h11v-.051c2.244-.252 4-2.139 4-4.449 0-2.481-2.019-4.5-4.5-4.5ZM4 12.5C4 11.121 5.121 10 6.5 10S9 11.121 9 12.5 7.879 15 6.5 15A2.502 2.502 0 0 1 4 12.5ZM17.5 15a2.502 2.502 0 0 1-2.5-2.5c0-1.379 1.121-2.5 2.5-2.5s2.5 1.121 2.5 2.5-1.121 2.5-2.5 2.5Z"></path>
</svg>