<svg id="iconMenu" width="70" height="70" fill="currentColor" viewBox="0 0 24 24" xmlns="http://www.w3.org/2000/svg">
     <path d="M13 6a2 2 0 1 0 0-4 2 2 0 0 0 0 4Z"></path>
     <path d="M13.979 12.272c.245.368.61.647 1.03.787l2.675.892.633-1.896-2.675-.892-1.662-2.495a2.016 2.016 0 0 0-.77-.679l-1.434-.717a1.989 1.989 0 0 0-1.377-.149l-3.194.797A2.002 2.002 0 0 0 5.9 8.966l-1.794 3.59 1.79.894 1.793-3.589 2.223-.556-1.804 8.346-3.674 2.527 1.133 1.648 3.675-2.528c.421-.29.713-.725.82-1.225l.518-2.388 2.516 1.888.925 4.625 1.962-.393-.925-4.627a2 2 0 0 0-.763-1.206l-2.17-1.628.646-3.885 1.209 1.813Z"></path>
</svg>