<svg id="iconMenu" width="70" height="70" fill="currentColor" viewBox="0 0 24 24" xmlns="http://www.w3.org/2000/svg">
     <path d="m1.293 8.399 1.414 1.414c.504-.504 1.052-.95 1.622-1.36L2.9 7.026c-.56.422-1.104.87-1.607 1.374Zm5.181-3.335L3.707 2.297 2.293 3.71l18 18 1.414-1.414-5.012-5.012.976-.975a7.86 7.86 0 0 0-4.099-2.148l-2.278-2.278c2.789-.191 5.649.748 7.729 2.827l1.414-1.414c-2.898-2.9-7.061-3.936-10.888-3.158L8.024 6.614A13.366 13.366 0 0 1 12 6.004c3.537 0 6.837 1.353 9.293 3.809l1.414-1.414C19.874 5.565 16.071 4.004 12 4.004a15.198 15.198 0 0 0-5.526 1.06Zm-2.911 6.233 1.414 1.414a9.563 9.563 0 0 1 2.058-1.551L5.576 9.7a11.52 11.52 0 0 0-2.013 1.597Zm2.766 3.014 1.414 1.414c.692-.692 1.535-1.151 2.429-1.428L8.615 12.74a7.76 7.76 0 0 0-2.286 1.57Zm7.66 3.803-2.1-2.1a1.995 1.995 0 1 0 2.1 2.1Z"></path>
</svg>