<svg id="iconMenu" width="70" height="70" fill="currentColor" viewBox="0 0 24 24" xmlns="http://www.w3.org/2000/svg">
     <path d="M17.671 14.307c-1.487-1.488-3.5-2.307-5.67-2.307s-4.185.819-5.672 2.307l1.414 1.414c1.11-1.11 2.621-1.722 4.257-1.722 1.636.001 3.147.612 4.257 1.722l1.414-1.414Z"></path>
     <path d="M20.438 11.29c-4.572-4.574-12.302-4.574-16.874 0l1.414 1.413c3.807-3.807 10.239-3.807 14.046 0l1.413-1.414Z"></path>
     <path d="M12 20a2 2 0 1 0 0-4 2 2 0 0 0 0 4Z"></path>
</svg>