<svg id="iconMenu" width="70" height="70" fill="currentColor" viewBox="0 0 24 24" xmlns="http://www.w3.org/2000/svg">
     <path d="M12 2C6.486 2 2 6.486 2 12s4.486 10 10 10 10-4.486 10-10S17.514 2 12 2Zm0 18c-4.411 0-8-3.589-8-8s3.589-8 8-8 8 3.589 8 8-3.589 8-8 8Z"></path>
     <path d="M14.828 14.826a3.988 3.988 0 0 1-3.636 1.09 4.113 4.113 0 0 1-.749-.232 4.17 4.17 0 0 1-.679-.368 4.116 4.116 0 0 1-1.082-1.082l-1.658 1.117a5.992 5.992 0 0 0 9.952 0l-1.658-1.117c-.143.211-.307.41-.49.592Z"></path>
     <path d="M8.5 12a1.5 1.5 0 1 0 0-3 1.5 1.5 0 0 0 0 3Z"></path>
     <path d="M15.5 10c-2 0-2.5 2-2.5 2h5s-.501-2-2.5-2Z"></path>
</svg>