<svg id="iconMenu" width="70" height="70" fill="currentColor" viewBox="0 0 24 24" xmlns="http://www.w3.org/2000/svg">
     <path d="M21.758 5H19.68l-.844 3h-4.893l-.899-3h-2.088l-.899 3H5.164L4.32 5H2.242l.844 3H2v2h1.648l.563 2H2v2h2.773l1.688 6h2.083l1.8-6h3.313l1.8 6h2.083l1.688-6H22v-2h-2.211l.563-2H22V8h-1.086l.844-3ZM5.727 10h3.729l-.6 2H6.289l-.562-2Zm1.804 6.417L6.852 14h1.404l-.725 2.417ZM10.944 12l.6-2h.912l.6 2h-2.112Zm5.525 4.417L15.744 14h1.404l-.679 2.417ZM17.711 12h-2.567l-.6-2h3.729l-.562 2Z"></path>
</svg>